<svg width="526" height="405" viewBox="0 0 526 405" fill="none" xmlns="http://www.w3.org/2000/svg">
<circle cx="6" cy="113" r="6" fill="#A9C296"/>
<circle cx="86" cy="113" r="6" fill="#A9C296"/>
<circle cx="26" cy="113" r="6" fill="#A9C296"/>
<circle cx="106" cy="113" r="6" fill="#A9C296"/>
<circle cx="46" cy="113" r="6" fill="#A9C296"/>
<circle cx="126" cy="113" r="6" fill="#A9C296"/>
<circle cx="66" cy="113" r="6" fill="#A9C296"/>
<circle cx="146" cy="113" r="6" fill="#A9C296"/>
<circle cx="6" cy="189" r="6" fill="#A9C296"/>
<circle cx="86" cy="189" r="6" fill="#A9C296"/>
<circle cx="26" cy="189" r="6" fill="#A9C296"/>
<circle cx="106" cy="189" r="6" fill="#A9C296"/>
<circle cx="46" cy="189" r="6" fill="#A9C296"/>
<circle cx="126" cy="189" r="6" fill="#A9C296"/>
<circle cx="66" cy="189" r="6" fill="#A9C296"/>
<circle cx="146" cy="189" r="6" fill="#A9C296"/>
<circle cx="6" cy="151" r="6" fill="#A9C296"/>
<circle cx="86" cy="151" r="6" fill="#A9C296"/>
<circle cx="26" cy="151" r="6" fill="#A9C296"/>
<circle cx="106" cy="151" r="6" fill="#A9C296"/>
<circle cx="46" cy="151" r="6" fill="#A9C296"/>
<circle cx="126" cy="151" r="6" fill="#A9C296"/>
<circle cx="66" cy="151" r="6" fill="#A9C296"/>
<circle cx="146" cy="151" r="6" fill="#A9C296"/>
<circle cx="6" cy="227" r="6" fill="#A9C296"/>
<circle cx="86" cy="227" r="6" fill="#A9C296"/>
<circle cx="26" cy="227" r="6" fill="#A9C296"/>
<circle cx="106" cy="227" r="6" fill="#A9C296"/>
<circle cx="46" cy="227" r="6" fill="#A9C296"/>
<circle cx="126" cy="227" r="6" fill="#A9C296"/>
<circle cx="66" cy="227" r="6" fill="#A9C296"/>
<circle cx="146" cy="227" r="6" fill="#A9C296"/>
<circle cx="6" cy="132" r="6" fill="#A9C296"/>
<circle cx="86" cy="132" r="6" fill="#A9C296"/>
<circle cx="26" cy="132" r="6" fill="#A9C296"/>
<circle cx="106" cy="132" r="6" fill="#A9C296"/>
<circle cx="46" cy="132" r="6" fill="#A9C296"/>
<circle cx="126" cy="132" r="6" fill="#A9C296"/>
<circle cx="66" cy="132" r="6" fill="#A9C296"/>
<circle cx="146" cy="132" r="6" fill="#A9C296"/>
<circle cx="6" cy="208" r="6" fill="#A9C296"/>
<circle cx="86" cy="208" r="6" fill="#A9C296"/>
<circle cx="26" cy="208" r="6" fill="#A9C296"/>
<circle cx="106" cy="208" r="6" fill="#A9C296"/>
<circle cx="46" cy="208" r="6" fill="#A9C296"/>
<circle cx="126" cy="208" r="6" fill="#A9C296"/>
<circle cx="66" cy="208" r="6" fill="#A9C296"/>
<circle cx="146" cy="208" r="6" fill="#A9C296"/>
<circle cx="6" cy="170" r="6" fill="#A9C296"/>
<circle cx="86" cy="170" r="6" fill="#A9C296"/>
<circle cx="26" cy="170" r="6" fill="#A9C296"/>
<circle cx="106" cy="170" r="6" fill="#A9C296"/>
<circle cx="46" cy="170" r="6" fill="#A9C296"/>
<circle cx="126" cy="170" r="6" fill="#A9C296"/>
<circle cx="66" cy="170" r="6" fill="#A9C296"/>
<circle cx="146" cy="170" r="6" fill="#A9C296"/>
<circle cx="6" cy="246" r="6" fill="#A9C296"/>
<circle cx="86" cy="246" r="6" fill="#A9C296"/>
<circle cx="26" cy="246" r="6" fill="#A9C296"/>
<circle cx="106" cy="246" r="6" fill="#A9C296"/>
<circle cx="46" cy="246" r="6" fill="#A9C296"/>
<circle cx="126" cy="246" r="6" fill="#A9C296"/>
<circle cx="66" cy="246" r="6" fill="#A9C296"/>
<circle cx="146" cy="246" r="6" fill="#A9C296"/>
<path d="M316.045 397.764C326.482 397.582 336.955 397.436 347.356 396.455C352.556 395.982 357.792 395.291 362.774 393.8C366.701 392.636 370.811 390.673 372.629 387C372.883 386.491 373.102 385.909 372.993 385.327C372.92 384.745 372.556 384.273 372.12 383.873C370.011 381.8 366.738 381.727 363.792 381.763C334.955 382.163 306.118 382.709 277.354 385.036C272.19 385.472 266.335 386.309 263.353 390.564C256.844 399.837 279.244 397.8 283.281 397.909C294.227 398.127 305.136 397.946 316.045 397.764Z" fill="url(#paint0_linear_937_471)"/>
<path d="M316.045 397.764C326.482 397.582 336.955 397.436 347.356 396.455C352.556 395.982 357.792 395.291 362.774 393.8C366.701 392.636 370.811 390.673 372.629 387C372.883 386.491 373.102 385.909 372.993 385.327C372.92 384.745 372.556 384.273 372.12 383.873C370.011 381.8 366.738 381.727 363.792 381.763C334.955 382.163 306.118 382.709 277.354 385.036C272.19 385.472 266.335 386.309 263.353 390.564C256.844 399.837 279.244 397.8 283.281 397.909C294.227 398.127 305.136 397.946 316.045 397.764Z" fill="url(#paint1_linear_937_471)"/>
<path d="M242.587 260.96C250.369 299.215 272.515 333.398 280.261 371.69C280.77 374.199 281.242 376.781 282.624 378.89C284.042 381 286.661 382.563 289.097 381.909C293.534 380.709 293.497 374.527 292.879 369.981C291.061 356.417 292.624 342.635 294.224 329.035C296.697 307.834 299.17 286.633 301.643 265.396C303.498 263.469 306.843 263.905 308.879 265.651C310.916 267.36 311.898 269.978 312.698 272.524C316.298 283.833 317.789 295.652 319.316 307.398C322.334 330.926 325.316 354.49 325.68 378.2C327.825 378.345 329.971 378.491 332.117 378.6C340.917 355.108 347.535 330.889 353.753 306.634C356.917 294.343 359.972 282.015 361.972 269.469C364.59 252.996 365.281 236.268 365.826 219.613C365.936 216.231 365.972 212.631 364.045 209.831C362.335 207.358 359.39 206.086 356.554 204.995C332.226 195.649 306.079 192.194 280.115 190.158C272.806 189.576 265.424 189.14 258.224 190.449C252.551 191.467 246.369 193.722 242.114 197.794C237.314 202.413 238.877 209.722 238.841 216.086C238.768 231.105 239.568 246.196 242.587 260.96Z" fill="#666666"/>
<path d="M227.204 176.048C224.804 183.321 222.913 191.94 227.35 198.195C229.459 201.14 232.659 203.067 235.895 204.704C254.078 213.868 274.878 216.013 295.133 217.977C313.388 219.759 331.716 221.541 350.044 220.559C358.772 220.086 367.972 218.813 374.772 213.322C381.245 208.122 384.627 199.795 385.536 191.54C386.445 183.285 385.209 174.957 383.936 166.739C382.554 157.721 381.172 148.702 378.808 139.902C374.699 124.592 367.535 110.119 357.935 97.537C350.662 88.0459 341.826 79.4638 330.989 74.3728C320.734 69.5363 305.17 67.318 294.515 72.5181C283.86 77.6819 274.078 92.5551 266.951 101.719C249.605 124.011 236.041 149.248 227.204 176.048Z" fill="#D3B12A"/>
<path d="M328.772 47.8993C328.663 49.8266 328.554 51.7903 328.009 53.6812C326.663 58.1541 322.59 62.1906 317.063 64.3361C311.536 66.4816 304.663 66.7361 298.99 64.8451C293.353 62.9905 289.208 59.3541 285.898 55.5358C278.989 47.5355 274.953 38.0081 275.898 28.5532C276.044 27.135 276.335 25.6804 277.535 24.5531C279.244 22.9531 282.262 22.5894 284.989 22.3712C293.971 21.5712 318.881 15.8983 326.263 20.2257C333.572 24.5167 329.136 41.8991 328.772 47.8993Z" fill="#F2D6C9"/>
<path d="M256.188 20.7349C257.497 26.2986 264.588 30.5169 272.188 31.4988C279.788 32.4442 287.607 30.626 294.225 27.7168C301.28 24.5894 307.898 20.0439 316.117 19.7893C317.644 19.753 319.208 19.8621 320.517 20.3712C321.971 20.953 323.026 22.0076 323.862 23.0621C328.553 28.8805 329.244 35.9353 329.826 42.6627C332.335 36.808 334.335 30.8442 335.754 24.7713C337.317 18.1529 337.754 10.4072 331.208 5.78892C326.226 2.26154 318.553 1.64334 311.644 2.26154C301.934 3.13429 292.589 6.11622 285.061 10.6982C282.079 12.5164 279.352 14.5892 276.079 16.1893C272.843 17.753 268.915 18.8439 265.061 18.3348C260.842 17.7529 260.006 15.171 257.06 13.7164C255.86 15.7528 255.679 18.4802 256.188 20.7349Z" fill="#8D191C"/>
<path d="M343.791 115.537C341.1 110.592 337.136 106.555 333.791 102.046C330.445 97.537 327.645 92.2278 327.936 86.6276C328.227 81.0275 332.627 75.3546 338.227 75.391C340.554 75.391 342.736 76.3364 344.809 77.391C351.537 80.7729 357.682 85.3912 362.737 90.9913C364.701 93.1732 366.519 95.5005 367.792 98.1552C369.646 102.046 370.155 106.446 370.628 110.737C371.428 118.301 372.083 125.974 370.446 133.393C368.082 143.975 360.519 153.43 350.518 157.684C348.373 158.593 345.1 160.157 343.063 158.993C340.882 157.757 340.482 154.92 340.954 152.775C342.191 146.884 346.227 142.011 347.137 135.756C348.046 128.883 347.136 121.683 343.791 115.537Z" fill="#F2D6C9"/>
<path d="M332.117 156.921C331.681 157.211 331.245 157.539 330.917 157.939C330.117 158.957 330.081 160.339 330.081 161.648C330.081 163.721 330.299 166.157 332.081 167.212C332.881 167.685 333.863 167.757 334.808 167.794C335.79 167.83 336.772 167.903 337.754 167.939C338.809 168.012 339.936 168.048 340.808 167.466C341.718 166.885 342.118 165.794 342.481 164.775C343.354 162.266 344.227 159.793 345.099 157.284C345.245 156.848 345.39 156.375 345.209 155.975C345.1 155.72 344.845 155.539 344.627 155.393C342.554 153.793 341.572 152.993 338.918 153.575C336.699 154.048 333.718 155.321 332.117 156.921Z" fill="#F2D6C9"/>
<path d="M351.717 380.309C350.408 379.109 348.481 378.927 346.736 378.818C344.117 378.636 341.499 378.418 338.881 378.236C337.754 378.163 336.553 378.054 335.644 377.4C335.281 377.145 334.99 376.781 334.735 376.418C333.899 376.418 333.099 376.381 332.262 376.381C329.244 376.309 326.226 377.436 323.28 378.345C323.898 380.927 324.48 383.472 325.099 386.054C325.208 386.563 325.353 387.109 325.753 387.436C326.153 387.764 326.735 387.8 327.281 387.8C336.008 388.018 344.772 387.691 353.463 386.854C353.536 384.491 353.463 381.836 351.717 380.309Z" fill="black"/>
<path d="M291.497 377.981C291.643 381.436 291.752 385.072 290.152 388.163C289.024 390.345 287.133 391.982 285.279 393.618C284.297 394.455 283.351 395.291 282.37 396.164C282.115 396.382 281.824 396.636 281.497 396.745C281.133 396.855 280.733 396.855 280.37 396.818C278.697 396.746 277.06 396.891 275.388 396.782C273.751 396.636 272.042 396.164 270.878 394.964C269.715 393.764 269.351 391.727 270.369 390.418C271.024 389.582 272.115 389.182 273.06 388.709C275.933 387.4 278.406 385.254 280.079 382.6C281.133 380.927 282.115 379.181 284.042 378.49C284.77 378.236 291.497 377.472 291.497 377.981Z" fill="black"/>
<path d="M350.224 149.684C349.824 148.848 349.388 148.011 348.697 147.429C347.788 146.702 346.551 146.666 345.424 146.629C325.169 145.975 304.877 145.284 284.622 144.629C282.986 144.556 281.495 145.611 280.804 147.211C277.531 154.92 273.64 161.393 271.167 169.43C270.84 170.521 271.604 171.612 272.695 171.648C300.041 172.012 328.805 174.957 356.115 172.666C357.97 172.521 359.097 170.412 358.297 168.63C355.57 162.448 352.915 155.211 350.224 149.684Z" fill="#7F7F7F"/>
<path d="M349.678 147.902C349.278 147.066 348.878 146.229 348.151 145.648C347.242 144.92 346.042 144.884 344.951 144.847C325.06 144.193 305.168 143.502 285.313 142.847C283.713 142.775 282.222 143.829 281.567 145.429C278.331 153.139 274.513 159.612 272.113 167.648C271.785 168.739 272.549 169.83 273.604 169.866C300.441 170.23 328.66 173.176 355.46 170.885C357.279 170.739 358.37 168.63 357.606 166.848C354.951 160.666 352.333 153.43 349.678 147.902Z" fill="#666666"/>
<path d="M346.515 149.539C346.152 148.957 345.788 148.339 345.133 147.939C344.333 147.429 343.242 147.393 342.224 147.357C324.296 146.884 306.369 146.375 288.441 145.902C286.986 145.866 285.677 146.593 285.059 147.757C282.15 153.284 278.695 157.939 276.55 163.721C276.259 164.484 276.95 165.284 277.895 165.321C302.114 165.575 327.569 167.721 351.715 166.048C353.352 165.939 354.37 164.412 353.643 163.139C351.279 158.702 348.915 153.502 346.515 149.539Z" fill="#F0F0F0"/>
<path d="M322.913 151.139C322.803 151.284 322.84 151.466 322.876 151.648C323.603 155.83 324.331 160.084 325.931 164.012C330.731 164.012 335.531 164.012 340.331 164.048C341.859 164.048 343.386 164.048 344.841 163.757C343.241 159.612 341.604 155.466 340.004 151.321C334.513 151.466 329.022 151.357 323.567 150.993C323.313 150.957 323.058 150.957 322.913 151.139Z" fill="#E0C74E"/>
<path d="M316.879 150.702C308.043 151.175 299.279 151.029 290.442 150.702C289.751 150.666 289.751 151.72 290.442 151.793C299.242 152.448 308.079 152.339 316.879 151.902C317.643 151.866 317.679 150.666 316.879 150.702Z" fill="#CACACA"/>
<path d="M317.788 154.084C309.133 154.048 300.478 154.302 291.86 154.775C291.205 154.812 291.205 155.83 291.86 155.793C300.515 155.393 309.133 155.284 317.788 155.321C318.588 155.321 318.588 154.084 317.788 154.084Z" fill="#CACACA"/>
<path d="M317.787 158.339C308.696 157.939 299.568 157.866 290.477 157.902C289.786 157.902 289.786 158.957 290.477 158.957C299.605 159.102 308.696 159.393 317.787 159.612C318.587 159.612 318.587 158.375 317.787 158.339Z" fill="#CACACA"/>
<path d="M315.352 161.575C307.279 161.503 299.17 161.648 291.06 161.721C290.369 161.721 290.369 162.775 291.06 162.775C299.133 162.848 307.242 162.994 315.352 162.921C316.225 162.921 316.225 161.612 315.352 161.575Z" fill="#CACACA"/>
<path d="M281.897 157.102C283.388 157.248 284.915 157.393 286.406 157.102C287.642 156.884 288.843 156.375 289.861 155.648C291.461 154.521 292.661 152.702 292.77 150.739C292.843 148.775 291.606 146.738 289.715 146.193C288.842 145.938 287.933 146.011 287.024 146.193C283.024 146.884 279.388 149.175 275.351 149.466C273.86 149.575 272.187 149.466 271.133 150.484C270.551 151.066 270.26 151.866 270.115 152.702C269.969 153.575 269.933 154.557 270.369 155.321C271.205 156.812 273.642 156.339 275.096 156.448C277.351 156.666 279.606 156.884 281.897 157.102Z" fill="#F2D6C9"/>
<path d="M255.351 87.2822C248.66 92.3005 243.206 98.8098 238.005 105.355C233.205 111.428 228.441 117.792 226.078 125.174C223.714 132.556 224.114 141.247 228.914 147.32C233.787 153.466 241.933 155.721 249.642 157.211C252.697 157.793 255.824 158.339 258.951 158.121C262.406 157.902 267.97 158.557 271.279 157.466C273.061 156.884 273.061 155.175 274.406 153.866C275.752 152.557 276.043 149.72 275.097 148.12C269.497 147.757 263.897 147.175 258.333 146.375C253.715 145.72 248.697 144.666 245.715 141.102C242.478 137.247 242.696 131.32 245.096 126.883C247.496 122.447 251.678 119.283 256.006 116.701C260.333 114.119 264.952 111.974 268.952 108.919C275.788 103.683 304.589 82.882 296.407 74.0818C289.861 67.1725 260.988 83.0275 255.351 87.2822Z" fill="#F2D6C9"/>
<path d="M371.61 101.428C371.938 99.3554 370.519 97.428 369.21 95.7916C366.337 92.2278 363.465 88.6278 360.555 85.0641C359.174 83.3549 357.792 81.6093 356.083 80.1911C352.701 77.3547 348.337 76.0092 344.119 74.7728C339.282 73.3546 333.646 72.1545 329.573 75.1001C326.773 77.1365 325.5 80.7366 325.5 84.1912C325.5 87.6459 326.627 90.9551 327.864 94.1915C329.682 98.9917 331.645 103.974 334.227 108.41C336.373 112.156 338.773 111.865 342.409 110.228C351.901 105.974 361.283 102.665 371.61 101.428Z" fill="#D3B12A"/>
<path d="M260.368 97.1734C263.495 102.155 267.35 106.628 271.205 111.065C271.495 111.428 271.859 111.792 272.332 111.792C272.696 111.792 273.023 111.574 273.277 111.356C276.295 109.028 278.332 105.719 280.95 102.955C286.15 97.5007 293.642 94.3006 297.751 88.0095C300.078 84.4094 301.096 79.9729 300.587 75.7183C300.405 74.2273 300.005 72.6999 299.06 71.5726C297.714 69.9362 295.496 69.2816 293.387 69.2816C290.369 69.2816 287.459 70.3363 284.659 71.4273C276.695 74.5183 268.841 77.9365 261.131 81.6457C259.241 82.5548 257.313 83.5003 255.422 84.4458C252.949 85.7185 252.331 85.6822 253.931 87.8641C256.222 90.8823 258.331 93.9006 260.368 97.1734Z" fill="#D3B12A"/>
<path d="M499.937 404.2C506.919 404.2 514.047 404.128 520.702 401.982C521.211 400.418 520.265 398.637 518.883 397.691C517.502 396.746 515.829 396.455 514.156 396.236C508.556 395.509 502.883 395.327 497.21 395.146C475.209 394.491 453.172 393.836 431.135 393.691C428.372 393.655 416.844 394.418 420.117 400.019C422.299 403.764 432.517 402.455 436.081 402.637C449.645 403.291 463.209 403.728 476.81 403.982C484.519 404.128 492.228 404.2 499.937 404.2Z" fill="url(#paint2_linear_937_471)"/>
<path d="M499.937 404.2C506.919 404.2 514.047 404.128 520.702 401.982C521.211 400.419 520.265 398.637 518.883 397.691C517.502 396.746 515.829 396.455 514.156 396.237C508.556 395.509 502.883 395.327 497.21 395.146C475.209 394.491 453.172 393.836 431.135 393.691C428.372 393.655 416.844 394.418 420.117 400.019C422.299 403.764 432.517 402.455 436.081 402.637C449.645 403.291 463.209 403.728 476.81 403.982C484.519 404.128 492.228 404.2 499.937 404.2Z" fill="url(#paint3_linear_937_471)"/>
<path d="M517.867 181.467C517.867 181.467 519.103 161.975 483.793 163.357C483.102 163.394 482.448 163.393 481.793 163.43C481.539 163.575 481.321 163.684 481.066 163.83C480.557 165.139 480.121 166.448 479.793 167.794C479.684 168.157 479.611 168.739 479.502 169.285C479.248 171.394 479.32 170.448 479.502 169.285C479.539 168.848 479.611 168.303 479.684 167.612C479.575 168.484 479.393 169.357 479.284 170.194C478.193 177.976 478.448 185.831 477.757 193.613C477.175 200.267 475.83 206.922 474.375 213.504C475.757 213.431 477.32 213.468 478.193 213.795C479.975 214.449 480.812 375.909 477.757 385.945L491.794 386.091C491.83 386.127 519.031 220.304 517.867 181.467Z" fill="#97A8B2"/>
<path d="M479.32 90.8096C475.21 90.2277 470.847 92.3732 468.847 96.0097C467.574 98.337 467.246 101.064 466.919 103.719C465.756 113.137 464.265 122.519 462.483 131.865C461.283 138.193 461.137 150.775 452.192 151.393C448.846 151.648 445.391 149.102 442.082 148.593C436.664 147.72 431.573 147.429 426.336 145.538C422.118 144.011 419.318 141.756 416.154 138.702C414.263 136.847 411.609 133.174 409.063 132.484C407.245 131.974 404.954 134.084 406.081 135.574C403.827 134.229 400.59 136.375 400.481 139.029C400.263 144.084 410.227 146.957 413.754 149.138C419.209 152.557 424.591 156.157 430.518 158.702C439.864 162.702 449.973 164.957 460.119 165.139C461.901 165.175 463.792 165.103 465.319 164.193C468.592 162.193 470.337 157.502 472.847 154.593C475.138 151.902 476.374 150.12 477.429 146.629C480.338 137.029 482.847 127.174 484.738 117.319C486.52 109.028 492.665 92.7732 479.32 90.8096Z" fill="#EADDD0"/>
<path d="M438.152 239.432C438.37 245.65 438.807 251.869 439.207 258.087C439.825 267.396 440.443 276.706 441.025 286.015C441.207 288.997 441.498 292.161 443.316 294.525C443.498 294.779 443.716 294.997 444.007 295.106C444.989 295.47 445.752 294.234 446.08 293.252C449.971 281.542 455.716 270.487 463.098 260.596C464.989 258.087 467.026 255.578 469.753 254.014C471.79 252.851 474.117 252.232 476.444 251.651C481.026 250.487 485.645 249.323 490.226 248.16C492.917 247.469 495.717 246.741 497.827 244.96C499.499 243.541 500.59 241.578 501.645 239.65C507.027 229.941 512.445 220.122 515.173 209.358C517.173 201.504 517.682 193.358 517.536 185.285C517.536 184.485 517.5 183.649 517.209 182.921C516.809 181.903 515.936 181.103 515.027 180.485C511.573 178.194 507.173 177.903 503.027 177.721C487.281 177.03 471.171 176.703 455.753 180.376C450.989 181.503 442.916 182.667 440.589 187.722C437.752 193.904 438.625 203.504 438.298 210.195C437.825 219.904 437.752 229.686 438.152 239.432Z" fill="#97A8B2"/>
<path d="M470.337 228.632C461.536 227.432 452.7 226.268 443.9 225.068C443.463 223.941 445.645 225.104 445.5 226.268C440.882 263.105 442.663 300.525 446.336 337.58C447.936 353.544 448.045 369.581 446.373 385.509C450.009 385.909 456.264 386.454 459.864 386.854C466.555 337.217 470.591 287.433 477.283 237.796C477.61 235.286 477.828 232.377 475.901 230.559C474.482 229.214 472.337 228.886 470.337 228.632Z" fill="#97A8B2"/>
<path d="M458.881 66.0816C464.154 65.8998 469.536 62.336 475.209 61.1723C473.718 56.5904 475.5 51.6448 475.973 46.8447C476.627 40.3354 474.809 33.8625 472.918 27.6441C471.391 22.6258 469.682 17.4257 466.081 13.571C465.354 12.8073 464.518 12.08 463.536 11.8255C462.663 11.6073 461.754 11.7528 460.881 11.8619C454.663 12.8073 437.39 13.5346 435.753 20.5167C433.499 30.0806 440.081 42.7718 443.79 51.2447C445.535 55.2449 447.317 59.3177 450.372 62.4087C453.136 65.2815 456.009 66.1907 458.881 66.0816Z" fill="#EADDD0"/>
<path d="M519.174 202.958L519.283 202.849C519.356 202.776 519.392 202.704 519.465 202.667C519.61 202.449 519.756 202.267 519.901 202.049C521.756 199.213 523.356 196.231 524.992 193.285C528.047 158.884 524.156 124.156 513.355 90.3368C509.973 79.7183 506.628 68.0089 493.937 60.736C493.282 60.3723 492.591 60.0086 491.791 59.8632C490.737 59.6813 489.646 59.9723 488.627 60.2268C481.791 61.9723 474.954 63.7179 468.081 65.4997C466.736 65.8634 465.354 66.1907 463.972 66.5179C462.518 66.8452 461.063 67.1361 459.572 67.3543C457.027 67.7179 447.026 70.118 446.663 72.5181C445.79 78.6637 444.99 84.8093 444.299 90.9913C442.553 106.228 441.244 121.429 441.281 136.702C441.317 151.939 439.935 167.139 437.426 182.23C437.244 183.394 436.335 189.54 435.244 195.831C435.317 195.94 435.353 196.049 435.426 196.158C436.299 197.831 437.244 199.431 438.299 200.994C438.408 201.14 438.59 201.394 438.771 201.685C438.881 201.794 438.953 201.904 439.026 201.976C440.19 203.322 441.499 204.595 442.844 205.795C442.953 205.904 443.135 206.049 443.353 206.267C441.499 204.522 443.462 206.304 444.008 206.667C445.426 207.613 446.881 208.486 448.372 209.249C448.735 209.431 450.263 210.086 450.408 210.158C450.554 210.231 450.735 210.267 450.881 210.34C472.336 209.431 493.755 207.94 515.028 205.795C516.337 204.74 517.756 203.686 519.174 202.958Z" fill="#B62027"/>
<path d="M447.32 384.127C447.102 384.127 446.883 384.127 446.665 384.163C446.374 384.236 446.192 384.418 446.01 384.564C445.247 385.327 444.665 386.163 444.338 387.072C444.047 387.909 443.974 388.818 443.356 389.545C442.665 390.382 441.392 390.891 440.119 391.291C436.883 392.345 433.392 393.073 429.865 393.4C429.065 393.473 428.265 393.545 427.537 393.764C425.501 394.455 424.992 396.236 424.737 397.8C424.664 398.236 424.628 398.782 425.174 399.037C425.464 399.182 425.828 399.182 426.192 399.182C436.374 399.146 440.701 399.146 450.847 399.146C453.32 399.146 455.902 399.073 458.302 398.637C458.629 398.564 458.956 398.527 459.211 398.346C459.465 398.164 459.575 397.909 459.684 397.655C461.029 394.164 461.175 390.345 460.884 386.745C460.775 385.618 460.593 384.709 458.811 384.454C456.265 384.091 459.065 384.382 456.484 384.309C453.465 384.273 450.374 384.2 447.32 384.127Z" fill="#97A8B2"/>
<path d="M491.284 30.1533C491.32 27.026 489.502 24.1895 487.975 21.4621C485.429 16.9165 483.393 12.0073 480.265 7.82535C477.138 3.64341 472.52 0.152426 467.283 0.00696711C465.101 -0.0657622 462.956 0.443379 460.847 0.952484C451.828 3.13436 442.737 5.35255 434.519 9.64358C433.5 10.1891 432.446 10.771 431.791 11.7528C431.209 12.5892 431.028 13.6437 430.846 14.6619C430.591 16.0801 430.337 17.5347 430.082 18.9529C429.937 19.862 429.755 20.7712 429.937 21.644C430.482 24.3713 433.682 25.5713 436.482 25.7531C439.246 25.8986 441.973 25.535 444.701 25.135C447.319 24.7713 453.501 22.5895 455.61 24.9532C456.665 26.1169 456.337 28.0805 457.065 29.4624C457.937 31.1715 459.574 32.1897 460.665 33.717C461.792 35.1352 462.592 37.099 461.756 38.699C463.283 37.7899 465.174 37.4989 466.919 37.9353C467.538 38.0808 468.156 38.3354 468.556 38.8081C469.319 39.7536 468.992 41.2082 468.156 42.0809C467.319 42.9537 466.119 43.3536 464.956 43.7173C469.901 48.481 471.72 56.2267 469.429 62.736C473.21 62.336 476.374 59.7178 478.992 56.9541C481.356 54.4449 483.538 51.7175 485.029 48.6265C485.72 47.1719 486.266 45.681 486.811 44.19C487.866 41.2081 488.957 38.1898 490.011 35.2079C490.666 33.5352 491.247 31.8625 491.284 30.1533Z" fill="#333333"/>
<path d="M478.919 384.454C478.701 384.454 478.483 384.454 478.265 384.491C477.974 384.563 477.792 384.745 477.61 384.891C476.846 385.654 476.265 386.491 475.937 387.4C475.647 388.236 475.574 389.145 474.956 389.873C474.265 390.709 472.992 391.218 471.719 391.618C468.483 392.673 464.992 393.4 461.464 393.727C460.664 393.8 459.864 393.873 459.137 394.091C457.101 394.782 456.591 396.564 456.337 398.127C456.264 398.564 456.228 399.109 456.773 399.364C457.064 399.509 457.428 399.509 457.792 399.509C467.974 399.473 472.301 399.473 482.447 399.473C484.919 399.473 487.501 399.4 489.901 398.964C490.229 398.891 490.556 398.855 490.81 398.673C491.065 398.491 491.174 398.236 491.283 397.982C492.629 394.491 492.774 390.673 492.483 387.072C492.374 385.945 492.192 385.036 490.411 384.782C487.865 384.418 490.665 384.709 488.083 384.636C485.028 384.6 481.974 384.527 478.919 384.454Z" fill="#97A8B2"/>
<path d="M408.117 141.975C407.063 144.084 405.863 146.157 404.554 148.12C404.372 148.411 404.154 148.702 403.826 148.775C403.499 148.884 403.135 148.702 402.844 148.557C399.317 146.811 395.826 145.066 392.299 143.357C393.135 135.066 392.663 125.029 395.063 117.138C395.39 116.01 412.699 119.029 413.863 122.192C414.99 125.32 411.79 132.847 410.736 135.866C410.008 137.938 409.136 139.975 408.117 141.975Z" fill="#C7B299"/>
<path d="M393.937 118.01C394.446 118.119 394.955 118.156 395.464 118.192C396.555 118.301 397.61 118.519 398.664 118.738C403.864 119.938 408.919 121.683 413.901 123.574C414.228 123.683 414.556 123.829 414.919 123.792C415.465 123.72 415.865 123.21 416.01 122.701C416.156 122.156 416.083 121.61 416.01 121.065C416.01 120.956 415.974 120.847 415.901 120.774C415.828 120.701 415.756 120.665 415.647 120.629C415.392 120.52 415.137 120.41 414.883 120.338C413.719 119.901 412.519 119.538 411.319 119.21C406.119 117.756 400.882 116.41 395.646 115.174C395.391 115.101 395.064 115.065 394.846 115.21C394.446 115.501 394.228 116.228 394.119 116.665C393.937 117.028 393.355 117.901 393.937 118.01Z" fill="#534741"/>
<path d="M393.681 132.847L409.245 139.611L412.372 131.392L393.681 123.792V132.847Z" fill="#5B8C87"/>
<path d="M452.082 39.6444C452.01 39.3172 451.61 38.9899 451.21 39.0263C447.319 39.4263 443.5 40.299 439.755 41.2445C438.446 41.5718 439.028 43.4992 440.3 43.1355C443.682 42.2628 447.137 41.6082 450.519 40.8445C450.955 42.59 451.319 44.3719 451.537 46.1901C451.646 46.9902 451.683 47.7902 451.683 48.5902C451.719 50.0448 449.537 50.1538 448.591 50.3357C447.428 50.5539 446.264 50.6266 445.1 50.6629C443.391 50.7357 443.282 49.972 442.628 48.8447C441.646 47.1356 440.882 45.3537 440.191 43.5355C439.973 42.9537 439.064 43.2082 439.209 43.7901C439.973 46.4083 440.955 49.063 442.409 51.4267C443.464 53.1358 447.391 52.0812 448.991 51.863C450.773 51.6085 453.064 51.2084 453.282 49.172C453.682 46.081 452.882 42.6627 452.082 39.6444Z" fill="#333333"/>
<path d="M461.392 36.2262C458.046 37.4989 454.846 39.4263 451.646 41.0263C451.028 41.3173 451.465 42.3354 452.119 42.1172C455.501 40.9899 459.137 40.0445 462.374 38.5536C463.683 37.9717 462.738 35.7171 461.392 36.2262Z" fill="#333333"/>
<path d="M490.337 91.0642C489.028 86.0458 483.573 75.5728 477.827 83.1003C476.082 85.3913 475.646 88.4459 475.318 91.3187C472.518 114.483 469.682 137.611 466.882 160.775C465.427 172.848 463.827 185.321 457.572 195.722C456.554 197.394 455.427 199.031 454.954 200.922C454.445 202.813 454.736 205.031 456.227 206.304C454.191 208.849 455.863 214.377 459.609 214.086C460.409 214.013 461.136 213.686 461.791 213.213C465.536 210.631 464.591 205.831 465.464 201.831C466.627 196.376 468.3 191.067 469.973 185.794C476.373 165.394 484.41 145.502 488.701 124.665C490.955 113.538 493.21 102.01 490.337 91.0642Z" fill="#EADDD0"/>
<path d="M475.793 78.5547C474.338 78.882 472.848 79.2456 471.757 80.2274C470.338 81.5002 469.866 83.5003 469.466 85.3549C465.102 106.301 461.793 127.465 459.538 148.775C466.738 150.593 473.975 152.411 481.175 154.23C490.339 134.302 494.448 112.083 492.994 90.2277C492.739 86.3367 492.084 82.0093 489.066 79.5365C485.43 76.6637 480.266 77.5365 475.793 78.5547Z" fill="#D1202A"/>
<path d="M177.82 401.109C185.13 400.891 192.439 400.636 199.712 400.091C203.239 399.836 206.876 399.473 210.076 397.946C211.822 397.109 213.603 395.255 212.803 393.509C212.149 392.054 210.185 391.836 208.549 391.836C182.184 391.8 155.783 391.764 129.455 393.509C124.692 393.836 119.273 394.564 116.546 398.491C113.2 403.364 123.201 401.982 125.274 402.018C131.056 402.091 136.838 402.091 142.583 402.018C154.365 401.873 166.075 401.509 177.82 401.109Z" fill="url(#paint4_linear_937_471)"/>
<path d="M177.82 401.109C185.13 400.891 192.439 400.636 199.712 400.091C203.239 399.836 206.876 399.473 210.076 397.946C211.822 397.109 213.603 395.255 212.803 393.509C212.149 392.054 210.185 391.836 208.549 391.836C182.184 391.8 155.783 391.764 129.455 393.509C124.692 393.836 119.273 394.564 116.546 398.491C113.2 403.364 123.201 401.982 125.274 402.018C131.056 402.091 136.838 402.091 142.583 402.018C154.365 401.873 166.075 401.509 177.82 401.109Z" fill="url(#paint5_linear_937_471)"/>
<path d="M231.202 139.029C231.893 139.647 232.584 140.229 233.457 140.483C234.657 140.811 235.93 140.411 237.093 140.011C237.893 139.756 238.657 139.465 239.457 139.211C239.748 139.102 240.075 138.992 240.257 138.702C240.439 138.411 240.403 138.084 240.366 137.72C239.602 130.374 238.221 123.101 236.184 116.01C232.948 117.501 229.748 118.992 226.511 120.483C224.766 121.283 218.911 122.883 218.802 124.992C218.693 127.138 222.838 130.629 224.184 132.083C226.402 134.52 228.73 136.847 231.202 139.029Z" fill="white"/>
<path d="M232.693 114.665C233.638 114.265 234.657 113.865 235.711 114.01C236.73 114.156 237.748 115.065 237.602 116.083C237.493 116.81 233.639 118.556 232.948 118.956C231.275 119.938 229.566 120.847 227.82 121.719C226.075 122.592 224.293 123.392 222.511 124.156C221.529 124.592 219.384 125.938 218.22 125.538C213.965 124.047 221.384 119.974 222.656 119.247C225.893 117.501 229.275 116.083 232.693 114.665Z" fill="#333333"/>
<path d="M195.165 388.564C193.602 388.673 192.002 388.782 190.474 388.382C188.947 387.982 187.492 386.927 187.02 385.436C186.62 384.163 186.802 382.491 185.711 381.763C185.456 381.581 185.165 381.509 184.838 381.472C184.692 354.817 185.347 339.435 185.165 312.234C186.511 303.179 185.711 294.779 185.492 286.015C184.838 258.342 184.22 230.668 183.565 202.994C183.492 199.322 183.347 195.503 181.529 192.085C178.583 186.558 172.037 183.43 165.892 181.03C147.637 173.903 126.982 163.721 121.963 186.63C120.618 192.703 119.527 198.813 118.618 204.995C117.963 209.395 117.454 213.977 119.054 218.34C121.781 225.759 126.836 243.977 133.236 249.359C149.928 263.396 157.201 279.251 162.692 297.87C160.983 304.088 162.983 312.889 163.746 317.689C167.31 340.708 174.656 362.126 178.256 385.145C176.729 387.982 176.074 391.291 176.51 394.491C176.583 395.146 176.728 395.8 177.165 396.273C177.783 396.964 178.801 397.109 179.71 397.182C182.292 397.364 184.874 397.436 187.456 397.4C189.456 397.364 191.602 397.182 193.129 395.873C195.129 394.2 195.238 391.218 195.165 388.564Z" fill="#998675"/>
<path d="M173.419 231.141C168.291 219.832 149.527 212.231 131.818 225.141C121.236 232.85 129.272 241.432 131.6 249.069C134.436 258.342 136.327 267.906 137.2 277.615C138.909 296.343 136.982 315.762 131.381 335.217C127.672 348.162 127.599 362.345 125.018 375.254C123.599 382.491 119.09 392.091 120.145 399.291C124.145 399.328 128.145 399.364 132.109 399.4C135.636 399.437 139.382 399.4 142.327 397.473C145.273 395.546 146.727 390.964 144.254 388.454C141.818 389.254 139.236 390.055 136.727 389.473C125.708 386.854 140.109 361.945 142.218 356.454C151.2 333.035 160.182 309.616 166.691 286.197C171.491 269.069 180.474 246.596 173.419 231.141Z" fill="#998675"/>
<path d="M176.8 106.301C181.164 117.029 185.528 127.72 189.892 138.447C191.092 141.393 192.292 144.52 191.71 147.611C190.692 153.102 184.691 156.048 179.273 157.284C168.546 142.048 157.236 127.211 145.418 112.81C138.69 104.628 128.217 85.7185 143.672 80.0093C161.2 73.5727 171.6 93.5006 176.8 106.301Z" fill="#ACB18F"/>
<path d="M216.111 90.0095C217.529 87.9004 219.565 88.8458 221.347 90.664C216.365 108.701 211.929 126.883 208.038 145.175C206.838 150.848 205.31 157.102 200.474 160.375C198.438 161.757 195.965 162.448 193.528 162.848C189.128 163.612 183.819 163.212 181.346 159.502C177.819 154.193 182.183 149.029 185.674 145.32C189.783 140.993 191.528 138.193 194.074 132.302C199.928 118.701 207.856 102.373 216.111 90.0095Z" fill="#599144"/>
<path d="M224.441 89.1731C224.841 88.664 225.059 88.0458 225.314 87.4276C225.932 85.864 226.55 84.2639 227.168 82.7002C227.459 81.9729 227.75 81.2456 227.787 80.482C227.823 79.7183 227.605 78.8819 227.023 78.3728C226.477 77.9 225.714 77.791 224.986 77.9364C224.259 78.0819 223.677 78.482 223.095 78.9183C221.823 79.9002 220.768 81.1729 220.041 82.6275C219.459 83.7912 219.095 85.064 218.186 85.9731C217.786 86.3731 217.313 86.7003 216.95 87.1731C216.404 87.864 216.295 88.8458 216.623 89.6458C217.823 92.3005 223.059 90.9913 224.441 89.1731Z" fill="#F2D6C9"/>
<path d="M196.039 234.923C194.221 196.013 190.184 157.211 184.911 118.556C182.984 104.374 180.657 87.5003 165.82 80.8819C152.074 74.7363 135.128 73.1727 126.183 86.9913C121.164 94.737 120.037 104.119 118.982 113.21C112.655 168.812 106.327 224.413 100 280.015C106.946 280.415 190.075 292.742 190.439 287.542C190.439 287.47 190.439 287.397 190.439 287.361C190.984 287.324 191.493 287.215 191.966 286.997C193.821 286.161 194.366 283.942 194.694 282.015C197.13 266.451 196.766 250.632 196.039 234.923Z" fill="#919F63"/>
<path d="M221.638 132.956C221.82 132.556 221.965 132.12 222.22 131.756C222.765 130.993 223.711 130.702 224.656 130.593C225.565 130.484 226.511 130.556 227.42 130.411C230.256 129.902 232.584 127.102 235.42 127.538C236.293 127.684 237.093 128.12 237.82 128.629C238.766 129.32 239.638 130.229 239.893 131.356C240.257 133.138 238.984 134.847 237.82 136.229C237.166 136.993 236.475 137.793 235.602 138.266C234.875 138.666 234.038 138.811 233.202 138.993C231.202 139.466 229.202 140.193 227.602 141.575C226.293 142.702 225.202 144.266 223.565 144.666C220.583 145.393 217.783 142.12 217.456 139.429C217.056 136.666 220.62 135.247 221.638 132.956Z" fill="#F2D6C9"/>
<path d="M223.639 142.52C222.329 139.902 221.02 137.284 219.747 134.665C215.638 135.356 212.547 138.629 209.602 141.538C205.529 145.575 201.129 149.284 196.438 152.63C193.674 154.593 190.51 156.484 187.165 155.975C183.092 155.357 180.474 151.393 178.364 147.829C170.51 134.411 162.655 120.956 154.8 107.537C148.582 96.9189 141.636 100.81 137.163 110.337C133.127 119.029 138.327 128.811 142.327 136.665C147.491 146.811 153.2 156.666 159.455 166.23C163.128 171.83 167.528 177.721 174.073 179.212C177.201 179.939 180.546 179.54 183.637 178.63C193.638 175.794 201.565 168.339 208.947 160.993C213.711 156.23 218.438 151.357 223.057 146.448C223.566 145.902 224.111 145.32 224.22 144.557C224.293 143.902 223.966 143.175 223.639 142.52Z" fill="#599144"/>
<path d="M179.093 27.3532C177.456 22.4803 174.874 16.4801 169.601 15.2074C163.892 13.8619 155.819 17.6075 151.674 21.2439C146.546 25.7168 143.346 32.0443 141.564 38.5899C139.601 45.7174 139.273 53.6449 142.473 60.336C145.673 67.0271 152.983 72.0454 160.292 70.9545C165.201 70.2272 169.383 66.9907 172.583 63.2088C180.802 53.4994 183.129 39.3535 179.093 27.3532Z" fill="#F2D6C9"/>
<path d="M154.546 45.6446C152.909 42.7718 147.964 42.9174 146.509 45.8629C145.418 48.0448 149.346 56.9177 149.927 59.645C151.455 66.8816 143.673 116.265 145.673 123.429C134 123.683 122.217 122.41 111.09 118.847C109.963 118.483 108.763 118.047 107.963 117.138C106.944 115.938 106.908 114.192 106.981 112.628C107.853 89.2095 129.454 9.49814 158.509 10.1891C162.073 10.2618 165.601 11.0618 169.092 11.8982C171.383 12.4437 173.674 13.0619 175.746 14.2256C179.965 16.662 182.583 21.2803 183.637 26.0441C184.728 30.8079 184.437 35.7535 184.183 40.59C184.11 42.0809 166.692 40.5536 165.019 40.299C163.128 40.0081 159.6 38.5172 157.709 39.3172C155.528 40.2263 155.273 43.6809 154.546 45.6446Z" fill="black"/>
<path opacity="0.19" d="M129.166 198.885C124.148 197.903 119.566 195.467 115.093 193.031C115.82 190.849 116.547 188.667 117.238 186.485C137.748 193.867 161.058 193.213 181.131 184.703C181.458 188.158 181.749 191.612 182.077 195.067C176.622 196.231 171.058 196.667 165.531 197.14C157.967 197.758 150.439 198.376 142.875 199.031C138.33 199.395 133.675 199.758 129.166 198.885Z" fill="white"/>
<defs>
<linearGradient id="paint0_linear_937_471" x1="262.243" y1="389.902" x2="373.064" y2="389.902" gradientUnits="userSpaceOnUse">
<stop stop-color="#4D4D4D"/>
<stop offset="1"/>
</linearGradient>
<linearGradient id="paint1_linear_937_471" x1="262.243" y1="389.902" x2="373.064" y2="389.902" gradientUnits="userSpaceOnUse">
<stop/>
<stop offset="1"/>
</linearGradient>
<linearGradient id="paint2_linear_937_471" x1="419.596" y1="398.953" x2="520.858" y2="398.953" gradientUnits="userSpaceOnUse">
<stop stop-color="#4D4D4D"/>
<stop offset="1"/>
</linearGradient>
<linearGradient id="paint3_linear_937_471" x1="419.596" y1="398.953" x2="520.858" y2="398.953" gradientUnits="userSpaceOnUse">
<stop/>
<stop offset="1"/>
</linearGradient>
<linearGradient id="paint4_linear_937_471" x1="115.891" y1="397.014" x2="212.987" y2="397.014" gradientUnits="userSpaceOnUse">
<stop stop-color="#4D4D4D"/>
<stop offset="1"/>
</linearGradient>
<linearGradient id="paint5_linear_937_471" x1="115.891" y1="397.014" x2="212.987" y2="397.014" gradientUnits="userSpaceOnUse">
<stop/>
<stop offset="1"/>
</linearGradient>
</defs>
</svg>
