<?xml version="1.0" encoding="UTF-8"?>
<svg version="1.1" xmlns="http://www.w3.org/2000/svg" width="258" height="294">
<path d="M0 0 C85.14 0 170.28 0 258 0 C258 97.02 258 194.04 258 294 C172.86 294 87.72 294 0 294 C0 196.98 0 99.96 0 0 Z " fill="#FEFEFE" transform="translate(0,0)"/>
<path d="M0 0 C85.14 0 170.28 0 258 0 C258 97.02 258 194.04 258 294 C172.86 294 87.72 294 0 294 C0 196.98 0 99.96 0 0 Z M68 41 C68 45.29 68 49.58 68 54 C53.81 54 39.62 54 25 54 C25 129.24 25 204.48 25 282 C91.99 282 158.98 282 228 282 C228 246.69 228 211.38 228 175 C230.475 174.01 230.475 174.01 233 173 C236.33100064 169.98022922 238.72425289 166.63020325 239.203125 162.0625 C239.21859375 161.381875 239.2340625 160.70125 239.25 160 C239.27578125 159.319375 239.3015625 158.63875 239.328125 157.9375 C238.9069178 155.45037179 237.80747254 154.68458827 236 153 C233.99390948 155.11953017 231.99506397 157.24513441 230 159.375 C229.42765625 159.97828125 228.8553125 160.5815625 228.265625 161.203125 C227.72421875 161.78320312 227.1828125 162.36328125 226.625 162.9609375 C226.12226563 163.49509277 225.61953125 164.02924805 225.1015625 164.57958984 C223.79572319 165.96382154 223.79572319 165.96382154 224 168 C220.48200238 166.04555688 217.60791131 164.09085785 215 161 C215 160.01 215 159.02 215 158 C215.66 158 216.32 158 217 158 C218.38232443 159.62626404 219.71937515 161.2925002 221 163 C224.88397689 161.44997253 227.02979619 158.99523379 229.75 155.875 C230.54921875 154.96492188 231.3484375 154.05484375 232.171875 153.1171875 C232.77515625 152.41851562 233.3784375 151.71984375 234 151 C233.1470525 149.00213945 233.1470525 149.00213945 232 147 C229.94999129 146.19471111 229.94999129 146.19471111 228 146 C228.125 144.25 228.125 144.25 229 142 C230.97321053 140.6273318 232.97543152 139.29572383 235 138 C238.0081057 134.57698316 239.14683391 131.53930817 239.25 127 C239.27578125 126.319375 239.3015625 125.63875 239.328125 124.9375 C239.11351716 122.53440835 239.11351716 122.53440835 236 120 C231.71 124.62 227.42 129.24 223 134 C219.41846941 132.20923471 217.53148075 130.98353088 215 128 C215 127.01 215 126.02 215 125 C215.66 125 216.32 125 217 125 C218.38232443 126.62626404 219.71937515 128.2925002 221 130 C224.88397689 128.44997253 227.02979619 125.99523379 229.75 122.875 C230.54921875 121.96492188 231.3484375 121.05484375 232.171875 120.1171875 C232.77515625 119.41851562 233.3784375 118.71984375 234 118 C233.1470525 116.00213945 233.1470525 116.00213945 232 114 C229.94999129 113.19471111 229.94999129 113.19471111 228 113 C228.125 111.25 228.125 111.25 229 109 C230.97321053 107.6273318 232.97543152 106.29572383 235 105 C238.90469082 100.55673113 239.20409011 96.81656807 239 91 C238.57145005 88.68963085 238.57145005 88.68963085 238 87 C233.75091664 88.59846469 231.17774261 91.8130392 228.25 95.125 C227.74339844 95.68832031 227.23679688 96.25164062 226.71484375 96.83203125 C225.47115468 98.21651531 224.23483695 99.60761488 223 101 C219.63027953 99.46074497 218.1842498 97.97852245 216 95 C215.34 95 214.68 95 214 95 C214.33 94.01 214.66 93.02 215 92 C215.66 92 216.32 92 217 92 C218.38232443 93.62626404 219.71937515 95.2925002 221 97 C224.80970805 95.45339834 227.02369189 93.09618599 229.75 90.0625 C230.54921875 89.18722656 231.3484375 88.31195313 232.171875 87.41015625 C234.30216498 85.10580701 234.30216498 85.10580701 234 82 C231.03 81.01 231.03 81.01 228 80 C228 71.42 228 62.84 228 54 C214.47 54 200.94 54 187 54 C187 50.04 187 46.08 187 42 C185.22613264 39.81539624 185.22613264 39.81539624 182.96349335 39.75111103 C182.11988503 39.7516558 181.2762767 39.75220057 180.40710449 39.75276184 C179.43961777 39.74856735 178.47213104 39.74437286 177.47532654 39.74005127 C176.41032425 39.74567078 175.34532196 39.75129028 174.24804688 39.75708008 C173.12930679 39.75518173 172.01056671 39.75328339 170.85792542 39.75132751 C167.14479658 39.74761046 163.43186157 39.75833723 159.71875 39.76953125 C157.14807152 39.77072263 154.57739261 39.7711763 152.00671387 39.7709198 C146.61300748 39.77248628 141.21937164 39.78054674 135.82568359 39.79418945 C129.58521023 39.80991545 123.34479844 39.81518758 117.1043067 39.8144539 C111.10713067 39.81384399 105.10997982 39.8190539 99.11280823 39.82724571 C96.55782696 39.83043683 94.00284387 39.83240082 91.44786072 39.83313942 C87.88252641 39.83529829 84.31727067 39.84403275 80.75195312 39.85473633 C79.68695084 39.85428314 78.62194855 39.85382996 77.52467346 39.85336304 C76.07344337 39.85976051 76.07344337 39.85976051 74.59289551 39.86628723 C73.74928719 39.86796308 72.90567886 39.86963892 72.03650665 39.87136555 C69.93225272 39.87139837 69.93225272 39.87139837 68 41 Z " fill="#FEFEFE" transform="translate(0,0)"/>
<path d="M0 0 C1.45123009 -0.00639748 1.45123009 -0.00639748 2.93177795 -0.01292419 C3.99678024 -0.01247101 5.06178253 -0.01201782 6.15905762 -0.0115509 C7.2777977 -0.01490952 8.39653778 -0.01826813 9.54917908 -0.02172852 C13.26224871 -0.03125927 16.97527337 -0.03318259 20.68835449 -0.03425598 C23.2590334 -0.03746671 25.82971211 -0.04083063 28.40039062 -0.04434204 C33.79407248 -0.05033837 39.18773637 -0.05222409 44.5814209 -0.05158997 C50.82191592 -0.05098874 57.06232463 -0.06154907 63.30279779 -0.07733363 C69.29997288 -0.09196408 75.29710093 -0.09557864 81.29429626 -0.09498024 C83.84928236 -0.09616435 86.40426902 -0.10061005 88.95924377 -0.10831261 C92.52462027 -0.11805581 96.08977163 -0.11525711 99.65515137 -0.10920715 C100.72015366 -0.11482666 101.78515594 -0.12044617 102.88243103 -0.12623596 C104.33366112 -0.11994423 104.33366112 -0.11994423 105.81420898 -0.11352539 C106.65781731 -0.11407016 107.50142563 -0.11461493 108.37059784 -0.1151762 C110.40710449 0.13371277 110.40710449 0.13371277 112.40710449 2.13371277 C112.40710449 6.09371277 112.40710449 10.05371277 112.40710449 14.13371277 C125.93710449 14.13371277 139.46710449 14.13371277 153.40710449 14.13371277 C153.40710449 22.71371277 153.40710449 31.29371277 153.40710449 40.13371277 C156.37710449 41.12371277 156.37710449 41.12371277 159.40710449 42.13371277 C158.92753216 46.41925273 156.18838229 48.90302682 153.34460449 51.88371277 C152.87216309 52.39031433 152.39972168 52.89691589 151.91296387 53.41886902 C150.75079738 54.66320889 149.57980288 55.89929341 148.40710449 57.13371277 C145.24594674 55.76387774 144.41439529 55.14464897 142.40710449 52.13371277 C141.74710449 52.13371277 141.08710449 52.13371277 140.40710449 52.13371277 C140.07710449 53.12371277 139.74710449 54.11371277 139.40710449 55.13371277 C140.06710449 55.13371277 140.72710449 55.13371277 141.40710449 55.13371277 C143.12146629 57.0929834 144.79115617 59.09251489 146.40710449 61.13371277 C150.64734738 59.54613368 153.14649545 56.33410714 156.03210449 53.00871277 C157.78303444 50.99514333 159.55376284 49.05765791 161.40710449 47.13371277 C162.06710449 47.13371277 162.72710449 47.13371277 163.40710449 47.13371277 C164.96888226 52.01426829 165.01000465 56.51540183 163.21960449 61.32121277 C160.88664442 64.94132323 158.25165694 67.21143654 154.40710449 69.13371277 C153.75497158 71.15834532 153.75497158 71.15834532 153.40710449 73.13371277 C155.05710449 73.79371277 156.70710449 74.45371277 158.40710449 75.13371277 C158.40710449 80.02275171 157.362499 80.84743883 154.15710449 84.38371277 C153.36819824 85.27574402 152.57929199 86.16777527 151.76647949 87.08683777 C149.40710449 89.13371277 149.40710449 89.13371277 145.40710449 89.13371277 C143.78210449 87.13371277 143.78210449 87.13371277 142.40710449 85.13371277 C141.74710449 85.13371277 141.08710449 85.13371277 140.40710449 85.13371277 C140.87912935 89.38193651 143.37365967 91.33360986 146.40710449 94.13371277 C150.65618785 92.53524808 153.22936189 89.32067356 156.15710449 86.00871277 C156.66370605 85.44539246 157.17030762 84.88207214 157.69226074 84.30168152 C158.93594981 82.91719746 160.17226754 81.52609789 161.40710449 80.13371277 C164.22994294 82.54582076 164.38989646 82.95876443 164.78210449 86.94621277 C164.61262104 90.9622338 163.64548833 93.73754419 161.40710449 97.13371277 C159.14558093 99.17459989 157.12561426 100.77445788 154.40710449 102.13371277 C153.75497158 104.15834532 153.75497158 104.15834532 153.40710449 106.13371277 C155.05710449 106.79371277 156.70710449 107.45371277 158.40710449 108.13371277 C158.40710449 113.02275171 157.362499 113.84743883 154.15710449 117.38371277 C153.36819824 118.27574402 152.57929199 119.16777527 151.76647949 120.08683777 C149.40710449 122.13371277 149.40710449 122.13371277 145.40710449 122.13371277 C143.78210449 120.13371277 143.78210449 120.13371277 142.40710449 118.13371277 C141.74710449 118.13371277 141.08710449 118.13371277 140.40710449 118.13371277 C140.88015131 122.39113414 143.29348669 124.39076375 146.40710449 127.13371277 C147.39710449 127.46371277 148.38710449 127.79371277 149.40710449 128.13371277 C149.7435498 127.32160339 149.7435498 127.32160339 150.08679199 126.49308777 C151.81859316 123.39838983 154.12329717 120.95445672 156.53210449 118.38371277 C157.00003418 117.87711121 157.46796387 117.37050964 157.95007324 116.84855652 C159.0983699 115.60652135 160.25219121 114.36959783 161.40710449 113.13371277 C164.22994294 115.54582076 164.38989646 115.95876443 164.78210449 119.94621277 C164.57521097 124.65304029 163.32394653 128.19642442 159.94226074 131.61418152 C155.91008068 135.13371277 155.91008068 135.13371277 153.40710449 135.13371277 C153.40710449 170.44371277 153.40710449 205.75371277 153.40710449 242.13371277 C86.41710449 242.13371277 19.42710449 242.13371277 -49.59289551 242.13371277 C-49.59289551 166.89371277 -49.59289551 91.65371277 -49.59289551 14.13371277 C-35.40289551 14.13371277 -21.21289551 14.13371277 -6.59289551 14.13371277 C-6.59289551 9.84371277 -6.59289551 5.55371277 -6.59289551 1.13371277 C-4.18740046 -0.06903475 -2.6867838 0.00533735 0 0 Z M-43.59289551 20.13371277 C-43.59289551 91.74371277 -43.59289551 163.35371277 -43.59289551 237.13371277 C19.76710449 237.13371277 83.12710449 237.13371277 148.40710449 237.13371277 C148.40710449 203.80371277 148.40710449 170.47371277 148.40710449 136.13371277 C145.43710449 134.81371277 142.46710449 133.49371277 139.40710449 132.13371277 C135.55436517 127.43525018 134.73337029 123.54063207 135.03601074 117.49699402 C135.62624325 113.73814491 136.7503604 111.85525549 139.40710449 109.13371277 C142.31883391 107.53000638 145.28502551 106.26780129 148.40710449 105.13371277 C148.40710449 104.47371277 148.40710449 103.81371277 148.40710449 103.13371277 C147.72003418 102.84238464 147.03296387 102.55105652 146.32507324 102.25090027 C139.04311385 98.93807754 139.04311385 98.93807754 136.28210449 95.44621277 C134.72314711 89.54444552 134.42672622 84.43547044 136.84460449 78.75871277 C140.24242414 75.27801948 143.88434788 73.77659444 148.40710449 72.13371277 C148.40710449 71.14371277 148.40710449 70.15371277 148.40710449 69.13371277 C147.80382324 68.99836121 147.20054199 68.86300964 146.57897949 68.72355652 C142.12469389 67.52377314 139.87466725 66.69250729 136.84460449 63.07121277 C134.77686973 58.57365145 134.6165156 53.97307508 135.40710449 49.13371277 C137.60655122 44.65335833 139.90842267 42.27058663 144.40710449 40.13371277 C146.38710449 39.63871277 146.38710449 39.63871277 148.40710449 39.13371277 C148.40710449 32.86371277 148.40710449 26.59371277 148.40710449 20.13371277 C143.31626852 20.06491769 138.22703853 20.00516426 133.1361084 19.96891785 C131.403631 19.95381187 129.67119195 19.93332583 127.93884277 19.90739441 C125.45160471 19.87108956 122.96487123 19.85400511 120.47741699 19.84074402 C119.70028351 19.82526016 118.92315002 19.80977631 118.12246704 19.79382324 C115.70974611 19.75801712 115.70974611 19.75801712 112.40710449 20.13371277 C111.74710449 21.12371277 111.08710449 22.11371277 110.40710449 23.13371277 C108.34939384 23.50285625 108.34939384 23.50285625 105.76278687 23.49447632 C104.78399567 23.49860031 103.80520447 23.5027243 102.79675293 23.50697327 C101.71925781 23.49618744 100.6417627 23.48540161 99.53161621 23.47428894 C98.39990997 23.47472702 97.26820374 23.4751651 96.10220337 23.47561646 C92.3468931 23.4735199 88.59202464 23.4501475 84.83679199 23.42668152 C82.23890426 23.42108866 79.64101336 23.4168171 77.04312134 23.41381836 C70.89489182 23.40351903 64.74684569 23.37985474 58.59868538 23.34976989 C51.60000389 23.31626487 44.60131486 23.29974972 37.60257316 23.28468359 C23.20399781 23.25330611 8.80555682 23.20052131 -5.59289551 23.13371277 C-6.08789551 21.64871277 -6.08789551 21.64871277 -6.59289551 20.13371277 C-18.80289551 20.13371277 -31.01289551 20.13371277 -43.59289551 20.13371277 Z " fill="#6D9556" transform="translate(74.5928955078125,39.86628723144531)"/>
<path d="M0 0 C49.83 0 99.66 0 151 0 C151 6.27 151 12.54 151 19 C101.17 19 51.34 19 0 19 C0 12.73 0 6.46 0 0 Z " fill="#6C9455" transform="translate(52,217)"/>
<path d="M0 0 C49.83 0 99.66 0 151 0 C151 6.27 151 12.54 151 19 C101.17 19 51.34 19 0 19 C0 12.73 0 6.46 0 0 Z " fill="#6B9454" transform="translate(52,184)"/>
<path d="M0 0 C49.83 0 99.66 0 151 0 C151 6.27 151 12.54 151 19 C101.17 19 51.34 19 0 19 C0 12.73 0 6.46 0 0 Z " fill="#6B9454" transform="translate(52,151)"/>
<path d="M0 0 C49.83 0 99.66 0 151 0 C151 5.94 151 11.88 151 18 C150 19 150 19 147.53434658 19.12304783 C146.42911679 19.12212604 145.323887 19.12120424 144.18516541 19.12025452 C142.92166763 19.12162918 141.65816986 19.12300385 140.35638428 19.12442017 C138.94323707 19.12088055 137.5300901 19.11724574 136.11694336 19.11352539 C134.63898216 19.11324353 133.16102081 19.11340124 131.68305969 19.1139679 C127.65844172 19.1142559 123.63385328 19.1083587 119.6092422 19.10139394 C115.40783635 19.09516088 111.2064299 19.09455664 107.00502014 19.09336853 C99.04353743 19.09025507 91.08206838 19.08204149 83.1205917 19.07201904 C74.05907411 19.06085836 64.99755588 19.05534757 55.93603313 19.05032361 C37.29068078 19.03985888 18.64534199 19.02205875 0 19 C0 12.73 0 6.46 0 0 Z " fill="#6C9455" transform="translate(52,118)"/>
<path d="M0 0 C49.83 0 99.66 0 151 0 C151 5.94 151 11.88 151 18 C150 19 150 19 147.53434658 19.12304783 C146.42911679 19.12212604 145.323887 19.12120424 144.18516541 19.12025452 C142.92166763 19.12162918 141.65816986 19.12300385 140.35638428 19.12442017 C138.94323707 19.12088055 137.5300901 19.11724574 136.11694336 19.11352539 C134.63898216 19.11324353 133.16102081 19.11340124 131.68305969 19.1139679 C127.65844172 19.1142559 123.63385328 19.1083587 119.6092422 19.10139394 C115.40783635 19.09516088 111.2064299 19.09455664 107.00502014 19.09336853 C99.04353743 19.09025507 91.08206838 19.08204149 83.1205917 19.07201904 C74.05907411 19.06085836 64.99755588 19.05534757 55.93603313 19.05032361 C37.29068078 19.03985888 18.64534199 19.02205875 0 19 C0 12.73 0 6.46 0 0 Z " fill="#6B9454" transform="translate(52,85)"/>
<path d="M0 0 C3.5625 1.5 3.5625 1.5 6 3 C5.52042767 7.28553996 2.7812778 9.76931405 -0.0625 12.75 C-0.53494141 13.25660156 -1.00738281 13.76320313 -1.49414062 14.28515625 C-2.65630711 15.52949613 -3.82730161 16.76558064 -5 18 C-8.16115776 16.63016497 -8.9927092 16.0109362 -11 13 C-11.66 13 -12.32 13 -13 13 C-13.33 13.99 -13.66 14.98 -14 16 C-13.34 16 -12.68 16 -12 16 C-10.2856382 17.95927063 -8.61594832 19.95880212 -7 22 C-2.75975712 20.41242091 -0.26060904 17.20039437 2.625 13.875 C4.37592994 11.86143057 6.14665835 9.92394514 8 8 C8.66 8 9.32 8 10 8 C11.56177777 12.88055552 11.60290015 17.38168906 9.8125 22.1875 C7.47953993 25.80761046 4.84455245 28.07772378 1 30 C0.34786708 32.02463255 0.34786708 32.02463255 0 34 C1.65 34.66 3.3 35.32 5 36 C5 40.88903895 3.9553945 41.71372606 0.75 45.25 C-0.03890625 46.14203125 -0.8278125 47.0340625 -1.640625 47.953125 C-4 50 -4 50 -8 50 C-9.625 48 -9.625 48 -11 46 C-11.66 46 -12.32 46 -13 46 C-12.52797514 50.24822374 -10.03344482 52.19989709 -7 55 C-2.75091664 53.40153531 -0.17774261 50.1869608 2.75 46.875 C3.25660156 46.31167969 3.76320312 45.74835938 4.28515625 45.16796875 C5.52884532 43.78348469 6.76516305 42.39238512 8 41 C10.82283845 43.41210799 10.98279197 43.82505166 11.375 47.8125 C11.20551654 51.82852104 10.23838383 54.60383142 8 58 C5.73847644 60.04088712 3.71850977 61.64074512 1 63 C0.34786708 65.02463255 0.34786708 65.02463255 0 67 C1.65 67.66 3.3 68.32 5 69 C5 73.88903895 3.9553945 74.71372606 0.75 78.25 C-0.03890625 79.14203125 -0.8278125 80.0340625 -1.640625 80.953125 C-4 83 -4 83 -8 83 C-9.625 81 -9.625 81 -11 79 C-11.66 79 -12.32 79 -13 79 C-12.52695318 83.25742137 -10.1136178 85.25705098 -7 88 C-6.01 88.33 -5.02 88.66 -4 89 C-3.77570313 88.45859375 -3.55140625 87.9171875 -3.3203125 87.359375 C-1.58851134 84.26467706 0.71619268 81.82074395 3.125 79.25 C3.59292969 78.74339844 4.06085938 78.23679687 4.54296875 77.71484375 C5.69126541 76.47280859 6.84508672 75.23588506 8 74 C10.82283845 76.41210799 10.98279197 76.82505166 11.375 80.8125 C11.13114818 86.36012882 9.161792 89.72486243 5.4375 93.8125 C1.40925072 96.89882034 -3.03525713 97.38553471 -8 97 C-12.42559729 95.71514917 -14.62594015 93.47956391 -17.4375 89.875 C-19.65660066 85.40797919 -19.80350019 80.86921117 -19 76 C-17.00611251 72.08343529 -14.86349003 69.15900913 -11 67 C-7.75 66.3125 -7.75 66.3125 -5 66 C-5 65.34 -5 64.68 -5 64 C-5.70125 63.9175 -6.4025 63.835 -7.125 63.75 C-11.88155293 62.50916011 -15.01635255 60.37710643 -17.875 56.375 C-19.83214998 50.50355007 -20.06018542 45.29000051 -17.4375 39.625 C-14.45594157 36.41409092 -11.96004945 34.87202338 -8 33 C-7.01 33 -6.02 33 -5 33 C-5 32.01 -5 31.02 -5 30 C-6.051875 29.938125 -7.10375 29.87625 -8.1875 29.8125 C-12.7049319 28.84976861 -14.12257842 27.53511794 -17 24 C-19.69202274 19.49440404 -19.64767399 15.11662453 -19 10 C-15.05102983 1.79829272 -8.79399391 -1.36377446 0 0 Z " fill="#AE383A" transform="translate(228,79)"/>
<path d="M0 0 C18.48 0 36.96 0 56 0 C56 3.96 56 7.92 56 12 C37.52 12 19.04 12 0 12 C0 8.04 0 4.08 0 0 Z " fill="#9B1F14" transform="translate(99,40)"/>
</svg>
