<?xml version="1.0" encoding="UTF-8"?>
<svg version="1.1" xmlns="http://www.w3.org/2000/svg" width="258" height="302">
<path d="M0 0 C85.14 0 170.28 0 258 0 C258 99.66 258 199.32 258 302 C172.86 302 87.72 302 0 302 C0 202.34 0 102.68 0 0 Z " fill="#FEFEFE" transform="translate(0,0)"/>
<path d="M0 0 C1.18887329 1.82621765 1.18887329 1.82621765 2.16650391 4.2409668 C2.54014069 5.14247971 2.91377747 6.04399261 3.29873657 6.9728241 C3.68741913 7.95503433 4.07610168 8.93724457 4.4765625 9.94921875 C5.09354507 11.45727837 5.09354507 11.45727837 5.72299194 12.99580383 C7.03808631 16.22072285 8.33145774 19.45388442 9.625 22.6875 C10.50384685 24.84886139 11.38403912 27.00967624 12.265625 29.16992188 C19.11128906 46.0103206 19.11128906 46.0103206 21 52 C21.50579714 48.95919579 22.00480759 45.91753354 22.5 42.875 C22.64308594 42.0190625 22.78617187 41.163125 22.93359375 40.28125 C24.30335319 32.16968573 24.30335319 32.16968573 23.125 24.125 C22.95105337 19.77633418 24.83493661 17.86494976 27.45703125 14.5390625 C29 13 29 13 31 13 C36.02364616 18.7413099 36.38269601 23.10218243 36.11376953 30.625 C35.86797083 37.90742231 36.84371155 44.81449319 38 52 C38.25056152 51.39865234 38.50112305 50.79730469 38.75927734 50.17773438 C39.52245516 48.34610762 40.2856394 46.51448354 41.04882812 44.68286133 C41.94080133 42.54209279 42.83272761 40.40130469 43.72460938 38.26049805 C46.088754 32.58597069 48.45367211 26.91176822 50.8203125 21.23828125 C51.26971191 20.160625 51.71911133 19.08296875 52.18212891 17.97265625 C53.04609863 15.9009215 53.91034655 13.82930274 54.77490234 11.7578125 C55.36585693 10.34048828 55.36585693 10.34048828 55.96875 8.89453125 C56.31357422 8.06800049 56.65839844 7.24146973 57.01367188 6.38989258 C58.0273748 3.93367033 59.01760749 1.46889303 60 -1 C67.81240114 0.3348681 74.74063687 3.20364843 81.94702148 6.37548828 C83.92547187 7.24471547 85.91033092 8.09776447 87.89648438 8.94921875 C108.58029584 17.90750875 108.58029584 17.90750875 115 27 C115.7610051 28.03971451 115.7610051 28.03971451 116.53738403 29.10043335 C122.27924258 38.07096885 122.04430229 46.98620945 122.2421875 57.2890625 C122.29848421 59.1608298 122.35721572 61.03252527 122.41824341 62.90414429 C122.57148981 67.81256119 122.69058829 72.72123173 122.80267334 77.6307373 C122.9221916 82.57869228 123.07645816 87.52555286 123.2265625 92.47265625 C123.70289068 108.65294792 124.06219037 124.81195551 124 141 C113.77 141 103.54 141 93 141 C92.25210425 138.00841701 91.81525203 135.61676917 91.61108398 132.59863281 C91.51990295 131.28983154 91.51990295 131.28983154 91.42687988 129.95458984 C91.33739075 128.59261475 91.33739075 128.59261475 91.24609375 127.203125 C91.18812622 126.36185059 91.13015869 125.52057617 91.07043457 124.65380859 C90.85552401 121.51947288 90.6468847 118.38470971 90.4375 115.25 C89.963125 108.2375 89.48875 101.225 89 94 C88.67 109.51 88.34 125.02 88 141 C49.72 141 11.44 141 -28 141 C-28.33 125.82 -28.66 110.64 -29 95 C-30.32 110.18 -31.64 125.36 -33 141 C-43.23 141 -53.46 141 -64 141 C-64.07664789 119.49142419 -63.91185667 98.02413119 -63.31030273 76.52490234 C-63.20376313 72.68978858 -63.11458306 68.85445341 -63.02869701 65.01882935 C-62.95811658 62.00210113 -62.87522872 58.98580003 -62.78899574 55.96948242 C-62.75057714 54.55358447 -62.71662599 53.13755682 -62.68758202 51.72143555 C-62.48533971 42.12941811 -62.01459449 33.15150395 -55.9375 25.3125 C-55.43089844 24.62800781 -54.92429687 23.94351563 -54.40234375 23.23828125 C-47.15350586 16.48448595 -37.52524536 12.78838184 -28.5625 8.875 C-27.41201172 8.36324219 -26.26152344 7.85148438 -25.07617188 7.32421875 C-19.72742881 4.96652917 -14.35436818 2.67943037 -8.90234375 0.5703125 C-7.62411743 0.0755542 -7.62411743 0.0755542 -6.32006836 -0.42919922 C-3.66353889 -1.08277871 -2.52374447 -1.01529816 0 0 Z " fill="#66904E" transform="translate(98,147)"/>
<path d="M0 0 C4.67985069 4.82166435 5.42251384 9.40057228 5.42822266 15.86694336 C5.40187744 17.2940564 5.40187744 17.2940564 5.375 18.75 C5.36025635 20.2206189 5.36025635 20.2206189 5.34521484 21.72094727 C5.17719861 31.19816224 3.93808286 40.08745387 1.0625 49.125 C2.5475 49.62 2.5475 49.62 4.0625 50.125 C4.55015108 57.31785339 4.55015108 57.31785339 2.25 61.125 C0.0625 63.125 0.0625 63.125 -2.9375 63.125 C-2.958125 64.218125 -2.97875 65.31125 -3 66.4375 C-3.79135187 73.14001057 -8.24127654 79.42877654 -12.9375 84.125 C-12.85159453 86.50073061 -12.74348412 88.87567121 -12.625 91.25 C-12.67088702 100.17145679 -17.03693419 104.73690541 -23.12573242 110.80712891 C-26.91397929 114.42766328 -30.87341857 117.81937855 -34.9375 121.125 C-39.59716021 116.57426691 -44.07405432 111.94516435 -48.296875 106.984375 C-49.91917728 105.03333266 -49.91917728 105.03333266 -52.12109375 103.40625 C-54.75033981 100.10414312 -54.31786797 96.9035732 -54.25 92.875 C-54.30981762 85.69592861 -54.30981762 85.69592861 -58.1875 79.875 C-59.13302734 79.02808594 -59.13302734 79.02808594 -60.09765625 78.1640625 C-63.24440416 74.67658393 -64.29125266 70.2961462 -65.69921875 65.8828125 C-66.67427243 63.02028278 -66.67427243 63.02028278 -69.00390625 61.8515625 C-69.64199219 61.61179687 -70.28007813 61.37203125 -70.9375 61.125 C-73.23827936 57.9039089 -73.26747475 55.00220334 -72.9375 51.125 C-72.2775 50.135 -71.6175 49.145 -70.9375 48.125 C-71.14866706 45.68255511 -71.14866706 45.68255511 -71.8125 42.875 C-72.92736151 36.3618617 -73.23756615 29.9797331 -73.3125 23.375 C-73.33812012 22.40530273 -73.36374023 21.43560547 -73.39013672 20.43652344 C-73.4121266 12.86424418 -71.8462747 6.98536921 -67.25390625 0.890625 C-48.89167602 -14.97695925 -19.62066845 -12.52383093 0 0 Z " fill="#A66A3E" transform="translate(161.9375,37.875)"/>
<path d="M0 0 C4.67978249 4.82159408 5.42185883 9.40010384 5.42871094 15.86621094 C5.41098633 16.81786133 5.39326172 17.76951172 5.375 18.75 C5.35808105 20.22388184 5.35808105 20.22388184 5.34082031 21.72753906 C5.13374447 32.70982452 3.63935516 42.08257995 -0.9375 52.125 C-1.2675 52.125 -1.5975 52.125 -1.9375 52.125 C-4.36132751 41.27113091 -6.14289141 31.26177891 -5.9375 20.125 C-6.96230469 20.40214844 -7.98710937 20.67929687 -9.04296875 20.96484375 C-10.40362331 21.33081291 -11.76430166 21.69669365 -13.125 22.0625 C-14.13530273 22.33610352 -14.13530273 22.33610352 -15.16601562 22.61523438 C-30.25147794 26.66255353 -47.62212954 26.28268523 -61.9375 19.125 C-61.91429688 19.70040527 -61.89109375 20.27581055 -61.8671875 20.86865234 C-61.70876568 28.01602238 -62.67484229 34.72859934 -63.9375 41.75 C-64.12828125 42.84957031 -64.3190625 43.94914062 -64.515625 45.08203125 C-64.98212786 47.76442269 -65.45620394 50.44523057 -65.9375 53.125 C-68.40618973 50.77786504 -69.53450054 49.0828939 -70.5625 45.8125 C-70.92214844 44.70455078 -70.92214844 44.70455078 -71.2890625 43.57421875 C-73.02932424 37.00106144 -73.18502208 30.57453517 -73.25 23.8125 C-73.27900391 22.81798828 -73.30800781 21.82347656 -73.33789062 20.79882812 C-73.40406758 13.04594307 -71.95931192 7.13538612 -67.25390625 0.890625 C-48.89167602 -14.97695925 -19.62066845 -12.52383093 0 0 Z " fill="#2C2626" transform="translate(161.9375,37.875)"/>
<path d="M0 0 C0.89203125 0.00902344 1.7840625 0.01804687 2.703125 0.02734375 C3.37859375 0.03894531 4.0540625 0.05054687 4.75 0.0625 C4.77918634 4.41665244 4.79686145 8.77077948 4.8125 13.125 C4.82087891 14.35412109 4.82925781 15.58324219 4.83789062 16.84960938 C4.85363389 22.69036137 4.83469508 28.31447017 3.75 34.0625 C-5.94336545 34.83181472 -14.14348582 32.02053245 -23.25 29.0625 C-23.22679688 29.63790527 -23.20359375 30.21331055 -23.1796875 30.80615234 C-23.02126568 37.95352238 -23.98734229 44.66609934 -25.25 51.6875 C-25.44078125 52.78707031 -25.6315625 53.88664062 -25.828125 55.01953125 C-26.29462786 57.70192269 -26.76870394 60.38273057 -27.25 63.0625 C-29.71868973 60.71536504 -30.84700054 59.0203939 -31.875 55.75 C-32.23464844 54.64205078 -32.23464844 54.64205078 -32.6015625 53.51171875 C-34.34182424 46.93856144 -34.49752208 40.51203517 -34.5625 33.75 C-34.59150391 32.75548828 -34.62050781 31.76097656 -34.65039062 30.73632812 C-34.71656758 22.98344307 -33.27181192 17.07288612 -28.56640625 10.828125 C-20.81638244 4.13099975 -10.29937321 -0.13551807 0 0 Z " fill="#1D1C1C" transform="translate(123.25,27.9375)"/>
<path d="M0 0 C4.84721288 4.16095873 8.45165736 8.75796042 9.28125 15.17578125 C9.75105992 22.72797569 7.65652228 28.68176698 2.74804688 34.47851562 C0.85638295 36.57238273 -1.07705878 38.62153776 -3.03564453 40.65283203 C-6.72558551 44.52480504 -9.00774833 48.06680538 -11 53 C-15.95 53 -20.9 53 -26 53 C-26 43.92817589 -21.44364149 38.65105815 -15.8125 31.8125 C-11.68327587 26.74984973 -9 23.07222624 -9 16.3125 C-10.22980721 12.2387636 -11.27447547 11.02474159 -15 9 C-20.31141527 8.19827694 -23.67005826 9.49789251 -28.203125 12.02734375 C-30 13 -30 13 -33 14 C-34.98 11.03 -36.96 8.06 -39 5 C-26.64117623 -3.82773126 -14.19354173 -7.79125609 0 0 Z " fill="#C13A38" transform="translate(214,55)"/>
<path d="M0 0 C0.33 0 0.66 0 1 0 C2.16160363 5.98871204 2.97547595 11.84008001 -0.37548828 17.20019531 C-6.07215294 24.29128165 -12.96384248 30.27901211 -20 36 C-24.65966021 31.44926691 -29.13655432 26.82016435 -33.359375 21.859375 C-34.98618706 19.90808119 -34.98618706 19.90808119 -37.1875 18.25 C-39.74976888 15.06925242 -39.44118427 12.13986453 -39.25 8.25 C-39.23195313 7.55261719 -39.21390625 6.85523438 -39.1953125 6.13671875 C-39.14838554 4.42388461 -39.07664605 2.71176176 -39 1 C-36.99307401 1.99898325 -34.99097016 3.00467365 -33 4.03515625 C-32.34 4.37417969 -31.68 4.71320313 -31 5.0625 C-30.01 5.57490234 -30.01 5.57490234 -29 6.09765625 C-23.09240166 8.76299847 -16.33143252 9.21698311 -10.23046875 6.98828125 C-6.25352979 5.04930515 -3.06904301 3.20043935 0 0 Z " fill="#A86B40" transform="translate(147,123)"/>
<path d="M0 0 C5.55635771 6.3501231 5.43145475 12.16828516 5.078125 20.1953125 C5.00664249 23.67651073 5.36597527 26.59438146 6 30 C7.26891656 42.19890235 4.49718585 50.32816726 -1 61 C-6.86370664 55.13629336 -9.41190889 44.71260022 -9.5 36.6875 C-9.27473966 31.70361494 -8.56798795 26.96530939 -7.44921875 22.109375 C-6.61674032 18.20034585 -6.71633147 14.93205376 -7.875 11.125 C-8.04894663 6.77633418 -6.16506339 4.86494976 -3.54296875 1.5390625 C-2 0 -2 0 0 0 Z " fill="#A83432" transform="translate(129,160)"/>
<path d="M0 0 C3.44996778 0.79999253 5.06552996 2.75592995 7.15625 5.5 C8.91204061 9.01158123 8.1077006 12.78669974 7.15625 16.5 C4.48407273 19.64373796 2.63084631 20.37287599 -1.34375 21.4375 C-5.3117823 21.50835772 -6.81442529 21.0100119 -9.84375 18.5 C-12.38525019 14.29399617 -12.64578372 10.29513776 -11.84375 5.5 C-8.72846734 0.57584354 -5.5477266 -0.29587875 0 0 Z " fill="#C13A38" transform="translate(197.84375,113.5)"/>
<path d="M0 0 C0.33 0 0.66 0 1 0 C1.16380851 2.35702252 1.2815775 4.70246983 1.375 7.0625 C1.47941406 9.02896484 1.47941406 9.02896484 1.5859375 11.03515625 C1.36116935 15.93776041 -1.60649956 18.72956337 -5 22 C-14.49584222 18.24868235 -23.86189036 14.42041676 -32.6875 9.25 C-33.32824463 8.88592041 -33.96898926 8.52184082 -34.62915039 8.14672852 C-36.38671875 7.078125 -36.38671875 7.078125 -39 5 C-39 3.68 -39 2.36 -39 1 C-36.99307401 1.99898325 -34.99097016 3.00467365 -33 4.03515625 C-32.34 4.37417969 -31.68 4.71320313 -31 5.0625 C-30.01 5.57490234 -30.01 5.57490234 -29 6.09765625 C-23.09240166 8.76299847 -16.33143252 9.21698311 -10.23046875 6.98828125 C-6.25352979 5.04930515 -3.06904301 3.20043935 0 0 Z " fill="#B5726C" transform="translate(147,123)"/>
<path d="M0 0 C0.66 0.33 1.32 0.66 2 1 C1.67 1.33 1.34 1.66 1 2 C0.91189643 3.5698067 0.89307908 5.14357049 0.90234375 6.71582031 C0.90564697 7.72066467 0.9089502 8.72550903 0.91235352 9.76080322 C0.92065186 10.85551941 0.9289502 11.9502356 0.9375 13.078125 C0.94128662 14.19684998 0.94507324 15.31557495 0.94897461 16.46820068 C0.96538289 21.27490621 0.99341353 26.08152829 1.02050781 30.88818359 C1.03859002 34.3889934 1.05069089 37.88978931 1.0625 41.390625 C1.07079834 42.47724426 1.07909668 43.56386353 1.08764648 44.68341064 C1.09260132 46.20959015 1.09260132 46.20959015 1.09765625 47.76660156 C1.10289307 48.65849182 1.10812988 49.55038208 1.11352539 50.46929932 C0.99682303 53.07082088 0.57644565 55.46390985 0 58 C-6.7999383 49.38804376 -7.86436988 40.76757905 -7 30 C-6.57766766 27.33715883 -6.05433488 24.73583649 -5.44921875 22.109375 C-4.61674032 18.20034585 -4.71633147 14.93205376 -5.875 11.125 C-6.06977089 6.25572785 -3.09953779 3.539762 0 0 Z " fill="#C03937" transform="translate(127,160)"/>
<path d="M0 0 C1.11707017 3.35121052 0.96644724 3.76121412 -0.30761719 6.85717773 C-0.61834167 7.6248497 -0.92906616 8.39252167 -1.24920654 9.18345642 C-1.76780243 10.4210244 -1.76780243 10.4210244 -2.296875 11.68359375 C-2.64631165 12.53550797 -2.99574829 13.38742218 -3.35577393 14.26515198 C-4.09786321 16.06837857 -4.8446382 17.86968282 -5.59570312 19.66918945 C-6.74215028 22.41867429 -7.87218861 25.1744671 -9 27.93164062 C-9.72298966 29.68269193 -10.44691757 31.43335621 -11.171875 33.18359375 C-11.50950867 34.00661484 -11.84714233 34.82963593 -12.19500732 35.67759705 C-13.78622747 39.47105575 -15.26800799 42.86011375 -18 46 C-21.54150198 19.31225296 -21.54150198 19.31225296 -18 14 C-15 17.75 -15 17.75 -15 20 C-10.57370603 16.11022651 -7.71947015 11.63062892 -4.6484375 6.62109375 C-3.1979022 4.31467388 -1.66982754 2.15053546 0 0 Z " fill="#DAD6D5" transform="translate(153,155)"/>
<path d="M0 0 C0.66 0 1.32 0 2 0 C3.09741211 1.40527344 3.09741211 1.40527344 4.27734375 3.359375 C4.92413086 4.41511719 4.92413086 4.41511719 5.58398438 5.4921875 C6.03064453 6.23726562 6.47730469 6.98234375 6.9375 7.75 C7.81998767 9.2041136 8.70405839 10.65726785 9.58984375 12.109375 C10.21221924 13.13321289 10.21221924 13.13321289 10.84716797 14.17773438 C12.05010766 16.1367251 12.05010766 16.1367251 13.81640625 18.390625 C15 20 15 20 15 22 C15.61875 21.38125 16.2375 20.7625 16.875 20.125 C18.25 18.75 19.625 17.375 21 16 C23.84601995 21.02238815 22.7465757 25.54109325 22 31 C21.82494776 32.40211091 21.6519098 33.80447421 21.48046875 35.20703125 C20.99863316 39.13955766 20.50221746 43.07002645 20 47 C17.0272938 45.5136469 16.82050426 43.44555727 15.64453125 40.375 C14.9625769 38.61313354 14.9625769 38.61313354 14.2668457 36.81567383 C13.78201138 35.54380253 13.29723044 34.27191089 12.8125 33 C11.8257492 30.44030859 10.83450043 27.8823642 9.84375 25.32421875 C9.59986038 24.69239182 9.35597076 24.06056488 9.10469055 23.40959167 C6.80807442 17.47054669 4.39593667 11.58363136 1.9309082 5.71289062 C0 1.09453707 0 1.09453707 0 0 Z " fill="#DBD7D6" transform="translate(100,153)"/>
<path d="M0 0 C0.99 0 1.98 0 3 0 C3 21.45 3 42.9 3 65 C2.01 65 1.02 65 0 65 C0 43.55 0 22.1 0 0 Z " fill="#264E3D" transform="translate(124,222)"/>
</svg>
