<svg width="546" height="488" viewBox="0 0 546 488" fill="none" xmlns="http://www.w3.org/2000/svg">
<path d="M153.637 60.5404L193 79.0235C185.362 86.9448 164.8 107.672 143.65 127.211C122.5 146.751 60.4207 135.353 32.025 127.211C5.78329 101.907 -28.9576 43.1136 42.0125 10.3722C112.982 -22.3692 146 30.1754 153.637 60.5404Z" fill="white"/>
<circle cx="400" cy="235" r="6" fill="#A9C296"/>
<circle cx="480" cy="235" r="6" fill="#A9C296"/>
<circle cx="420" cy="235" r="6" fill="#A9C296"/>
<circle cx="500" cy="235" r="6" fill="#A9C296"/>
<circle cx="440" cy="235" r="6" fill="#A9C296"/>
<circle cx="520" cy="235" r="6" fill="#A9C296"/>
<circle cx="460" cy="235" r="6" fill="#A9C296"/>
<circle cx="540" cy="235" r="6" fill="#A9C296"/>
<circle cx="400" cy="311" r="6" fill="#A9C296"/>
<circle cx="480" cy="311" r="6" fill="#A9C296"/>
<circle cx="420" cy="311" r="6" fill="#A9C296"/>
<circle cx="500" cy="311" r="6" fill="#A9C296"/>
<circle cx="440" cy="311" r="6" fill="#A9C296"/>
<circle cx="520" cy="311" r="6" fill="#A9C296"/>
<circle cx="460" cy="311" r="6" fill="#A9C296"/>
<circle cx="540" cy="311" r="6" fill="#A9C296"/>
<circle cx="400" cy="273" r="6" fill="#A9C296"/>
<circle cx="480" cy="273" r="6" fill="#A9C296"/>
<circle cx="420" cy="273" r="6" fill="#A9C296"/>
<circle cx="500" cy="273" r="6" fill="#A9C296"/>
<circle cx="440" cy="273" r="6" fill="#A9C296"/>
<circle cx="520" cy="273" r="6" fill="#A9C296"/>
<circle cx="460" cy="273" r="6" fill="#A9C296"/>
<circle cx="540" cy="273" r="6" fill="#A9C296"/>
<circle cx="400" cy="349" r="6" fill="#A9C296"/>
<circle cx="480" cy="349" r="6" fill="#A9C296"/>
<circle cx="420" cy="349" r="6" fill="#A9C296"/>
<circle cx="500" cy="349" r="6" fill="#A9C296"/>
<circle cx="440" cy="349" r="6" fill="#A9C296"/>
<circle cx="520" cy="349" r="6" fill="#A9C296"/>
<circle cx="460" cy="349" r="6" fill="#A9C296"/>
<circle cx="540" cy="349" r="6" fill="#A9C296"/>
<circle cx="400" cy="254" r="6" fill="#A9C296"/>
<circle cx="480" cy="254" r="6" fill="#A9C296"/>
<circle cx="420" cy="254" r="6" fill="#A9C296"/>
<circle cx="500" cy="254" r="6" fill="#A9C296"/>
<circle cx="440" cy="254" r="6" fill="#A9C296"/>
<circle cx="520" cy="254" r="6" fill="#A9C296"/>
<circle cx="460" cy="254" r="6" fill="#A9C296"/>
<circle cx="540" cy="254" r="6" fill="#A9C296"/>
<circle cx="400" cy="330" r="6" fill="#A9C296"/>
<circle cx="480" cy="330" r="6" fill="#A9C296"/>
<circle cx="420" cy="330" r="6" fill="#A9C296"/>
<circle cx="500" cy="330" r="6" fill="#A9C296"/>
<circle cx="440" cy="330" r="6" fill="#A9C296"/>
<circle cx="520" cy="330" r="6" fill="#A9C296"/>
<circle cx="460" cy="330" r="6" fill="#A9C296"/>
<circle cx="540" cy="330" r="6" fill="#A9C296"/>
<circle cx="400" cy="292" r="6" fill="#A9C296"/>
<circle cx="480" cy="292" r="6" fill="#A9C296"/>
<circle cx="420" cy="292" r="6" fill="#A9C296"/>
<circle cx="500" cy="292" r="6" fill="#A9C296"/>
<circle cx="440" cy="292" r="6" fill="#A9C296"/>
<circle cx="520" cy="292" r="6" fill="#A9C296"/>
<circle cx="460" cy="292" r="6" fill="#A9C296"/>
<circle cx="540" cy="292" r="6" fill="#A9C296"/>
<circle cx="400" cy="368" r="6" fill="#A9C296"/>
<circle cx="480" cy="368" r="6" fill="#A9C296"/>
<circle cx="420" cy="368" r="6" fill="#A9C296"/>
<circle cx="500" cy="368" r="6" fill="#A9C296"/>
<circle cx="440" cy="368" r="6" fill="#A9C296"/>
<circle cx="520" cy="368" r="6" fill="#A9C296"/>
<circle cx="460" cy="368" r="6" fill="#A9C296"/>
<circle cx="540" cy="368" r="6" fill="#A9C296"/>
<path d="M89.745 81.692L74.0537 84.4826C73.4382 80.7832 73.1599 77.5528 73.219 74.7915C73.3118 71.9818 73.8417 69.3695 74.8088 66.9546C75.8169 64.5323 77.2799 62.0503 79.1979 59.5085C80.8195 57.4427 82.2096 55.5026 83.3682 53.6884C84.5268 51.8742 85.3704 50.0737 85.899 48.2868C86.4203 46.459 86.4986 44.5195 86.1338 42.4683C85.7107 40.089 84.9913 38.1855 83.9756 36.758C82.9937 35.2821 81.7119 34.2616 80.1302 33.6965C78.5895 33.1241 76.7525 33.0276 74.6193 33.407C72.8554 33.7207 71.2837 34.4022 69.9045 35.4516C68.518 36.46 67.4711 37.8311 66.7637 39.5651C66.0975 41.2918 65.97 43.4305 66.3813 45.9812L48.5363 49.1548C47.6598 43.5128 48.1277 38.6474 49.9397 34.5586C51.7855 30.4215 54.6437 27.0988 58.5143 24.5907C62.3777 22.0415 66.9143 20.3037 72.1242 19.3771C77.8674 18.3557 82.958 18.4238 87.3959 19.5813C91.8265 20.6977 95.4499 22.8676 98.2662 26.091C101.075 29.2733 102.936 33.4284 103.848 38.5563C104.482 42.1253 104.35 45.4286 103.452 48.4662C102.546 51.4628 101.176 54.3514 99.3429 57.132C97.5098 59.9126 95.4657 62.8153 93.2105 65.8403C91.2443 68.3483 90.0347 70.8276 89.5818 73.2781C89.1699 75.7213 89.2243 78.5259 89.745 81.692ZM75.5893 103.825C75.1223 101.2 75.6382 98.8648 77.1368 96.8208C78.6281 94.7358 80.8916 93.4234 83.9273 92.8835C86.9219 92.3509 89.4786 92.8061 91.5974 94.2491C93.7498 95.6438 95.0595 97.6538 95.5264 100.279C95.9788 102.823 95.4388 105.141 93.9064 107.233C92.4151 109.318 90.1722 110.627 87.1775 111.159C84.1418 111.699 81.5646 111.248 79.4458 109.805C77.3271 108.362 76.0416 106.368 75.5893 103.825Z" fill="#AA0000"/>
<path d="M471.843 485.233C478.02 484.84 484.235 484.407 490.333 483.384C491.002 483.266 491.71 483.109 492.143 482.598C493.323 481.182 491.238 479.372 489.507 478.821C480.065 475.831 469.994 476.146 460.081 476.382C424.006 477.326 387.932 477.523 351.897 477.011C347.215 476.933 322.195 475.477 321.408 481.889C320.74 487.476 348.317 486.453 352.605 486.61C378.058 487.633 403.51 487.83 428.963 487.161C443.283 486.768 457.563 486.138 471.843 485.233Z" fill="url(#paint0_linear_937_472)"/>
<path d="M471.843 485.233C478.02 484.84 484.235 484.407 490.333 483.384C491.002 483.266 491.71 483.109 492.143 482.598C493.323 481.182 491.238 479.372 489.507 478.821C480.065 475.831 469.994 476.146 460.081 476.382C424.006 477.326 387.932 477.523 351.897 477.011C347.215 476.933 322.195 475.477 321.408 481.889C320.74 487.476 348.317 486.453 352.605 486.61C378.058 487.633 403.51 487.83 428.963 487.161C443.283 486.768 457.563 486.138 471.843 485.233Z" fill="url(#paint1_linear_937_472)"/>
<path d="M307.284 477.169C308.268 476.933 309.448 476.539 309.645 475.556C309.959 474.218 308.268 473.353 306.93 473.077C299.81 471.582 292.493 472.015 285.254 472.054C269.164 472.133 253.153 470.284 237.063 469.694C224.238 469.222 211.217 469.616 198.667 472.448C194.733 473.353 185.685 474.336 184.269 479.057C183.01 483.266 186.393 484.958 189.737 484.84C194.458 484.722 198.903 483.345 203.703 483.463C210.391 483.62 217.039 483.817 223.727 483.896C237.063 484.053 250.399 483.935 263.735 483.109C278.33 482.125 292.925 480.355 307.284 477.169Z" fill="url(#paint2_linear_937_472)"/>
<path d="M307.284 477.169C308.268 476.933 309.448 476.539 309.645 475.556C309.959 474.218 308.268 473.353 306.93 473.077C299.81 471.582 292.493 472.015 285.254 472.054C269.164 472.133 253.153 470.284 237.063 469.694C224.238 469.222 211.217 469.616 198.667 472.448C194.733 473.353 185.685 474.336 184.269 479.057C183.01 483.266 186.393 484.958 189.737 484.84C194.458 484.722 198.903 483.345 203.703 483.463C210.391 483.62 217.039 483.817 223.727 483.896C237.063 484.053 250.399 483.935 263.735 483.109C278.33 482.125 292.925 480.355 307.284 477.169Z" fill="url(#paint3_linear_937_472)"/>
<path d="M416.962 261.115C416.923 260.289 416.923 259.424 416.608 258.676C416.176 257.614 415.31 256.827 414.327 256.198C410.747 253.877 406.223 253.641 401.974 253.483C385.766 252.933 369.244 252.775 353.39 256.709C348.512 257.929 340.211 259.188 337.89 264.42C335.057 270.832 336.041 280.667 335.766 287.552C335.372 297.583 335.411 307.615 335.883 317.607C336.198 324.019 336.67 330.392 337.182 336.805C339.188 363.202 340.526 388.93 344.735 415.287C346.072 423.745 346.662 432.282 346.859 440.858C346.938 444.084 348.59 465.052 346.033 466.508C345.876 466.586 345.718 466.665 345.6 466.783C344.814 467.57 344.223 468.435 343.909 469.379C343.633 470.245 343.555 471.189 342.925 471.936C342.217 472.802 340.919 473.313 339.621 473.746C336.316 474.887 332.736 475.634 329.078 476.028C328.252 476.106 327.425 476.185 326.717 476.421C324.632 477.129 324.16 479.018 323.885 480.591C323.806 481.063 323.806 481.614 324.357 481.889C324.672 482.047 325.065 482.047 325.419 482.007C335.884 481.889 340.329 481.811 350.793 481.693C353.35 481.653 355.986 481.535 358.425 481.103C358.74 481.024 359.094 480.945 359.33 480.788C359.605 480.591 359.723 480.355 359.802 480.08C361.14 476.461 361.257 472.566 360.903 468.829C360.825 468.042 360.707 467.373 360.038 466.901C365.624 421.306 369.165 375.594 374.436 329.96C374.751 329.881 375.105 329.763 375.42 329.684C380.141 328.425 384.861 327.206 389.543 325.947C392.297 325.239 395.168 324.452 397.332 322.564C399.024 321.069 400.125 319.063 401.227 317.096C406.655 307.064 412.124 296.875 414.799 285.821C416.766 277.795 417.198 269.416 416.962 261.115Z" fill="#DDDADA"/>
<path d="M415.073 467.373C414.522 441.842 413.775 416.271 412.791 390.779C412.162 374.138 409.605 358.717 411.06 342.155C412.752 322.957 413.264 303.642 412.634 284.404C412.516 280.864 412.359 277.284 411.06 274.019C409.448 269.927 405.435 267.252 403.035 263.948C401.58 261.981 400.832 259.974 398.905 258.243C390.722 251.044 377.386 252.815 367.708 255.018C367.04 255.175 366.41 255.293 365.78 255.45C365.584 255.608 365.348 255.804 365.151 255.962C364.915 257.299 364.718 258.676 364.6 260.014C364.561 260.407 364.561 260.958 364.6 261.469C364.64 262.65 364.758 263.554 364.6 261.469C364.561 261.037 364.522 260.525 364.482 259.817C364.561 260.683 364.522 261.548 364.561 262.374C364.915 270.045 366.528 277.559 367.275 285.191C367.905 291.682 367.787 298.331 367.551 304.94C368.849 304.625 370.383 304.35 371.288 304.507C373.058 304.822 400.95 450.89 401.58 469.025C401.462 469.143 401.304 469.222 401.226 469.34C400.596 470.205 400.203 471.15 400.085 472.054C399.967 472.92 400.045 473.785 399.573 474.612C399.062 475.516 397.921 476.264 396.78 476.854C393.869 478.467 390.643 479.765 387.26 480.709C386.513 480.906 385.726 481.103 385.096 481.496C383.287 482.519 383.09 484.328 383.129 485.863C383.129 486.295 383.208 486.846 383.798 487.004C384.113 487.082 384.467 487.004 384.821 486.964C394.617 485.155 398.786 484.368 408.582 482.519C410.982 482.086 413.421 481.535 415.663 480.709C415.978 480.591 416.293 480.473 416.489 480.276C416.725 480.08 416.765 479.804 416.804 479.529C417.473 475.91 416.961 472.212 416.017 468.789C415.781 468.239 415.545 467.688 415.073 467.373Z" fill="#DDDADA"/>
<path d="M283.482 180.823C282.538 180.744 281.83 180.036 281.279 179.368C269.752 165.638 268.14 147.699 267.786 130.822C267.628 122.718 267.667 114.614 268.887 106.589C274.591 107.612 278.722 112.057 280.492 116.778C282.262 121.499 282.144 126.574 282.262 131.53C282.617 146.755 285.37 161.861 285.96 177.086C286.039 178.738 285.37 180.98 283.482 180.823Z" fill="#ECB38E"/>
<path d="M313.774 132.16C313.381 132.042 312.988 131.924 312.555 131.845C307.677 120.319 306.261 107.651 304.923 95.1806C304.805 93.9611 304.648 92.7416 304.844 91.5221C304.962 90.7353 305.238 89.9092 305.08 89.1224C304.884 88.3356 303.979 87.6274 303.31 88.0601C304.451 86.4079 304.608 84.087 303.664 82.3167C302.405 79.8777 299.298 78.1465 297.881 81.0969C296.622 83.7327 296.583 86.8014 296.583 89.6732C296.662 105.409 297.094 121.106 297.92 136.841C298.038 139.477 298.314 142.388 300.202 144.198C301.579 145.535 303.546 146.047 305.434 146.48C321.092 150.099 336.985 152.774 352.996 154.465C356.851 154.859 361.651 154.741 363.342 151.279C364.68 148.643 363.264 145.299 360.903 143.49C358.582 141.68 355.593 141.011 352.681 140.421C340.722 137.943 328.763 135.464 316.764 132.986C315.741 132.789 314.758 132.435 313.774 132.16Z" fill="#B26634"/>
<path d="M332.854 128.068C331.949 137.903 331.084 147.738 330.179 157.613C344.223 157.809 358.307 154.78 371.053 148.84C373.216 138.415 375.341 127.99 377.504 117.565C362.201 118.47 347.016 122.05 332.854 128.068Z" fill="#599144"/>
<path d="M219.321 194.395C229.156 195.221 238.361 188.455 248.235 188.888C253.192 189.124 259.447 190.697 262.201 186.567C263.421 184.718 263.381 182.357 263.342 180.154C262.516 155.764 261.69 131.412 260.824 107.022C245.678 111.231 229.274 110.72 214.403 105.606C214.482 133.143 214.561 160.681 214.679 188.219C214.679 190.068 214.797 192.192 216.252 193.372C217.078 194.12 218.219 194.317 219.321 194.395Z" fill="#EFF3F0"/>
<path d="M262.947 474.415C259.013 468.553 255.63 462.18 253.899 455.296C253.19 452.424 252.758 449.513 252.679 446.562C252.64 445.697 252.679 444.753 253.23 444.123C253.741 443.573 254.528 443.415 255.276 443.297C259.918 442.589 265.268 442.078 268.69 445.382C270.028 446.681 270.854 448.411 271.562 450.182C275.26 459.151 276.755 469.065 275.811 478.742C274.316 481.024 270.972 481.339 268.572 480.158C266.133 478.978 264.442 476.657 262.947 474.415Z" fill="#947348"/>
<path d="M210.821 471.071C214.754 465.209 218.138 458.836 219.869 451.952C220.577 449.08 221.01 446.169 221.088 443.218C221.128 442.353 221.088 441.409 220.537 440.779C220.026 440.229 219.239 440.071 218.492 439.953C213.85 439.245 208.5 438.734 205.077 442.038C203.739 443.336 202.913 445.067 202.205 446.838C198.507 455.807 197.012 465.721 197.957 475.398C199.451 477.68 202.795 477.995 205.195 476.814C207.595 475.634 209.286 473.313 210.821 471.071Z" fill="#947348"/>
<path d="M199.767 214.458C204.645 178.541 211.018 142.073 207.006 106.943C210.271 104.583 214.402 103.403 218.414 103.678C219.083 128.737 219.752 153.836 220.46 178.895C227.698 178.895 234.937 178.935 242.175 178.935C242.254 179.21 242.333 179.485 242.451 179.761C247.053 179.761 251.656 179.721 256.259 179.721C256.928 154.662 257.596 129.563 258.305 104.504C262.317 104.268 266.448 105.448 269.713 107.769C265.622 143.529 275.063 179.25 278.682 215.049C281.672 244.553 285.056 257.378 284.072 287.001C282.459 335.428 276.479 400.771 274.867 449.198C274.827 450.418 209.366 448.451 201.892 448.372C203.19 448.372 196.069 362.179 195.676 355.766C193.67 322.249 191.034 287.198 192.961 253.68C193.709 240.305 197.918 228.149 199.767 214.458Z" fill="#D1202A"/>
<path d="M216.568 66.0694C216.686 63.1976 216.961 60.365 217.669 57.5719C220.069 47.8943 230.297 33.8108 241.942 37.9808C244.656 38.9643 246.938 40.7739 249.141 42.6622C251.383 44.5899 253.547 46.6354 255.396 48.9171C258.858 53.2838 261.297 58.9094 261.69 64.4957C262.044 69.6885 260.549 75.196 259.094 80.1528C257.166 86.7225 254.294 93.607 248.433 97.1475C240.644 101.868 229.825 98.6424 223.885 91.7186C217.984 84.7949 216.253 75.1568 216.568 66.0694Z" fill="#ECB38E"/>
<path d="M226.832 115.322C227.028 114.693 227.579 114.26 228.13 113.867C228.13 113.867 228.13 113.867 228.169 113.867C216.131 102.616 212.237 83.6933 210.663 72.7569C209.798 66.6199 209.876 60.2863 211.686 54.346C213.535 48.445 217.233 42.9768 222.544 39.7903C225.022 38.2954 227.815 37.3119 230.569 36.3677C232.693 35.6596 235.368 35.109 237.139 36.2498C239.499 34.4009 242.961 34.2827 245.793 35.3842C248.823 36.5644 251.222 38.8857 253.465 41.2461C256.966 44.9833 260.192 48.9959 262.749 53.4806C266.683 60.4044 268.807 68.2722 269.358 76.2188C269.555 79.0513 269.555 81.8838 268.886 84.6376C267.942 88.5715 265.699 92.0334 263.496 95.4166C263.103 96.046 262.67 96.6756 262.001 97.0297C261.372 97.3837 260.428 97.3443 259.995 96.7542C259.602 96.2428 259.759 95.4952 259.877 94.8658C262.749 81.1756 258.225 66.9348 251.498 54.7002C248.626 49.468 245.164 44.2752 240.089 41.2067C239.617 40.9313 239.066 40.6557 238.555 40.7738C238.201 42.1506 237.414 43.6063 236.627 44.7865C232.379 51.1595 228.13 57.4933 223.881 63.8664C221.442 67.5249 218.885 71.4589 218.728 75.8649C218.531 80.7824 221.363 85.2278 223.488 89.6732C225.376 93.6071 233.087 105.173 230.884 112.49C231.474 112.254 232.103 112.018 232.693 111.861C237.139 117.525 239.106 125.079 238.004 132.238C237.571 129.288 234.385 127.754 232.064 125.865C229.192 123.584 227.304 120.122 226.871 116.463C226.753 116.031 226.714 115.677 226.832 115.322Z" fill="#7B3C04"/>
<path d="M317.393 136.566C315.937 134.756 313.184 134.953 310.863 135.268C301.5 136.605 292.097 137.51 282.695 137.943C277.856 138.179 262.239 135.189 262.908 142.664C263.734 152.263 265.583 161.783 268.376 171.028C269.32 172.365 271.248 172.365 272.86 172.247C288.439 171.067 304.175 170.005 319.832 170.398C321.366 170.437 323.176 170.162 323.884 168.825C324.356 167.959 324.199 166.897 324.041 165.914C322.704 157.298 321.366 148.722 320.029 140.107C318.888 138.926 318.416 137.864 317.393 136.566Z" fill="#666767"/>
<path d="M301.58 147.384C302.17 148.722 301.659 149.706 301.186 150.61C295.994 160.17 290.84 169.69 285.647 179.249C283.444 183.301 280.651 187.668 274.318 187.196C272.705 187.078 270.738 186.527 269.164 185.19C269.321 178.03 273.059 172.995 277.976 169.021C279.156 168.038 280.415 167.133 281.438 166.031C282.343 165.048 283.09 163.907 283.798 162.766C285.687 159.737 287.418 156.629 289.031 153.403C289.306 152.813 289.621 152.223 289.621 151.515C289.621 150.532 289.149 149.391 288.952 148.329C288.755 147.266 288.873 146.243 289.857 146.007C289.975 145.968 290.132 145.968 290.29 146.047C290.644 146.243 290.761 146.637 290.801 146.952C290.84 147.266 291.234 147.739 291.509 147.699C292.217 147.148 291.784 145.85 291.824 144.827C292.099 141.483 299.652 142.9 301.58 147.384Z" fill="#ECB38E"/>
<path d="M208.029 105.409C202.994 112.412 201.617 121.381 200.633 129.957C198.942 144.552 197.958 159.265 197.604 173.939C197.447 181.689 197.486 189.596 199.768 196.992C200.515 199.47 202.286 202.302 204.843 201.909C207.4 201.516 208.226 198.251 208.423 195.654C210.075 175.866 211.727 156.118 213.34 136.33C214.245 125.63 214.796 113.749 208.029 105.409Z" fill="#ECB38E"/>
<path d="M399.653 108.714C412.045 111.861 419.126 132.317 419.637 142.978C420.778 167.723 420.778 192.507 422.155 217.212C422.942 231.807 423.964 246.402 425.105 260.958C426.285 276.183 427.23 279.172 412.635 280.51C386.631 282.909 360.313 282.91 334.309 280.549C331.359 280.274 331.398 234.286 331.28 230.391C330.651 206.119 333.759 181.492 341.391 158.203C345.797 144.749 353.035 131.845 363.893 122.325C372.075 115.126 383.13 110.445 393.83 108.478C395.876 108.163 397.804 108.241 399.653 108.714Z" fill="#599144"/>
<path d="M381.007 99.2327C382.895 95.7708 383.879 91.404 383.603 86.3291C383.092 76.927 381.44 67.3674 376.601 59.3028C371.015 50.0187 358.662 41.5999 347.332 45.4946C334.075 50.058 337.065 67.4855 339.386 79.0514C341.235 88.2175 345.68 97.2657 353.272 102.695C364.642 110.877 376.011 108.281 381.007 99.2327Z" fill="#B26634"/>
<path d="M374.16 73.9766C376.205 80.0349 379.392 85.7393 383.523 90.6568C384.349 91.837 385.923 89.9879 386.119 88.5717C387.732 77.5172 386.906 57.808 384.27 46.9503C381.634 36.0925 376.52 34.047 365.977 30.3884C358.306 27.7133 349.337 28.9722 342.649 33.5749C335.961 38.217 331.634 46.0849 331.201 54.1889C331.162 54.9757 331.201 55.8018 331.673 56.3919C332.46 57.336 333.915 57.1393 335.096 56.8639C341.862 55.2117 348.628 52.6547 355.552 53.2841C362.476 53.9529 369.675 59.2243 369.4 66.1874C372.036 65.3613 374.829 64.5744 377.464 65.4006C380.061 66.2267 382.028 69.5313 380.533 71.813C378.763 73.3865 376.442 74.134 374.16 73.9766Z" fill="black"/>
<path d="M364.956 194.513C369.204 185.426 371.683 175.591 374.004 165.835C377.741 150.059 381.085 134.205 384.035 118.273C384.547 115.598 385.019 112.805 384.271 110.208C383.524 107.612 381.164 105.251 378.449 105.448C364.287 132.986 355.239 163.12 351.895 193.884C351.659 196.126 351.501 198.644 352.996 200.375C354.727 202.381 358.071 202.302 360.274 200.847C362.477 199.352 363.815 196.913 364.956 194.513Z" fill="#B26634"/>
<path d="M362.871 188.691C368.851 184.285 375.224 180.469 381.951 177.361C382.344 177.164 382.816 177.007 383.21 177.164C383.603 177.322 383.8 177.715 383.957 178.109C385.256 181.059 386.278 184.167 386.947 187.314C387.419 189.517 387.616 192.153 386.003 193.766C385.137 194.631 383.879 194.985 382.738 195.418C377.112 197.542 372.627 202.066 366.923 203.994C362.674 205.41 358.072 205.253 353.587 205.056C353.154 205.056 352.682 204.978 352.446 204.663C352.289 204.427 352.25 204.151 352.25 203.876C352.092 201.712 351.974 199.391 352.918 197.464C353.43 196.441 354.177 195.615 354.925 194.789C358.544 190.815 358.583 191.877 362.871 188.691Z" fill="#B26634"/>
<path opacity="0.26" d="M209.997 185.15C209.997 181.256 205.905 181.256 205.866 185.15C205.315 271.58 205.905 358.166 209.013 444.517C209.21 449.473 214.481 449.513 214.324 444.517C211.688 358.048 209.761 271.698 209.997 185.15Z" fill="#E3E4E5"/>
<path opacity="0.26" d="M231.319 183.734C231.319 179.84 227.228 179.84 227.188 183.734C226.637 270.163 227.228 356.75 230.335 443.101C230.532 448.057 235.764 448.097 235.646 443.101C233.011 356.632 231.044 270.281 231.319 183.734Z" fill="#E3E4E5"/>
<path opacity="0.26" d="M248.315 183.734C248.315 179.84 244.224 179.84 244.184 183.734C243.634 270.163 244.224 356.75 247.331 443.101C247.528 448.057 252.8 448.097 252.642 443.101C250.007 356.632 248.04 270.281 248.315 183.734Z" fill="#E3E4E5"/>
<path opacity="0.26" d="M267.708 187.117C267.708 183.223 263.616 183.223 263.577 187.117C263.026 273.547 263.616 360.133 266.724 446.484C266.921 451.44 272.153 451.48 272.035 446.484C269.36 360.015 267.432 273.665 267.708 187.117Z" fill="#E3E4E5"/>
<path d="M249.337 150.099C247.606 149.902 245.364 150.532 244.026 151.712C242.374 153.167 241.745 155.488 241.194 157.691C240.958 156.865 240.092 156.275 239.306 156.354C238.48 156.432 237.85 157.219 237.889 158.046C237.929 159.068 238.873 159.934 238.834 160.957C238.794 161.744 238.165 162.294 237.614 162.806C228.487 170.595 218.456 177.322 209.722 185.583C207.204 187.944 206.339 190.54 204.569 193.412C203.231 195.576 200.949 198.408 202.956 201.083C204.647 203.365 208.031 202.814 210.548 201.83C230.061 193.962 241.312 173.742 251.186 154.78C252.799 151.712 251.422 150.335 249.337 150.099Z" fill="#ECB38E"/>
<defs>
<linearGradient id="paint0_linear_937_472" x1="321.393" y1="481.867" x2="492.48" y2="481.867" gradientUnits="userSpaceOnUse">
<stop stop-color="#4D4D4D"/>
<stop offset="1"/>
</linearGradient>
<linearGradient id="paint1_linear_937_472" x1="321.393" y1="481.867" x2="492.48" y2="481.867" gradientUnits="userSpaceOnUse">
<stop/>
<stop offset="1"/>
</linearGradient>
<linearGradient id="paint2_linear_937_472" x1="183.932" y1="477.155" x2="309.674" y2="477.155" gradientUnits="userSpaceOnUse">
<stop stop-color="#4D4D4D"/>
<stop offset="1"/>
</linearGradient>
<linearGradient id="paint3_linear_937_472" x1="183.932" y1="477.155" x2="309.674" y2="477.155" gradientUnits="userSpaceOnUse">
<stop/>
<stop offset="1"/>
</linearGradient>
</defs>
</svg>
