<svg width="152" height="145" viewBox="0 0 152 145" fill="none" xmlns="http://www.w3.org/2000/svg">
<circle cx="6" cy="6" r="6" fill="#A9C296"/>
<circle cx="86" cy="6" r="6" fill="#A9C296"/>
<circle cx="26" cy="6" r="6" fill="#A9C296"/>
<circle cx="106" cy="6" r="6" fill="#A9C296"/>
<circle cx="46" cy="6" r="6" fill="#A9C296"/>
<circle cx="126" cy="6" r="6" fill="#A9C296"/>
<circle cx="66" cy="6" r="6" fill="#A9C296"/>
<circle cx="146" cy="6" r="6" fill="#A9C296"/>
<circle cx="6" cy="82" r="6" fill="#A9C296"/>
<circle cx="86" cy="82" r="6" fill="#A9C296"/>
<circle cx="26" cy="82" r="6" fill="#A9C296"/>
<circle cx="106" cy="82" r="6" fill="#A9C296"/>
<circle cx="46" cy="82" r="6" fill="#A9C296"/>
<circle cx="126" cy="82" r="6" fill="#A9C296"/>
<circle cx="66" cy="82" r="6" fill="#A9C296"/>
<circle cx="146" cy="82" r="6" fill="#A9C296"/>
<circle cx="6" cy="44" r="6" fill="#A9C296"/>
<circle cx="86" cy="44" r="6" fill="#A9C296"/>
<circle cx="26" cy="44" r="6" fill="#A9C296"/>
<circle cx="106" cy="44" r="6" fill="#A9C296"/>
<circle cx="46" cy="44" r="6" fill="#A9C296"/>
<circle cx="126" cy="44" r="6" fill="#A9C296"/>
<circle cx="66" cy="44" r="6" fill="#A9C296"/>
<circle cx="146" cy="44" r="6" fill="#A9C296"/>
<circle cx="6" cy="120" r="6" fill="#A9C296"/>
<circle cx="86" cy="120" r="6" fill="#A9C296"/>
<circle cx="26" cy="120" r="6" fill="#A9C296"/>
<circle cx="106" cy="120" r="6" fill="#A9C296"/>
<circle cx="46" cy="120" r="6" fill="#A9C296"/>
<circle cx="126" cy="120" r="6" fill="#A9C296"/>
<circle cx="66" cy="120" r="6" fill="#A9C296"/>
<circle cx="146" cy="120" r="6" fill="#A9C296"/>
<circle cx="6" cy="25" r="6" fill="#A9C296"/>
<circle cx="86" cy="25" r="6" fill="#A9C296"/>
<circle cx="26" cy="25" r="6" fill="#A9C296"/>
<circle cx="106" cy="25" r="6" fill="#A9C296"/>
<circle cx="46" cy="25" r="6" fill="#A9C296"/>
<circle cx="126" cy="25" r="6" fill="#A9C296"/>
<circle cx="66" cy="25" r="6" fill="#A9C296"/>
<circle cx="146" cy="25" r="6" fill="#A9C296"/>
<circle cx="6" cy="101" r="6" fill="#A9C296"/>
<circle cx="86" cy="101" r="6" fill="#A9C296"/>
<circle cx="26" cy="101" r="6" fill="#A9C296"/>
<circle cx="106" cy="101" r="6" fill="#A9C296"/>
<circle cx="46" cy="101" r="6" fill="#A9C296"/>
<circle cx="126" cy="101" r="6" fill="#A9C296"/>
<circle cx="66" cy="101" r="6" fill="#A9C296"/>
<circle cx="146" cy="101" r="6" fill="#A9C296"/>
<circle cx="6" cy="63" r="6" fill="#A9C296"/>
<circle cx="86" cy="63" r="6" fill="#A9C296"/>
<circle cx="26" cy="63" r="6" fill="#A9C296"/>
<circle cx="106" cy="63" r="6" fill="#A9C296"/>
<circle cx="46" cy="63" r="6" fill="#A9C296"/>
<circle cx="126" cy="63" r="6" fill="#A9C296"/>
<circle cx="66" cy="63" r="6" fill="#A9C296"/>
<circle cx="146" cy="63" r="6" fill="#A9C296"/>
<circle cx="6" cy="139" r="6" fill="#A9C296"/>
<circle cx="86" cy="139" r="6" fill="#A9C296"/>
<circle cx="26" cy="139" r="6" fill="#A9C296"/>
<circle cx="106" cy="139" r="6" fill="#A9C296"/>
<circle cx="46" cy="139" r="6" fill="#A9C296"/>
<circle cx="126" cy="139" r="6" fill="#A9C296"/>
<circle cx="66" cy="139" r="6" fill="#A9C296"/>
<circle cx="146" cy="139" r="6" fill="#A9C296"/>
</svg>
