<svg width="426" height="405" viewBox="0 0 426 405" fill="none" xmlns="http://www.w3.org/2000/svg">
<path d="M216.045 397.764C226.482 397.582 236.955 397.436 247.356 396.455C252.556 395.982 257.792 395.291 262.774 393.8C266.701 392.636 270.811 390.673 272.629 387C272.883 386.491 273.102 385.909 272.993 385.327C272.92 384.745 272.556 384.273 272.12 383.873C270.011 381.8 266.738 381.727 263.792 381.763C234.955 382.163 206.118 382.709 177.354 385.036C172.19 385.472 166.335 386.309 163.353 390.564C156.844 399.837 179.244 397.8 183.281 397.909C194.227 398.127 205.136 397.946 216.045 397.764Z" fill="url(#paint0_linear_861_894)"/>
<path d="M216.045 397.764C226.482 397.582 236.955 397.436 247.356 396.455C252.556 395.982 257.792 395.291 262.774 393.8C266.701 392.636 270.811 390.673 272.629 387C272.883 386.491 273.102 385.909 272.993 385.327C272.92 384.745 272.556 384.273 272.12 383.873C270.011 381.8 266.738 381.727 263.792 381.763C234.955 382.163 206.118 382.709 177.354 385.036C172.19 385.472 166.335 386.309 163.353 390.564C156.844 399.837 179.244 397.8 183.281 397.909C194.227 398.127 205.136 397.946 216.045 397.764Z" fill="url(#paint1_linear_861_894)"/>
<path d="M142.587 260.96C150.369 299.215 172.515 333.398 180.261 371.69C180.77 374.199 181.242 376.781 182.624 378.89C184.042 381 186.661 382.563 189.097 381.909C193.534 380.709 193.497 374.527 192.879 369.981C191.061 356.417 192.624 342.635 194.224 329.035C196.697 307.834 199.17 286.633 201.643 265.396C203.498 263.469 206.843 263.905 208.879 265.651C210.916 267.36 211.898 269.978 212.698 272.524C216.298 283.833 217.789 295.652 219.316 307.398C222.334 330.926 225.316 354.49 225.68 378.2C227.825 378.345 229.971 378.491 232.117 378.6C240.917 355.108 247.535 330.889 253.753 306.634C256.917 294.343 259.972 282.015 261.972 269.469C264.59 252.996 265.281 236.268 265.826 219.613C265.936 216.231 265.972 212.631 264.045 209.831C262.335 207.358 259.39 206.086 256.554 204.995C232.226 195.649 206.079 192.194 180.115 190.158C172.806 189.576 165.424 189.14 158.224 190.449C152.551 191.467 146.369 193.722 142.114 197.794C137.314 202.413 138.877 209.722 138.841 216.086C138.768 231.105 139.568 246.196 142.587 260.96Z" fill="#666666"/>
<path d="M127.204 176.048C124.804 183.321 122.913 191.94 127.35 198.195C129.459 201.14 132.659 203.067 135.895 204.704C154.078 213.868 174.878 216.013 195.133 217.977C213.388 219.759 231.716 221.541 250.044 220.559C258.772 220.086 267.972 218.813 274.772 213.322C281.245 208.122 284.627 199.795 285.536 191.54C286.445 183.285 285.209 174.957 283.936 166.739C282.554 157.721 281.172 148.702 278.808 139.902C274.699 124.592 267.535 110.119 257.935 97.537C250.662 88.0459 241.826 79.4638 230.989 74.3728C220.734 69.5363 205.17 67.318 194.515 72.5181C183.86 77.6819 174.078 92.5551 166.951 101.719C149.605 124.011 136.041 149.248 127.204 176.048Z" fill="#D3B12A"/>
<path d="M228.772 47.8993C228.663 49.8266 228.554 51.7903 228.009 53.6812C226.663 58.1541 222.59 62.1906 217.063 64.3361C211.536 66.4816 204.663 66.7361 198.99 64.8451C193.353 62.9905 189.208 59.3541 185.898 55.5358C178.989 47.5355 174.953 38.0081 175.898 28.5532C176.044 27.135 176.335 25.6804 177.535 24.5531C179.244 22.9531 182.262 22.5894 184.989 22.3712C193.971 21.5712 218.881 15.8983 226.263 20.2257C233.572 24.5167 229.136 41.8991 228.772 47.8993Z" fill="#F2D6C9"/>
<path d="M156.188 20.7349C157.497 26.2986 164.588 30.5169 172.188 31.4988C179.788 32.4442 187.607 30.626 194.225 27.7168C201.28 24.5894 207.898 20.0439 216.117 19.7893C217.644 19.753 219.208 19.8621 220.517 20.3712C221.971 20.953 223.026 22.0076 223.862 23.0621C228.553 28.8805 229.244 35.9353 229.826 42.6627C232.335 36.808 234.335 30.8442 235.754 24.7713C237.317 18.1529 237.754 10.4072 231.208 5.78892C226.226 2.26154 218.553 1.64334 211.644 2.26154C201.934 3.13429 192.589 6.11622 185.061 10.6982C182.079 12.5164 179.352 14.5892 176.079 16.1893C172.843 17.753 168.915 18.8439 165.061 18.3348C160.842 17.7529 160.006 15.171 157.06 13.7164C155.86 15.7528 155.679 18.4802 156.188 20.7349Z" fill="#8D191C"/>
<path d="M243.791 115.537C241.1 110.592 237.136 106.555 233.791 102.046C230.445 97.537 227.645 92.2278 227.936 86.6276C228.227 81.0275 232.627 75.3546 238.227 75.391C240.554 75.391 242.736 76.3364 244.809 77.391C251.537 80.7729 257.682 85.3912 262.737 90.9913C264.701 93.1732 266.519 95.5005 267.792 98.1552C269.646 102.046 270.155 106.446 270.628 110.737C271.428 118.301 272.083 125.974 270.446 133.393C268.082 143.975 260.519 153.43 250.518 157.684C248.373 158.593 245.1 160.157 243.063 158.993C240.882 157.757 240.482 154.92 240.954 152.775C242.191 146.884 246.227 142.011 247.137 135.756C248.046 128.883 247.136 121.683 243.791 115.537Z" fill="#F2D6C9"/>
<path d="M232.117 156.921C231.681 157.211 231.245 157.539 230.917 157.939C230.117 158.957 230.081 160.339 230.081 161.648C230.081 163.721 230.299 166.157 232.081 167.212C232.881 167.685 233.863 167.757 234.808 167.794C235.79 167.83 236.772 167.903 237.754 167.939C238.809 168.012 239.936 168.048 240.808 167.466C241.718 166.885 242.118 165.794 242.481 164.775C243.354 162.266 244.227 159.793 245.099 157.284C245.245 156.848 245.39 156.375 245.209 155.975C245.1 155.72 244.845 155.539 244.627 155.393C242.554 153.793 241.572 152.993 238.918 153.575C236.699 154.048 233.718 155.321 232.117 156.921Z" fill="#F2D6C9"/>
<path d="M251.717 380.309C250.408 379.109 248.481 378.927 246.736 378.818C244.117 378.636 241.499 378.418 238.881 378.236C237.754 378.163 236.553 378.054 235.644 377.4C235.281 377.145 234.99 376.781 234.735 376.418C233.899 376.418 233.099 376.381 232.262 376.381C229.244 376.309 226.226 377.436 223.28 378.345C223.898 380.927 224.48 383.472 225.099 386.054C225.208 386.563 225.353 387.109 225.753 387.436C226.153 387.764 226.735 387.8 227.281 387.8C236.008 388.018 244.772 387.691 253.463 386.854C253.536 384.491 253.463 381.836 251.717 380.309Z" fill="black"/>
<path d="M191.497 377.981C191.643 381.436 191.752 385.072 190.152 388.163C189.024 390.345 187.133 391.982 185.279 393.618C184.297 394.455 183.351 395.291 182.37 396.164C182.115 396.382 181.824 396.636 181.497 396.745C181.133 396.855 180.733 396.855 180.37 396.818C178.697 396.746 177.06 396.891 175.388 396.782C173.751 396.636 172.042 396.164 170.878 394.964C169.715 393.764 169.351 391.727 170.369 390.418C171.024 389.582 172.115 389.182 173.06 388.709C175.933 387.4 178.406 385.254 180.079 382.6C181.133 380.927 182.115 379.181 184.042 378.49C184.77 378.236 191.497 377.472 191.497 377.981Z" fill="black"/>
<path d="M250.224 149.684C249.824 148.848 249.388 148.011 248.697 147.429C247.788 146.702 246.551 146.666 245.424 146.629C225.169 145.975 204.877 145.284 184.622 144.629C182.986 144.556 181.495 145.611 180.804 147.211C177.531 154.92 173.64 161.393 171.167 169.43C170.84 170.521 171.604 171.612 172.695 171.648C200.041 172.012 228.805 174.957 256.115 172.666C257.97 172.521 259.097 170.412 258.297 168.63C255.57 162.448 252.915 155.211 250.224 149.684Z" fill="#7F7F7F"/>
<path d="M249.678 147.902C249.278 147.066 248.878 146.229 248.151 145.648C247.242 144.92 246.042 144.884 244.951 144.847C225.06 144.193 205.168 143.502 185.313 142.847C183.713 142.775 182.222 143.829 181.567 145.429C178.331 153.139 174.513 159.612 172.113 167.648C171.785 168.739 172.549 169.83 173.604 169.866C200.441 170.23 228.66 173.176 255.46 170.885C257.279 170.739 258.37 168.63 257.606 166.848C254.951 160.666 252.333 153.43 249.678 147.902Z" fill="#666666"/>
<path d="M246.515 149.539C246.152 148.957 245.788 148.339 245.133 147.939C244.333 147.429 243.242 147.393 242.224 147.357C224.296 146.884 206.369 146.375 188.441 145.902C186.986 145.866 185.677 146.593 185.059 147.757C182.15 153.284 178.695 157.939 176.55 163.721C176.259 164.484 176.95 165.284 177.895 165.321C202.114 165.575 227.569 167.721 251.715 166.048C253.352 165.939 254.37 164.412 253.643 163.139C251.279 158.702 248.915 153.502 246.515 149.539Z" fill="#F0F0F0"/>
<path d="M222.913 151.139C222.803 151.284 222.84 151.466 222.876 151.648C223.603 155.83 224.331 160.084 225.931 164.012C230.731 164.012 235.531 164.012 240.331 164.048C241.859 164.048 243.386 164.048 244.841 163.757C243.241 159.612 241.604 155.466 240.004 151.321C234.513 151.466 229.022 151.357 223.567 150.993C223.313 150.957 223.058 150.957 222.913 151.139Z" fill="#E0C74E"/>
<path d="M216.879 150.702C208.043 151.175 199.279 151.029 190.442 150.702C189.751 150.666 189.751 151.72 190.442 151.793C199.242 152.448 208.079 152.339 216.879 151.902C217.643 151.866 217.679 150.666 216.879 150.702Z" fill="#CACACA"/>
<path d="M217.788 154.084C209.133 154.048 200.478 154.302 191.86 154.775C191.205 154.812 191.205 155.83 191.86 155.793C200.515 155.393 209.133 155.284 217.788 155.321C218.588 155.321 218.588 154.084 217.788 154.084Z" fill="#CACACA"/>
<path d="M217.787 158.339C208.696 157.939 199.568 157.866 190.477 157.902C189.786 157.902 189.786 158.957 190.477 158.957C199.605 159.102 208.696 159.393 217.787 159.612C218.587 159.612 218.587 158.375 217.787 158.339Z" fill="#CACACA"/>
<path d="M215.352 161.575C207.279 161.503 199.17 161.648 191.06 161.721C190.369 161.721 190.369 162.775 191.06 162.775C199.133 162.848 207.242 162.994 215.352 162.921C216.225 162.921 216.225 161.612 215.352 161.575Z" fill="#CACACA"/>
<path d="M181.897 157.102C183.388 157.248 184.915 157.393 186.406 157.102C187.642 156.884 188.843 156.375 189.861 155.648C191.461 154.521 192.661 152.702 192.77 150.739C192.843 148.775 191.606 146.738 189.715 146.193C188.842 145.938 187.933 146.011 187.024 146.193C183.024 146.884 179.388 149.175 175.351 149.466C173.86 149.575 172.187 149.466 171.133 150.484C170.551 151.066 170.26 151.866 170.115 152.702C169.969 153.575 169.933 154.557 170.369 155.321C171.205 156.812 173.642 156.339 175.096 156.448C177.351 156.666 179.606 156.884 181.897 157.102Z" fill="#F2D6C9"/>
<path d="M155.351 87.2822C148.66 92.3005 143.206 98.8098 138.005 105.355C133.205 111.428 128.441 117.792 126.078 125.174C123.714 132.556 124.114 141.247 128.914 147.32C133.787 153.466 141.933 155.721 149.642 157.211C152.697 157.793 155.824 158.339 158.951 158.121C162.406 157.902 167.97 158.557 171.279 157.466C173.061 156.884 173.061 155.175 174.406 153.866C175.752 152.557 176.043 149.72 175.097 148.12C169.497 147.757 163.897 147.175 158.333 146.375C153.715 145.72 148.697 144.666 145.715 141.102C142.478 137.247 142.696 131.32 145.096 126.883C147.496 122.447 151.678 119.283 156.006 116.701C160.333 114.119 164.952 111.974 168.952 108.919C175.788 103.683 204.589 82.882 196.407 74.0818C189.861 67.1725 160.988 83.0275 155.351 87.2822Z" fill="#F2D6C9"/>
<path d="M271.61 101.428C271.938 99.3554 270.519 97.428 269.21 95.7916C266.337 92.2278 263.465 88.6278 260.555 85.0641C259.174 83.3549 257.792 81.6093 256.083 80.1911C252.701 77.3547 248.337 76.0092 244.119 74.7728C239.282 73.3546 233.646 72.1545 229.573 75.1001C226.773 77.1365 225.5 80.7366 225.5 84.1912C225.5 87.6459 226.627 90.9551 227.864 94.1915C229.682 98.9917 231.645 103.974 234.227 108.41C236.373 112.156 238.773 111.865 242.409 110.228C251.901 105.974 261.283 102.665 271.61 101.428Z" fill="#D3B12A"/>
<path d="M160.368 97.1734C163.495 102.155 167.35 106.628 171.205 111.065C171.495 111.428 171.859 111.792 172.332 111.792C172.696 111.792 173.023 111.574 173.277 111.356C176.295 109.028 178.332 105.719 180.95 102.955C186.15 97.5007 193.642 94.3006 197.751 88.0095C200.078 84.4094 201.096 79.9729 200.587 75.7183C200.405 74.2273 200.005 72.6999 199.06 71.5726C197.714 69.9362 195.496 69.2816 193.387 69.2816C190.369 69.2816 187.459 70.3363 184.659 71.4273C176.695 74.5183 168.841 77.9365 161.131 81.6457C159.241 82.5548 157.313 83.5003 155.422 84.4458C152.949 85.7185 152.331 85.6822 153.931 87.8641C156.222 90.8823 158.331 93.9006 160.368 97.1734Z" fill="#D3B12A"/>
<path d="M399.937 404.2C406.919 404.2 414.047 404.128 420.702 401.982C421.211 400.418 420.265 398.637 418.883 397.691C417.502 396.746 415.829 396.455 414.156 396.236C408.556 395.509 402.883 395.327 397.21 395.146C375.209 394.491 353.172 393.836 331.135 393.691C328.372 393.655 316.844 394.418 320.117 400.019C322.299 403.764 332.517 402.455 336.081 402.637C349.645 403.291 363.209 403.728 376.81 403.982C384.519 404.128 392.228 404.2 399.937 404.2Z" fill="url(#paint2_linear_861_894)"/>
<path d="M399.937 404.2C406.919 404.2 414.047 404.128 420.702 401.982C421.211 400.419 420.265 398.637 418.883 397.691C417.502 396.746 415.829 396.455 414.156 396.237C408.556 395.509 402.883 395.327 397.21 395.146C375.209 394.491 353.172 393.836 331.135 393.691C328.372 393.655 316.844 394.418 320.117 400.019C322.299 403.764 332.517 402.455 336.081 402.637C349.645 403.291 363.209 403.728 376.81 403.982C384.519 404.128 392.228 404.2 399.937 404.2Z" fill="url(#paint3_linear_861_894)"/>
<path d="M417.867 181.467C417.867 181.467 419.103 161.975 383.793 163.357C383.102 163.394 382.448 163.393 381.793 163.43C381.539 163.575 381.321 163.684 381.066 163.83C380.557 165.139 380.121 166.448 379.793 167.794C379.684 168.157 379.611 168.739 379.502 169.285C379.248 171.394 379.32 170.448 379.502 169.285C379.539 168.848 379.611 168.303 379.684 167.612C379.575 168.484 379.393 169.357 379.284 170.194C378.193 177.976 378.448 185.831 377.757 193.613C377.175 200.267 375.83 206.922 374.375 213.504C375.757 213.431 377.32 213.468 378.193 213.795C379.975 214.449 380.812 375.909 377.757 385.945L391.794 386.091C391.83 386.127 419.031 220.304 417.867 181.467Z" fill="#97A8B2"/>
<path d="M379.32 90.8096C375.21 90.2277 370.847 92.3732 368.847 96.0097C367.574 98.337 367.246 101.064 366.919 103.719C365.756 113.137 364.265 122.519 362.483 131.865C361.283 138.193 361.137 150.775 352.192 151.393C348.846 151.648 345.391 149.102 342.082 148.593C336.664 147.72 331.573 147.429 326.336 145.538C322.118 144.011 319.318 141.756 316.154 138.702C314.263 136.847 311.609 133.174 309.063 132.484C307.245 131.974 304.954 134.084 306.081 135.574C303.827 134.229 300.59 136.375 300.481 139.029C300.263 144.084 310.227 146.957 313.754 149.138C319.209 152.557 324.591 156.157 330.518 158.702C339.864 162.702 349.973 164.957 360.119 165.139C361.901 165.175 363.792 165.103 365.319 164.193C368.592 162.193 370.337 157.502 372.847 154.593C375.138 151.902 376.374 150.12 377.429 146.629C380.338 137.029 382.847 127.174 384.738 117.319C386.52 109.028 392.665 92.7732 379.32 90.8096Z" fill="#EADDD0"/>
<path d="M338.152 239.432C338.37 245.65 338.807 251.869 339.207 258.087C339.825 267.396 340.443 276.706 341.025 286.015C341.207 288.997 341.498 292.161 343.316 294.525C343.498 294.779 343.716 294.997 344.007 295.106C344.989 295.47 345.752 294.234 346.08 293.252C349.971 281.542 355.716 270.487 363.098 260.596C364.989 258.087 367.026 255.578 369.753 254.014C371.79 252.851 374.117 252.232 376.444 251.651C381.026 250.487 385.645 249.323 390.226 248.16C392.917 247.469 395.717 246.741 397.827 244.96C399.499 243.541 400.59 241.578 401.645 239.65C407.027 229.941 412.445 220.122 415.173 209.358C417.173 201.504 417.682 193.358 417.536 185.285C417.536 184.485 417.5 183.649 417.209 182.921C416.809 181.903 415.936 181.103 415.027 180.485C411.573 178.194 407.173 177.903 403.027 177.721C387.281 177.03 371.171 176.703 355.753 180.376C350.989 181.503 342.916 182.667 340.589 187.722C337.752 193.904 338.625 203.504 338.298 210.195C337.825 219.904 337.752 229.686 338.152 239.432Z" fill="#97A8B2"/>
<path d="M370.337 228.632C361.536 227.432 352.7 226.268 343.9 225.068C343.463 223.941 345.645 225.104 345.5 226.268C340.882 263.105 342.663 300.525 346.336 337.58C347.936 353.544 348.045 369.581 346.373 385.509C350.009 385.909 356.264 386.454 359.864 386.854C366.555 337.217 370.591 287.433 377.283 237.796C377.61 235.286 377.828 232.377 375.901 230.559C374.482 229.214 372.337 228.886 370.337 228.632Z" fill="#97A8B2"/>
<path d="M358.881 66.0816C364.154 65.8998 369.536 62.336 375.209 61.1723C373.718 56.5904 375.5 51.6448 375.973 46.8447C376.627 40.3354 374.809 33.8625 372.918 27.6441C371.391 22.6258 369.682 17.4257 366.081 13.571C365.354 12.8073 364.518 12.08 363.536 11.8255C362.663 11.6073 361.754 11.7528 360.881 11.8619C354.663 12.8073 337.39 13.5346 335.753 20.5167C333.499 30.0806 340.081 42.7718 343.79 51.2447C345.535 55.2449 347.317 59.3177 350.372 62.4087C353.136 65.2815 356.009 66.1907 358.881 66.0816Z" fill="#EADDD0"/>
<path d="M419.174 202.958L419.283 202.849C419.356 202.776 419.392 202.704 419.465 202.667C419.61 202.449 419.756 202.267 419.901 202.049C421.756 199.213 423.356 196.231 424.992 193.285C428.047 158.884 424.156 124.156 413.355 90.3368C409.973 79.7183 406.628 68.0089 393.937 60.736C393.282 60.3723 392.591 60.0086 391.791 59.8632C390.737 59.6813 389.646 59.9723 388.627 60.2268C381.791 61.9723 374.954 63.7179 368.081 65.4997C366.736 65.8634 365.354 66.1907 363.972 66.5179C362.518 66.8452 361.063 67.1361 359.572 67.3543C357.027 67.7179 347.026 70.118 346.663 72.5181C345.79 78.6637 344.99 84.8093 344.299 90.9913C342.553 106.228 341.244 121.429 341.281 136.702C341.317 151.939 339.935 167.139 337.426 182.23C337.244 183.394 336.335 189.54 335.244 195.831C335.317 195.94 335.353 196.049 335.426 196.158C336.299 197.831 337.244 199.431 338.299 200.994C338.408 201.14 338.59 201.394 338.771 201.685C338.881 201.794 338.953 201.904 339.026 201.976C340.19 203.322 341.499 204.595 342.844 205.795C342.953 205.904 343.135 206.049 343.353 206.267C341.499 204.522 343.462 206.304 344.008 206.667C345.426 207.613 346.881 208.486 348.372 209.249C348.735 209.431 350.263 210.086 350.408 210.158C350.554 210.231 350.735 210.267 350.881 210.34C372.336 209.431 393.755 207.94 415.028 205.795C416.337 204.74 417.756 203.686 419.174 202.958Z" fill="#B62027"/>
<path d="M347.32 384.127C347.102 384.127 346.883 384.127 346.665 384.163C346.374 384.236 346.192 384.418 346.01 384.564C345.247 385.327 344.665 386.163 344.338 387.072C344.047 387.909 343.974 388.818 343.356 389.545C342.665 390.382 341.392 390.891 340.119 391.291C336.883 392.345 333.392 393.073 329.865 393.4C329.065 393.473 328.265 393.545 327.537 393.764C325.501 394.455 324.992 396.236 324.737 397.8C324.664 398.236 324.628 398.782 325.174 399.037C325.464 399.182 325.828 399.182 326.192 399.182C336.374 399.146 340.701 399.146 350.847 399.146C353.32 399.146 355.902 399.073 358.302 398.637C358.629 398.564 358.956 398.527 359.211 398.346C359.465 398.164 359.575 397.909 359.684 397.655C361.029 394.164 361.175 390.345 360.884 386.745C360.775 385.618 360.593 384.709 358.811 384.454C356.265 384.091 359.065 384.382 356.484 384.309C353.465 384.273 350.374 384.2 347.32 384.127Z" fill="#97A8B2"/>
<path d="M391.284 30.1533C391.32 27.026 389.502 24.1895 387.975 21.4621C385.429 16.9165 383.393 12.0073 380.265 7.82535C377.138 3.64341 372.52 0.152426 367.283 0.00696711C365.101 -0.0657622 362.956 0.443379 360.847 0.952484C351.828 3.13436 342.737 5.35255 334.519 9.64358C333.5 10.1891 332.446 10.771 331.791 11.7528C331.209 12.5892 331.028 13.6437 330.846 14.6619C330.591 16.0801 330.337 17.5347 330.082 18.9529C329.937 19.862 329.755 20.7712 329.937 21.644C330.482 24.3713 333.682 25.5713 336.482 25.7531C339.246 25.8986 341.973 25.535 344.701 25.135C347.319 24.7713 353.501 22.5895 355.61 24.9532C356.665 26.1169 356.337 28.0805 357.065 29.4624C357.937 31.1715 359.574 32.1897 360.665 33.717C361.792 35.1352 362.592 37.099 361.756 38.699C363.283 37.7899 365.174 37.4989 366.919 37.9353C367.538 38.0808 368.156 38.3354 368.556 38.8081C369.319 39.7536 368.992 41.2082 368.156 42.0809C367.319 42.9537 366.119 43.3536 364.956 43.7173C369.901 48.481 371.72 56.2267 369.429 62.736C373.21 62.336 376.374 59.7178 378.992 56.9541C381.356 54.4449 383.538 51.7175 385.029 48.6265C385.72 47.1719 386.266 45.681 386.811 44.19C387.866 41.2081 388.957 38.1898 390.011 35.2079C390.666 33.5352 391.247 31.8625 391.284 30.1533Z" fill="#333333"/>
<path d="M378.919 384.454C378.701 384.454 378.483 384.454 378.265 384.491C377.974 384.563 377.792 384.745 377.61 384.891C376.846 385.654 376.265 386.491 375.937 387.4C375.647 388.236 375.574 389.145 374.956 389.873C374.265 390.709 372.992 391.218 371.719 391.618C368.483 392.673 364.992 393.4 361.464 393.727C360.664 393.8 359.864 393.873 359.137 394.091C357.101 394.782 356.591 396.564 356.337 398.127C356.264 398.564 356.228 399.109 356.773 399.364C357.064 399.509 357.428 399.509 357.792 399.509C367.974 399.473 372.301 399.473 382.447 399.473C384.919 399.473 387.501 399.4 389.901 398.964C390.229 398.891 390.556 398.855 390.81 398.673C391.065 398.491 391.174 398.236 391.283 397.982C392.629 394.491 392.774 390.673 392.483 387.072C392.374 385.945 392.192 385.036 390.411 384.782C387.865 384.418 390.665 384.709 388.083 384.636C385.028 384.6 381.974 384.527 378.919 384.454Z" fill="#97A8B2"/>
<path d="M308.117 141.975C307.063 144.084 305.863 146.157 304.554 148.12C304.372 148.411 304.154 148.702 303.826 148.775C303.499 148.884 303.135 148.702 302.844 148.557C299.317 146.811 295.826 145.066 292.299 143.357C293.135 135.066 292.663 125.029 295.063 117.138C295.39 116.01 312.699 119.029 313.863 122.192C314.99 125.32 311.79 132.847 310.736 135.866C310.008 137.938 309.136 139.975 308.117 141.975Z" fill="#C7B299"/>
<path d="M293.937 118.01C294.446 118.119 294.955 118.156 295.464 118.192C296.555 118.301 297.61 118.519 298.664 118.738C303.864 119.938 308.919 121.683 313.901 123.574C314.228 123.683 314.556 123.829 314.919 123.792C315.465 123.72 315.865 123.21 316.01 122.701C316.156 122.156 316.083 121.61 316.01 121.065C316.01 120.956 315.974 120.847 315.901 120.774C315.828 120.701 315.756 120.665 315.647 120.629C315.392 120.52 315.137 120.41 314.883 120.338C313.719 119.901 312.519 119.538 311.319 119.21C306.119 117.756 300.882 116.41 295.646 115.174C295.391 115.101 295.064 115.065 294.846 115.21C294.446 115.501 294.228 116.228 294.119 116.665C293.937 117.028 293.355 117.901 293.937 118.01Z" fill="#534741"/>
<path d="M293.681 132.847L309.245 139.611L312.372 131.392L293.681 123.792V132.847Z" fill="#5B8C87"/>
<path d="M352.082 39.6444C352.01 39.3172 351.61 38.9899 351.21 39.0263C347.319 39.4263 343.5 40.299 339.755 41.2445C338.446 41.5718 339.028 43.4992 340.3 43.1355C343.682 42.2628 347.137 41.6082 350.519 40.8445C350.955 42.59 351.319 44.3719 351.537 46.1901C351.646 46.9902 351.683 47.7902 351.683 48.5902C351.719 50.0448 349.537 50.1538 348.591 50.3357C347.428 50.5539 346.264 50.6266 345.1 50.6629C343.391 50.7357 343.282 49.972 342.628 48.8447C341.646 47.1356 340.882 45.3537 340.191 43.5355C339.973 42.9537 339.064 43.2082 339.209 43.7901C339.973 46.4083 340.955 49.063 342.409 51.4267C343.464 53.1358 347.391 52.0812 348.991 51.863C350.773 51.6085 353.064 51.2084 353.282 49.172C353.682 46.081 352.882 42.6627 352.082 39.6444Z" fill="#333333"/>
<path d="M361.392 36.2262C358.046 37.4989 354.846 39.4263 351.646 41.0263C351.028 41.3173 351.465 42.3354 352.119 42.1172C355.501 40.9899 359.137 40.0445 362.374 38.5536C363.683 37.9717 362.738 35.7171 361.392 36.2262Z" fill="#333333"/>
<path d="M390.337 91.0642C389.028 86.0458 383.573 75.5728 377.827 83.1003C376.082 85.3913 375.646 88.4459 375.318 91.3187C372.518 114.483 369.682 137.611 366.882 160.775C365.427 172.848 363.827 185.321 357.572 195.722C356.554 197.394 355.427 199.031 354.954 200.922C354.445 202.813 354.736 205.031 356.227 206.304C354.191 208.849 355.863 214.377 359.609 214.086C360.409 214.013 361.136 213.686 361.791 213.213C365.536 210.631 364.591 205.831 365.464 201.831C366.627 196.376 368.3 191.067 369.973 185.794C376.373 165.394 384.41 145.502 388.701 124.665C390.955 113.538 393.21 102.01 390.337 91.0642Z" fill="#EADDD0"/>
<path d="M375.793 78.5547C374.338 78.882 372.848 79.2456 371.757 80.2274C370.338 81.5002 369.866 83.5003 369.466 85.3549C365.102 106.301 361.793 127.465 359.538 148.775C366.738 150.593 373.975 152.411 381.175 154.23C390.339 134.302 394.448 112.083 392.994 90.2277C392.739 86.3367 392.084 82.0093 389.066 79.5365C385.43 76.6637 380.266 77.5365 375.793 78.5547Z" fill="#D1202A"/>
<path d="M77.8204 401.109C85.1297 400.891 92.4391 400.636 99.712 400.091C103.239 399.836 106.876 399.473 110.076 397.946C111.822 397.109 113.603 395.255 112.803 393.509C112.149 392.054 110.185 391.836 108.549 391.836C82.1842 391.8 55.7834 391.764 29.4554 393.509C24.6916 393.836 19.2734 394.564 16.546 398.491C13.2005 403.364 23.2008 401.982 25.2736 402.018C31.0556 402.091 36.8376 402.091 42.5832 402.018C54.3654 401.873 66.0746 401.509 77.8204 401.109Z" fill="url(#paint4_linear_861_894)"/>
<path d="M77.8204 401.109C85.1297 400.891 92.4391 400.636 99.712 400.091C103.239 399.836 106.876 399.473 110.076 397.946C111.822 397.109 113.603 395.255 112.803 393.509C112.149 392.054 110.185 391.836 108.549 391.836C82.1842 391.8 55.7834 391.764 29.4554 393.509C24.6916 393.836 19.2734 394.564 16.546 398.491C13.2005 403.364 23.2008 401.982 25.2736 402.018C31.0556 402.091 36.8376 402.091 42.5832 402.018C54.3654 401.873 66.0746 401.509 77.8204 401.109Z" fill="url(#paint5_linear_861_894)"/>
<path d="M131.202 139.029C131.893 139.647 132.584 140.229 133.457 140.483C134.657 140.811 135.93 140.411 137.093 140.011C137.893 139.756 138.657 139.465 139.457 139.211C139.748 139.102 140.075 138.992 140.257 138.702C140.439 138.411 140.403 138.084 140.366 137.72C139.602 130.374 138.221 123.101 136.184 116.01C132.948 117.501 129.748 118.992 126.511 120.483C124.766 121.283 118.911 122.883 118.802 124.992C118.693 127.138 122.838 130.629 124.184 132.083C126.402 134.52 128.73 136.847 131.202 139.029Z" fill="white"/>
<path d="M132.693 114.665C133.638 114.265 134.657 113.865 135.711 114.01C136.73 114.156 137.748 115.065 137.602 116.083C137.493 116.81 133.639 118.556 132.948 118.956C131.275 119.938 129.566 120.847 127.82 121.719C126.075 122.592 124.293 123.392 122.511 124.156C121.529 124.592 119.384 125.938 118.22 125.538C113.965 124.047 121.384 119.974 122.656 119.247C125.893 117.501 129.275 116.083 132.693 114.665Z" fill="#333333"/>
<path d="M95.1654 388.564C93.6017 388.673 92.0017 388.782 90.4744 388.382C88.9471 387.982 87.4924 386.927 87.0197 385.436C86.6197 384.163 86.8016 382.491 85.7106 381.763C85.4561 381.581 85.1652 381.509 84.8379 381.472C84.6925 354.817 85.3469 339.435 85.1651 312.234C86.5106 303.179 85.7106 294.779 85.4924 286.015C84.8379 258.342 84.2196 230.668 83.565 202.994C83.4923 199.322 83.3468 195.503 81.5286 192.085C78.5831 186.558 72.0375 183.43 65.8918 181.03C47.6368 173.903 26.9816 163.721 21.9632 186.63C20.6177 192.703 19.5269 198.813 18.6178 204.995C17.9632 209.395 17.4541 213.977 19.0541 218.34C21.7815 225.759 26.8362 243.977 33.2364 249.359C49.9278 263.396 57.2007 279.251 62.6917 297.87C60.9826 304.088 62.9826 312.889 63.7462 317.689C67.31 340.708 74.6558 362.126 78.2559 385.145C76.7286 387.982 76.0739 391.291 76.5103 394.491C76.583 395.146 76.7284 395.8 77.1648 396.273C77.783 396.964 78.8012 397.109 79.7104 397.182C82.2923 397.364 84.8742 397.436 87.4561 397.4C89.4561 397.364 91.6016 397.182 93.1289 395.873C95.129 394.2 95.2381 391.218 95.1654 388.564Z" fill="#998675"/>
<path d="M73.4189 231.141C68.2915 219.832 49.5273 212.231 31.8177 225.141C21.2356 232.85 29.2722 241.432 31.5995 249.069C34.436 258.342 36.3269 267.906 37.1996 277.615C38.9087 296.343 36.9815 315.762 31.3813 335.217C27.6722 348.162 27.5994 362.345 25.0175 375.254C23.5993 382.491 19.09 392.091 20.1446 399.291C24.1447 399.328 28.1449 399.364 32.1087 399.4C35.6361 399.437 39.3816 399.4 42.3272 397.473C45.2727 395.546 46.7272 390.964 44.2544 388.454C41.8179 389.254 39.236 390.055 36.7269 389.473C25.7084 386.854 40.1088 361.945 42.218 356.454C51.2 333.035 60.182 309.616 66.6913 286.197C71.4914 269.069 80.4737 246.596 73.4189 231.141Z" fill="#998675"/>
<path d="M76.8004 106.301C81.1642 117.029 85.5278 127.72 89.8916 138.447C91.0916 141.393 92.2917 144.52 91.7098 147.611C90.6916 153.102 84.6915 156.048 79.2732 157.284C68.5456 142.048 57.2362 127.211 45.4177 112.81C38.6902 104.628 28.2172 85.7185 43.6722 80.0093C61.2 73.5727 71.6002 93.5006 76.8004 106.301Z" fill="#ACB18F"/>
<path d="M116.111 90.0095C117.529 87.9004 119.565 88.8458 121.347 90.664C116.365 108.701 111.929 126.883 108.038 145.175C106.838 150.848 105.31 157.102 100.474 160.375C98.4375 161.757 95.9646 162.448 93.5282 162.848C89.1281 163.612 83.8189 163.212 81.3461 159.502C77.8187 154.193 82.1825 149.029 85.6735 145.32C89.7827 140.993 91.5282 138.193 94.0737 132.302C99.9285 118.701 107.856 102.373 116.111 90.0095Z" fill="#599144"/>
<path d="M124.441 89.1731C124.841 88.664 125.059 88.0458 125.314 87.4276C125.932 85.864 126.55 84.2639 127.168 82.7002C127.459 81.9729 127.75 81.2456 127.787 80.482C127.823 79.7183 127.605 78.8819 127.023 78.3728C126.477 77.9 125.714 77.791 124.986 77.9364C124.259 78.0819 123.677 78.482 123.095 78.9183C121.823 79.9002 120.768 81.1729 120.041 82.6275C119.459 83.7912 119.095 85.064 118.186 85.9731C117.786 86.3731 117.313 86.7003 116.95 87.1731C116.404 87.864 116.295 88.8458 116.623 89.6458C117.823 92.3005 123.059 90.9913 124.441 89.1731Z" fill="#F2D6C9"/>
<path d="M96.039 234.923C94.2208 196.013 90.1843 157.211 84.9114 118.556C82.9841 104.374 80.6568 87.5003 65.82 80.8819C52.0741 74.7363 35.1283 73.1727 26.1826 86.9913C21.1643 94.737 20.0368 104.119 18.9823 113.21C12.6548 168.812 6.32745 224.413 0 280.015C6.94565 280.415 90.0753 292.742 90.4389 287.542C90.4389 287.47 90.4389 287.397 90.4389 287.361C90.9844 287.324 91.4934 287.215 91.9662 286.997C93.8208 286.161 94.3662 283.942 94.6935 282.015C97.13 266.451 96.7663 250.632 96.039 234.923Z" fill="#919F63"/>
<path d="M121.638 132.956C121.82 132.556 121.965 132.12 122.22 131.756C122.765 130.993 123.711 130.702 124.656 130.593C125.565 130.484 126.511 130.556 127.42 130.411C130.256 129.902 132.584 127.102 135.42 127.538C136.293 127.684 137.093 128.12 137.82 128.629C138.766 129.32 139.638 130.229 139.893 131.356C140.257 133.138 138.984 134.847 137.82 136.229C137.166 136.993 136.475 137.793 135.602 138.266C134.875 138.666 134.038 138.811 133.202 138.993C131.202 139.466 129.202 140.193 127.602 141.575C126.293 142.702 125.202 144.266 123.565 144.666C120.583 145.393 117.783 142.12 117.456 139.429C117.056 136.666 120.62 135.247 121.638 132.956Z" fill="#F2D6C9"/>
<path d="M123.639 142.52C122.329 139.902 121.02 137.284 119.747 134.665C115.638 135.356 112.547 138.629 109.602 141.538C105.529 145.575 101.129 149.284 96.4378 152.63C93.6741 154.593 90.5102 156.484 87.1646 155.975C83.0918 155.357 80.4736 151.393 78.3644 147.829C70.5097 134.411 62.655 120.956 54.8002 107.537C48.5818 96.9189 41.6361 100.81 37.1632 110.337C33.1267 119.029 38.327 128.811 42.3271 136.665C47.4909 146.811 53.2 156.666 59.4548 166.23C63.1276 171.83 67.5278 177.721 74.0734 179.212C77.2008 179.939 80.5464 179.54 83.6374 178.63C93.6376 175.794 101.565 168.339 108.947 160.993C113.711 156.23 118.438 151.357 123.057 146.448C123.566 145.902 124.111 145.32 124.22 144.557C124.293 143.902 123.966 143.175 123.639 142.52Z" fill="#599144"/>
<path d="M79.0926 27.3532C77.4562 22.4803 74.8743 16.4801 69.6015 15.2074C63.8922 13.8619 55.8193 17.6075 51.6737 21.2439C46.5463 25.7168 43.3461 32.0443 41.5642 38.5899C39.6005 45.7174 39.2732 53.6449 42.4733 60.336C45.6734 67.0271 52.9828 72.0454 60.2921 70.9545C65.2013 70.2272 69.3833 66.9907 72.5834 63.2088C80.8018 53.4994 83.1291 39.3535 79.0926 27.3532Z" fill="#F2D6C9"/>
<path d="M54.5457 45.6446C52.9093 42.7718 47.9636 42.9174 46.5091 45.8629C45.4181 48.0448 49.3455 56.9177 49.9273 59.645C51.4547 66.8816 43.6727 116.265 45.6727 123.429C33.9997 123.683 22.2175 122.41 11.0899 118.847C9.9626 118.483 8.76262 118.047 7.9626 117.138C6.94439 115.938 6.90795 114.192 6.98068 112.628C7.85343 89.2095 29.454 9.49814 58.5094 10.1891C62.0731 10.2618 65.6006 11.0618 69.0916 11.8982C71.3826 12.4437 73.6736 13.0619 75.7464 14.2256C79.9647 16.662 82.5829 21.2803 83.6375 26.0441C84.7284 30.8079 84.4374 35.7535 84.1828 40.59C84.1101 42.0809 66.6916 40.5536 65.0188 40.299C63.1278 40.0081 59.6004 38.5172 57.7094 39.3172C55.5276 40.2263 55.273 43.6809 54.5457 45.6446Z" fill="black"/>
<path opacity="0.19" d="M29.1661 198.885C24.1478 197.903 19.5656 195.467 15.0928 193.031C15.8201 190.849 16.5475 188.667 17.2384 186.485C37.7481 193.867 61.0578 193.213 81.1311 184.703C81.4584 188.158 81.7494 191.612 82.0767 195.067C76.622 196.231 71.0582 196.667 65.5308 197.14C57.9669 197.758 50.4393 198.376 42.8754 199.031C38.3299 199.395 33.6753 199.758 29.1661 198.885Z" fill="white"/>
<defs>
<linearGradient id="paint0_linear_861_894" x1="162.243" y1="389.902" x2="273.064" y2="389.902" gradientUnits="userSpaceOnUse">
<stop stop-color="#4D4D4D"/>
<stop offset="1"/>
</linearGradient>
<linearGradient id="paint1_linear_861_894" x1="162.243" y1="389.902" x2="273.064" y2="389.902" gradientUnits="userSpaceOnUse">
<stop/>
<stop offset="1"/>
</linearGradient>
<linearGradient id="paint2_linear_861_894" x1="319.596" y1="398.953" x2="420.858" y2="398.953" gradientUnits="userSpaceOnUse">
<stop stop-color="#4D4D4D"/>
<stop offset="1"/>
</linearGradient>
<linearGradient id="paint3_linear_861_894" x1="319.596" y1="398.953" x2="420.858" y2="398.953" gradientUnits="userSpaceOnUse">
<stop/>
<stop offset="1"/>
</linearGradient>
<linearGradient id="paint4_linear_861_894" x1="15.8911" y1="397.014" x2="112.987" y2="397.014" gradientUnits="userSpaceOnUse">
<stop stop-color="#4D4D4D"/>
<stop offset="1"/>
</linearGradient>
<linearGradient id="paint5_linear_861_894" x1="15.8911" y1="397.014" x2="112.987" y2="397.014" gradientUnits="userSpaceOnUse">
<stop/>
<stop offset="1"/>
</linearGradient>
</defs>
</svg>
