<svg width="553" height="551" viewBox="0 0 553 551" fill="none" xmlns="http://www.w3.org/2000/svg">
<g clip-path="url(#clip0_816_540)">
<path d="M344.982 342.393C344.917 411.562 345.377 480.785 344.565 549.954C250.506 549.567 156.415 550.48 62.3673 549.954L51.4971 521.38L319.479 520.542C320.291 442.124 319.832 363.663 319.896 285.245L344.982 342.383V342.393Z" fill="#006938"/>
<path d="M25.5882 469.291V520.134L51.5078 521.391L62.378 549.965C55.3984 549.922 1.7636 551.544 0.502358 548.708C0.438227 521.96 0.587865 495.19 0.502358 468.453C8.79662 467.551 17.4009 469.291 25.5882 469.291Z" fill="#22A153"/>
<path d="M314.883 269.293C314.958 351.331 315.877 433.498 313.632 515.504C225.238 513.667 136.503 517.964 48.1623 515.504C42.9998 504.558 39.4298 488.294 33.9466 478.11C32.5571 475.521 33.1877 476.37 30.6011 476.853V468.453C93.1608 468.432 155.742 468.464 218.312 468.453C219.648 468.002 219.424 465.95 219.563 465.929C222.203 465.51 224.277 465.725 227.088 465.091C230.935 464.221 234.142 464.36 237.958 463.834V90.2958C238.268 90.5106 239.369 90.0165 240.47 91.5526C263.054 146.058 284.859 200.887 307.358 255.414C309.068 259.571 311.698 266.156 314.883 269.282V269.293Z" fill="#006938"/>
<path d="M345.368 342.777L320.254 285.575C320.329 200.348 320.543 115.056 319.836 29.8287H26.0336L25.6163 81.9867H1.33696C1.36906 73.2435 -1.95878 2.03982 1.75428 0.383667H344.116C346.341 114.454 345.475 228.674 345.368 342.777Z" fill="#599144"/>
<path d="M315.236 269.594C312.047 266.465 309.415 259.872 307.703 255.711C285.178 201.111 263.338 146.222 240.739 91.6656C239.648 90.117 238.545 90.6225 238.224 90.4074C234.137 87.6113 233.377 90.3536 227.342 88.7297C226.903 88.6114 225.352 84.1699 219.809 86.2025C219.659 84.5356 220.365 83.1805 218.557 81.9976H30.6354L31.8874 34.8833H313.973C316.327 113.056 315.161 191.39 315.225 269.594H315.236Z" fill="#599144"/>
<path d="M320.265 285.575C320.201 364.081 320.661 442.63 319.848 521.135L51.5655 521.974L25.6169 520.716V469.816C25.8737 469.816 28.7842 468.977 30.6354 468.977V514.823C31.5877 516.984 45.295 516.006 48.2162 516.081C136.656 518.544 225.491 514.242 313.984 516.081C316.231 433.983 315.311 351.724 315.236 269.594C315.171 191.389 316.338 113.056 313.984 34.8831H31.8873L30.6354 81.9974H25.6169L26.0342 29.8394H319.848C320.554 115.067 320.34 200.358 320.265 285.586V285.575Z" fill="#DAD4D9"/>
<path d="M227.088 88.6199V465.091C224.276 465.724 222.203 465.52 219.563 465.928L218.729 465.091V87.782C218.708 86.9763 219.638 86.8581 219.563 86.1062C225.099 84.0759 226.649 88.5124 227.088 88.6306V88.6199Z" fill="#DAD4D9"/>
<path d="M25.6169 81.9866H218.557C220.365 83.1695 219.659 84.5246 219.809 86.1915C219.873 86.955 218.953 87.0626 218.974 87.8691C221.532 213.661 217.059 339.776 218.974 465.601L219.809 466.439C219.67 466.461 219.895 468.515 218.557 468.967C155.916 468.977 93.2652 468.945 30.6354 468.967C28.7735 468.967 25.863 469.805 25.6169 469.805C17.4203 469.805 8.80645 468.063 0.502887 468.967C0.0748684 339.98 0.909505 210.941 1.33752 81.9866H25.6169Z" fill="#BD202E"/>
<path d="M40.2658 102.172H180.891L182.143 121.949L39.4312 122.369L40.2658 102.172Z" fill="white"/>
<path d="M47.7989 132.467H173.358C175.113 133.553 174.985 141.307 174.61 142.146C172.031 147.964 61.8379 140.307 47.7989 143.404V132.467Z" fill="white"/>
<path d="M218.974 465.601C217.059 339.787 221.532 213.661 218.974 87.8691V465.601Z" fill="white"/>
<path d="M237.958 90.2957V463.823C234.142 464.36 230.935 464.21 227.088 465.08V88.6199C233.116 90.2527 233.875 87.5134 237.958 90.2957Z" fill="#781215"/>
<path d="M48.1623 515.504C45.2444 515.418 31.5631 516.406 30.6011 514.247V476.853C33.1877 476.381 32.5464 475.521 33.9466 478.11C39.4298 488.294 42.9998 504.568 48.1623 515.504Z" fill="#22A153"/>
<path d="M176.371 132.319H47.7455V151.945H176.371V132.319Z" fill="white"/>
<path d="M189.496 102.338H39.3871V123.682H189.496V102.338Z" fill="white"/>
</g>
<g clip-path="url(#clip1_816_540)">
<path d="M552.693 373.14C552.668 428.325 552.709 483.527 552.693 538.72C550.951 544.928 547.665 548.922 541.374 550.608H296.808C293.448 549.219 290.237 547.748 288.255 544.523L296.264 549.5L417.725 548.946C416.098 540.175 425.452 542.076 432.354 541.762C465.337 540.241 499.45 542.903 532.557 541.762C535.686 540.687 537.502 539.067 539.459 536.512C541.498 482.468 540.532 427.515 540.565 373.149H552.709L552.693 373.14Z" fill="#006938"/>
<path d="M418.542 193.457C419.046 195.97 420.086 200.352 417.989 202.303C381.283 202.344 344.561 202.27 307.847 202.303C303.042 203.394 300.301 205.643 298.741 210.323C298.757 264.59 298.724 318.873 298.741 373.132H286.035C286.026 316.848 286.051 260.539 286.035 204.246C287.793 198.831 291.054 195.722 296.255 193.457C337.015 193.457 377.783 193.474 418.542 193.457Z" fill="#CE2038"/>
<path d="M552.693 373.14H540.548C540.573 318.882 540.532 264.598 540.548 210.331C539.343 205.205 536.495 203.221 531.442 202.311C493.63 202.344 455.801 202.27 417.989 202.311C420.086 200.36 419.046 195.979 418.542 193.465C459.657 193.449 500.796 193.474 541.927 193.457C547.492 195.392 551.223 199.046 552.693 204.792C552.676 260.902 552.718 317.03 552.693 373.132V373.14Z" fill="#BD202E"/>
<path d="M298.74 373.14C298.757 426.663 298.724 480.211 298.74 533.743C299.863 538.025 302.612 540.365 306.749 541.762H432.346C425.444 542.084 416.09 540.183 417.717 548.946L296.255 549.5L288.247 544.523C287.339 543.052 286.868 541.34 286.043 539.827C286.034 484.262 286.051 428.689 286.034 373.14H298.732H298.74Z" fill="#367800"/>
<path d="M417.989 202.311C455.801 202.27 493.622 202.345 531.442 202.311C536.495 203.221 539.343 205.197 540.548 210.331C540.532 264.598 540.573 318.882 540.548 373.14C540.524 427.515 541.481 482.46 539.442 536.504C537.494 539.059 535.669 540.687 532.54 541.754C499.434 542.895 465.32 540.233 432.338 541.754H306.74C302.604 540.357 299.863 538.017 298.732 533.734C298.716 480.203 298.749 426.655 298.732 373.132C298.716 318.873 298.749 264.59 298.732 210.323C300.301 205.651 303.033 203.394 307.838 202.303C344.552 202.27 381.275 202.345 417.981 202.303L417.989 202.311Z" fill="white"/>
<path d="M538.619 373.342C538.594 427.115 538.635 480.897 538.619 534.679L533.37 539.934H306.21C303.3 538.395 300.399 536.483 300.961 532.742L305.656 538.833L309.524 537.724L418.129 537.451C418.319 485.06 417.872 432.661 418.129 380.269C418.129 379.913 419.22 376.785 419.236 373.905C419.236 373.723 419.236 373.532 419.236 373.35H538.619V373.342Z" fill="#006938"/>
<path d="M419.236 373.888C419.22 376.768 418.129 379.897 418.129 380.253C417.872 432.644 418.319 485.044 418.129 537.435L309.524 537.708L305.656 538.817L300.961 532.725C300.953 479.606 300.978 426.453 300.961 373.325L419.236 373.88V373.888Z" fill="#599144"/>
<path d="M538.336 373.14H419.087C419.244 343.055 418.253 312.623 418.534 282.472C434.262 282.513 450.006 282.447 465.733 282.472C466.328 282.05 466.204 279.612 465.18 279.157C463.298 278.322 429.399 279.182 424.049 279.157C417.172 279.496 416.866 275.064 420.185 270.311C445.11 270.278 470.059 270.336 494.992 270.311L495.265 267.268C469.696 266.772 444.094 266.979 418.526 266.995V254.834C449.708 254.842 480.916 254.834 512.107 254.834V243.781H328.553L418.815 242.673L418.542 204.527C456.718 204.494 494.918 204.552 533.102 204.527C535.702 205.577 537.221 206.61 538.344 209.223C538.328 263.862 538.369 318.51 538.344 373.14H538.336Z" fill="#BD202E"/>
<path d="M418.542 204.519L418.815 242.665L328.553 243.772C327.76 243.863 325.646 243.475 325.242 244.045L325.514 254.826C356.524 254.826 387.541 254.818 418.542 254.826V266.987C393.428 267.004 368.305 266.979 343.182 266.987L342.91 270.03C368.66 270.509 394.451 270.344 420.202 270.302C416.883 275.056 417.188 279.487 424.065 279.148C417.774 279.124 375.083 277.669 372.994 279.148C372.54 279.471 372.54 282.141 372.994 282.464C374.852 283.787 412.837 282.447 418.542 282.464C418.261 312.615 419.252 343.047 419.095 373.132C419.095 373.314 419.095 373.504 419.095 373.686L300.953 373.132C300.936 318.319 300.507 263.457 301.506 208.661L306.749 204.511C344.016 204.486 381.291 204.544 418.542 204.511V204.519Z" fill="#CE2038"/>
<path d="M418.542 266.987C444.111 266.971 469.713 266.772 495.281 267.26L495.009 270.302C470.076 270.327 445.126 270.269 420.202 270.302C394.451 270.336 368.66 270.509 342.91 270.03L343.182 266.987C368.297 266.979 393.428 267.004 418.542 266.987Z" fill="white"/>
<path d="M424.057 279.157C429.407 279.182 463.306 278.322 465.188 279.157C466.212 279.612 466.336 282.05 465.741 282.472C450.006 282.447 434.261 282.513 418.542 282.472C412.837 282.456 374.852 283.795 372.994 282.472C372.54 282.15 372.54 279.479 372.994 279.157C375.075 277.677 417.766 279.132 424.065 279.157H424.057Z" fill="white"/>
<path d="M328.6 243.829H512.368V254.895C481.143 254.895 449.908 254.903 418.683 254.895C387.647 254.886 356.594 254.895 325.55 254.895L325.278 244.102C325.683 243.531 327.807 243.92 328.592 243.829H328.6Z" fill="white"/>
<path d="M330.253 252.685L418.963 251.576L418.691 246.039C448.801 246.03 478.936 246.039 509.054 246.039V252.676H330.253V252.685Z" fill="#BD202E"/>
<path d="M418.691 246.038L418.963 251.576L330.253 252.685L328.592 252.411L328.865 246.047C358.801 246.047 388.746 246.055 418.674 246.047L418.691 246.038Z" fill="#CE2038"/>
</g>
<defs>
<clipPath id="clip0_816_540">
<rect width="345.625" height="550.616" fill="white" transform="translate(0 0.383667)"/>
</clipPath>
<clipPath id="clip1_816_540">
<rect width="266.966" height="357.543" fill="white" transform="translate(286.034 193.457)"/>
</clipPath>
</defs>
</svg>
