<svg width="569" height="449" viewBox="0 0 569 449" fill="none" xmlns="http://www.w3.org/2000/svg">
<path d="M371.182 298.492C371.131 277.154 370.063 255.712 370.633 234.343C364.581 234.364 358.342 233.595 352.342 233.512L351.793 97.4371C349.793 91.5082 347.72 85.5792 345.699 79.6607C345.264 78.3835 342.787 69.0799 342.093 69.1111C340.787 71.6862 340.486 74.7597 339.595 77.4386C337.336 84.2086 334.973 90.9786 333.502 97.9875V233.502C321.201 233.45 308.713 234.083 296.36 234.052L295.811 159.354C295.407 158.336 293.013 159.156 291.935 159.073C294.443 152.314 290.463 133.582 292.484 128.245C292.681 127.715 300.609 123.697 302.184 122.409C336.331 94.4363 296.629 22.7594 266.431 60.4825C250.275 80.6679 252.244 118.246 279.178 128.245V158.513C278.027 158.533 275.302 158.076 274.742 159.343V234.042C266.255 234.062 257.736 234.021 249.249 234.042L249.798 143.238C250.762 140.892 253.57 137.995 253.674 135.461C253.726 134.329 249.394 114.061 248.409 113.521C247.829 113.199 241.165 113.261 240.368 114.352C239.735 115.224 235.901 134.381 235.932 135.461C236.025 138.203 239.31 141.785 240.368 144.35V234.042C233.175 234.062 225.942 233.99 218.75 234.042V202.383C221.082 202.32 227.89 196.319 229.279 194.325C236.74 183.64 233.528 168.366 222.346 161.835C221.196 162.697 222.906 178.501 222.066 180.993C221.869 181.585 211.879 187.295 211.257 187.378C210.055 187.534 198.51 182.208 198.231 181.543C197.277 179.331 199.174 163.424 197.951 162.386C180.572 173.475 183.494 191.719 200.448 201.822C200.521 201.863 200.894 203.047 201.557 202.933L201.008 233.481C199.091 233.533 185.836 234.073 185.484 234.872C185.432 255.702 185.546 276.531 185.484 297.35C185.484 297.9 185.484 298.461 185.484 299.011C106.278 243.781 92.1943 126.988 156.664 54.3874C221.133 -18.2136 334.331 -17.6737 398.344 53.2764C463.467 125.452 450.596 242.971 371.182 298.481V298.492Z" fill="#367800"/>
<path d="M371.182 298.492C371.131 277.154 370.063 255.712 370.633 234.343C364.581 234.364 358.342 233.595 352.342 233.512L351.793 97.4371C349.793 91.5082 347.72 85.5792 345.699 79.6607C345.264 78.3835 342.787 69.0799 342.093 69.1111C340.787 71.6862 340.486 74.7597 339.595 77.4386C337.336 84.2086 334.973 90.9786 333.502 97.9875V233.502C321.201 233.45 308.713 234.083 296.36 234.052L295.811 159.354C295.407 158.336 293.013 159.156 291.935 159.073C294.443 152.314 290.463 133.582 292.484 128.245C292.681 127.715 300.609 123.697 302.184 122.409C336.331 94.4363 296.629 22.7594 266.431 60.4825C250.275 80.6679 252.244 118.246 279.178 128.245V158.513C278.027 158.533 275.302 158.076 274.742 159.343V234.042C266.255 234.062 257.736 234.021 249.249 234.042L249.798 143.238C250.762 140.892 253.57 137.995 253.674 135.461C253.726 134.329 249.394 114.061 248.409 113.521C247.829 113.199 241.165 113.261 240.368 114.352C239.735 115.224 235.901 134.381 235.932 135.461C236.025 138.203 239.31 141.785 240.368 144.35V234.042C233.175 234.062 225.942 233.99 218.75 234.042V202.383C221.082 202.32 227.89 196.319 229.279 194.325C236.74 183.64 233.528 168.366 222.346 161.835C221.196 162.697 222.906 178.501 222.066 180.993C221.869 181.585 211.879 187.295 211.257 187.378C210.055 187.534 198.51 182.208 198.231 181.543C197.277 179.331 199.174 163.424 197.951 162.386C180.572 173.475 183.494 191.719 200.448 201.822C200.521 201.863 200.894 203.047 201.557 202.933L201.008 233.481C199.091 233.533 185.836 234.073 185.484 234.872C185.432 255.702 185.546 276.531 185.484 297.35C185.484 297.9 185.484 298.461 185.484 299.011C106.278 243.781 92.1943 126.988 156.664 54.3874C221.133 -18.2136 334.331 -17.6737 398.344 53.2764C463.467 125.452 450.596 242.971 371.182 298.481V298.492Z" fill="#599144"/>
<path d="M339.585 234.063C341.429 234.073 343.284 234.042 345.129 234.063C347.533 234.084 350.497 233.481 352.331 233.512C358.332 233.596 364.581 234.374 370.622 234.343C370.063 255.712 371.13 277.154 371.172 298.492C371.296 348.613 370.156 398.858 370.343 449H186.313C184.903 399.066 185.328 349.007 185.484 299.042C185.484 298.492 185.484 297.931 185.484 297.381L186.593 446.508L277.778 447.899L278.607 234.073C284.515 234.073 290.442 234.063 296.349 234.073C308.702 234.104 321.19 233.461 333.491 233.523C335.315 233.523 337.574 234.063 339.585 234.073V234.063Z" fill="#B8202D"/>
<path d="M339.585 234.063C341.429 234.073 343.284 234.042 345.129 234.063C347.533 234.084 350.497 233.481 352.331 233.512C358.332 233.596 364.581 234.374 370.622 234.343C370.063 255.712 371.13 277.154 371.172 298.492C371.296 348.613 370.156 398.858 370.343 449H186.313C184.903 399.066 185.328 349.007 185.484 299.042C185.484 298.492 185.484 297.931 185.484 297.381L186.593 446.508L277.778 447.899L278.607 234.073C284.515 234.073 290.442 234.063 296.349 234.073C308.702 234.104 321.19 233.461 333.491 233.523C335.315 233.523 337.574 234.063 339.585 234.073V234.063Z" fill="#B8202D"/>
<path d="M204.884 233.502C205.246 233.502 205.63 233.502 205.992 233.502C208.262 233.471 211.216 234.073 213.755 234.052C214.283 234.052 214.335 233.502 214.863 233.502C215.309 233.502 217.361 234.063 218.739 234.052C225.931 234 233.165 234.073 240.357 234.052C243.31 234.052 246.274 234.052 249.228 234.052C257.715 234.032 266.234 234.073 274.721 234.052C276.006 234.052 277.312 234.052 278.597 234.052L277.768 447.879L186.582 446.487L185.473 297.36C185.535 276.541 185.421 255.702 185.473 234.883C185.826 234.083 199.08 233.544 200.997 233.492C202.21 233.46 203.588 233.512 204.873 233.492L204.884 233.502Z" fill="#BD202E"/>
<path d="M204.884 233.502C205.246 233.502 205.63 233.502 205.992 233.502C208.262 233.471 211.216 234.073 213.755 234.052C214.283 234.052 214.335 233.502 214.863 233.502C215.309 233.502 217.361 234.063 218.739 234.052C225.931 234 233.165 234.073 240.357 234.052C243.31 234.052 246.274 234.052 249.228 234.052C257.715 234.032 266.234 234.073 274.721 234.052C276.006 234.052 277.312 234.052 278.597 234.052L277.768 447.879L186.582 446.487L185.473 297.36C185.535 276.541 185.421 255.702 185.473 234.883C185.826 234.083 199.08 233.544 200.997 233.492C202.21 233.46 203.588 233.512 204.873 233.492L204.884 233.502Z" fill="#BD202E"/>
<path d="M352.331 233.502C350.497 233.47 347.533 234.083 345.129 234.052V99.6591C345.191 99.6591 344.849 99.1295 346.238 99.1088C347.626 99.088 348.798 103.013 351.782 97.4474L352.331 233.522V233.502Z" fill="#CF9E2B"/>
<path d="M339.025 99.6592L339.574 234.062C337.564 234.052 335.305 233.512 333.481 233.512V97.9875C336.631 101.757 337.097 99.6177 339.025 99.6488V99.6592Z" fill="#F9CC0E"/>
<path d="M344.02 80.2214L346.238 99.1088C344.849 99.1295 345.191 99.6695 345.129 99.6591C344.797 99.6591 343.357 100.199 342.082 100.209C341.637 100.209 339.999 98.5481 339.864 98.5481C339.481 98.5378 339.098 99.6592 339.035 99.6592C337.118 99.628 336.641 101.767 333.491 97.9978C334.963 90.989 337.336 84.219 339.585 77.449C338.973 79.8268 342.248 80.1279 344.02 80.2214Z" fill="#F5E3D0"/>
<path d="M351.772 97.4371C348.787 103.003 347.668 99.0777 346.227 99.0985L344.01 80.211C344.922 80.2629 344.994 79.9306 345.668 79.6607C347.699 85.5792 349.772 91.5082 351.761 97.4371H351.772Z" fill="#EED2BA"/>
<path d="M345.678 79.6607C345.005 79.9306 344.932 80.2629 344.02 80.211C342.248 80.1175 338.973 79.8164 339.585 77.4386C340.476 74.7597 340.766 71.6758 342.082 69.1111C342.766 69.0799 345.243 78.3835 345.689 79.6607H345.678Z" fill="#D3B12A"/>
<path d="M345.129 99.6591L345.129 234.063C343.284 234.042 341.429 234.073 339.585 234.063L339.035 99.6592C339.108 99.6592 339.481 98.5378 339.864 98.5481C339.999 98.5481 341.637 100.22 342.082 100.209C343.357 100.199 344.797 99.6487 345.129 99.6591Z" fill="#D3B12A"/>
<path d="M279.157 158.533C282.991 158.45 288.017 158.803 291.903 159.084C292.981 159.167 295.385 158.347 295.779 159.364L296.328 234.063C290.421 234.052 284.494 234.063 278.587 234.063C277.302 234.063 275.996 234.063 274.711 234.063V159.364C275.27 158.087 277.996 158.554 279.146 158.533H279.157Z" fill="#8D191C"/>
<path d="M291.914 159.084C288.017 158.793 283.001 158.45 279.167 158.533V128.266C252.233 118.277 250.264 80.6887 266.42 60.5033C296.619 22.7803 336.32 94.4572 302.173 122.43C300.598 123.718 292.67 127.736 292.473 128.266C290.452 133.603 294.422 152.334 291.924 159.094L291.914 159.084Z" fill="white"/>
<path d="M273.892 56.8898L265.85 74.3859C261.954 92.9411 270.12 109.908 282.753 122.98C252.264 112.597 254.575 77.1583 273.882 56.8898H273.892Z" fill="#9CA6A4"/>
<path d="M309.376 84.6656C311.552 99.6801 304.298 116.418 289.976 122.43C301.002 112.628 308.112 99.5347 309.376 84.6656Z" fill="#9CA6A4"/>
<path d="M249.228 234.063C246.274 234.063 243.31 234.063 240.357 234.063V144.37C239.31 141.806 236.015 138.223 235.921 135.482C235.88 134.402 239.725 115.245 240.357 114.373C241.155 113.282 247.808 113.22 248.399 113.542C249.393 114.082 253.715 134.35 253.663 135.482C253.549 138.016 250.741 140.913 249.787 143.259L249.238 234.063H249.228Z" fill="white"/>
<path d="M218.739 202.404C218.677 202.404 218.915 201.282 218.459 201.292C212.469 201.396 206.365 200.794 200.448 201.843C183.494 191.74 180.582 173.496 197.95 162.406C199.173 163.445 197.277 179.352 198.23 181.564C198.51 182.218 210.055 187.555 211.257 187.399C211.879 187.316 221.869 181.605 222.066 181.014C222.895 178.522 221.185 162.718 222.345 161.856C233.517 168.387 236.73 183.661 229.278 194.346C227.89 196.34 221.071 202.341 218.749 202.404H218.739Z" fill="white"/>
<path d="M218.739 203.515V234.063C217.35 234.063 215.309 233.502 214.863 233.512C214.987 227.988 216.552 211.728 214.863 207.128C213.609 203.733 207.899 203.961 205.992 205.737C202.914 208.613 204.469 228.424 204.884 233.502C203.588 233.523 202.22 233.471 201.007 233.502L201.557 202.954C202.344 202.154 217.122 201.635 218.739 203.504V203.515Z" fill="white"/>
<path d="M218.739 202.404L218.739 203.515C217.122 201.635 202.344 202.165 201.557 202.964C200.893 203.079 200.52 201.895 200.448 201.853C206.365 200.794 212.48 201.396 218.459 201.303C218.905 201.303 218.677 202.414 218.739 202.414L218.739 202.404Z" fill="#9CA6A4"/>
<path d="M213.754 234.063C211.215 234.083 208.262 233.471 205.992 233.512V208.239L213.474 207.959L213.754 234.063Z" fill="white"/>
<path d="M214.863 233.502C214.335 233.502 214.283 234.052 213.755 234.052L213.474 207.948L205.992 208.229L205.992 233.502C205.63 233.502 205.246 233.502 204.884 233.502C204.469 228.424 202.914 208.603 205.992 205.737C206.873 207.741 211.35 206.744 213.195 206.567L205.992 205.737C207.899 203.961 213.609 203.733 214.863 207.128C216.552 211.728 214.987 227.988 214.863 233.512L214.863 233.502Z" fill="#AFB2B2"/>
<path d="M213.195 206.567L205.992 205.737C206.863 207.741 211.34 206.744 213.195 206.567Z" fill="white"/>
<circle cx="29" cy="18" r="6" fill="#A9C296"/>
<circle cx="109" cy="18" r="6" fill="#A9C296"/>
<circle cx="49" cy="18" r="6" fill="#A9C296"/>
<circle cx="129" cy="18" r="6" fill="#A9C296"/>
<circle cx="69" cy="18" r="6" fill="#A9C296"/>
<circle cx="149" cy="18" r="6" fill="#A9C296"/>
<circle cx="89" cy="18" r="6" fill="#A9C296"/>
<circle cx="169" cy="18" r="6" fill="#A9C296"/>
<circle cx="29" cy="94" r="6" fill="#A9C296"/>
<circle cx="109" cy="94" r="6" fill="#A9C296"/>
<circle cx="49" cy="94" r="6" fill="#A9C296"/>
<circle cx="129" cy="94" r="6" fill="#A9C296"/>
<circle cx="69" cy="94" r="6" fill="#A9C296"/>
<circle cx="149" cy="94" r="6" fill="#A9C296"/>
<circle cx="89" cy="94" r="6" fill="#A9C296"/>
<circle cx="169" cy="94" r="6" fill="#A9C296"/>
<circle cx="29" cy="56" r="6" fill="#A9C296"/>
<circle cx="109" cy="56" r="6" fill="#A9C296"/>
<circle cx="49" cy="56" r="6" fill="#A9C296"/>
<circle cx="129" cy="56" r="6" fill="#A9C296"/>
<circle cx="69" cy="56" r="6" fill="#A9C296"/>
<circle cx="149" cy="56" r="6" fill="#A9C296"/>
<circle cx="89" cy="56" r="6" fill="#A9C296"/>
<circle cx="169" cy="56" r="6" fill="#A9C296"/>
<circle cx="29" cy="132" r="6" fill="#A9C296"/>
<circle cx="109" cy="132" r="6" fill="#A9C296"/>
<circle cx="49" cy="132" r="6" fill="#A9C296"/>
<circle cx="129" cy="132" r="6" fill="#A9C296"/>
<circle cx="69" cy="132" r="6" fill="#A9C296"/>
<circle cx="149" cy="132" r="6" fill="#A9C296"/>
<circle cx="89" cy="132" r="6" fill="#A9C296"/>
<circle cx="169" cy="132" r="6" fill="#A9C296"/>
<circle cx="29" cy="37" r="6" fill="#A9C296"/>
<circle cx="109" cy="37" r="6" fill="#A9C296"/>
<circle cx="49" cy="37" r="6" fill="#A9C296"/>
<circle cx="129" cy="37" r="6" fill="#A9C296"/>
<circle cx="69" cy="37" r="6" fill="#A9C296"/>
<circle cx="149" cy="37" r="6" fill="#A9C296"/>
<circle cx="89" cy="37" r="6" fill="#A9C296"/>
<circle cx="169" cy="37" r="6" fill="#A9C296"/>
<circle cx="29" cy="113" r="6" fill="#A9C296"/>
<circle cx="109" cy="113" r="6" fill="#A9C296"/>
<circle cx="49" cy="113" r="6" fill="#A9C296"/>
<circle cx="129" cy="113" r="6" fill="#A9C296"/>
<circle cx="69" cy="113" r="6" fill="#A9C296"/>
<circle cx="149" cy="113" r="6" fill="#A9C296"/>
<circle cx="89" cy="113" r="6" fill="#A9C296"/>
<circle cx="169" cy="113" r="6" fill="#A9C296"/>
<circle cx="29" cy="75" r="6" fill="#A9C296"/>
<circle cx="109" cy="75" r="6" fill="#A9C296"/>
<circle cx="49" cy="75" r="6" fill="#A9C296"/>
<circle cx="129" cy="75" r="6" fill="#A9C296"/>
<circle cx="69" cy="75" r="6" fill="#A9C296"/>
<circle cx="149" cy="75" r="6" fill="#A9C296"/>
<circle cx="89" cy="75" r="6" fill="#A9C296"/>
<circle cx="169" cy="75" r="6" fill="#A9C296"/>
<circle cx="29" cy="151" r="6" fill="#A9C296"/>
<circle cx="109" cy="151" r="6" fill="#A9C296"/>
<circle cx="49" cy="151" r="6" fill="#A9C296"/>
<circle cx="129" cy="151" r="6" fill="#A9C296"/>
<circle cx="69" cy="151" r="6" fill="#A9C296"/>
<circle cx="149" cy="151" r="6" fill="#A9C296"/>
<circle cx="89" cy="151" r="6" fill="#A9C296"/>
<circle cx="169" cy="151" r="6" fill="#A9C296"/>
<path d="M67.5659 220.528C63.579 221.722 59.5781 222.919 55.5912 224.112L18.728 100.944C16.261 97.8451 10.3402 94.2572 9.08769 90.5305C8.5879 89.0643 5.90419 61.2034 6.39905 59.7503C7.02811 57.9307 15.9835 55.1572 16.9131 55.3606C18.478 55.7001 32.6417 81.7875 33.0369 83.3627C33.9243 86.8879 31.324 92.0007 31.0014 95.6084L67.5799 220.524L67.5659 220.528Z" fill="#599144"/>
<path d="M526.787 342.199C526.669 342.177 527.518 340.136 526.65 339.994C515.259 338.071 503.901 334.769 492.313 334.662C463.75 309.515 464.685 273.909 501.533 259.039C503.484 261.44 494.26 290.916 495.285 295.445C495.584 296.784 515.579 310.985 517.913 311.115C519.121 311.178 540.079 303.89 540.662 302.838C543.115 298.409 545.466 267.853 547.971 266.63C566.837 282.962 567.522 313.046 549.617 330.658C546.279 333.945 531.229 342.906 526.807 342.202L526.787 342.199Z" fill="#599144"/>
<path d="M526.393 344.304L515.583 402.199C512.951 401.707 509.279 399.922 508.431 399.784C510.622 389.359 519.342 359.096 517.767 349.781C516.592 342.902 505.687 341.314 501.444 344.004C494.592 348.366 490.528 386.463 489.517 396.232C487.054 395.813 484.48 395.231 482.17 394.86L494.021 337.161C495.797 335.924 523.993 340.17 526.397 344.285L526.393 344.304Z" fill="#599144"/>
<path d="M526.787 342.199L526.394 344.305C523.994 340.171 495.794 335.944 494.018 337.18C492.72 337.162 492.432 334.787 492.309 334.682C503.901 334.769 515.278 338.075 526.646 340.014C527.491 340.172 526.665 342.197 526.783 342.219L526.787 342.199Z" fill="#9CA6A4"/>
<path d="M506.136 400.435C501.316 399.575 495.934 397.369 491.617 396.644L500.56 348.747L514.842 350.864L506.136 400.435Z" fill="#599144"/>
<path d="M508.435 399.764C507.433 399.577 507.14 400.602 506.138 400.415L514.845 350.844L500.562 348.727L491.619 396.625C490.932 396.496 490.205 396.36 489.517 396.232C490.528 386.463 494.596 348.346 501.444 344.004C502.405 348.114 511.244 347.809 514.803 348.128L501.444 344.004C505.687 341.314 516.592 342.902 517.767 349.781C519.342 359.096 510.622 389.359 508.431 399.784L508.435 399.764Z" fill="#AFB2B2"/>
<path d="M501.445 344.004L514.804 348.128C511.225 347.806 502.386 348.11 501.445 344.004Z" fill="white"/>
</svg>
