<?xml version="1.0" encoding="UTF-8"?>
<svg version="1.1" xmlns="http://www.w3.org/2000/svg" width="258" height="294">
<path d="M0 0 C85.14 0 170.28 0 258 0 C258 97.02 258 194.04 258 294 C172.86 294 87.72 294 0 294 C0 196.98 0 99.96 0 0 Z " fill="#FEFEFE" transform="translate(0,0)"/>
<path d="M0 0 C1.75824097 0.00966797 1.75824097 0.00966797 3.55200195 0.01953125 C27.19437382 0.51117097 47.8087815 10.12638152 65 26.1875 C83.37729479 45.51995564 90.55499669 67.85791697 90.34570312 94.18530273 C90.10292476 103.73695265 89.0782776 112.48805103 85.875 121.5 C85.63894043 122.1688623 85.40288086 122.83772461 85.15966797 123.52685547 C79.85318099 137.98198601 69.84403812 155.77324321 55.77194214 163.12005615 C52.51899243 165.28460577 52.51899243 165.28460577 52.11550903 169.16998291 C52.08046836 170.66793189 52.07830617 172.16686845 52.10205078 173.66503906 C52.09142105 174.4849231 52.08079132 175.30480713 52.06983948 176.14953613 C52.04176744 178.85552193 52.0558522 181.55955997 52.0703125 184.265625 C52.05906372 186.14322617 52.04518367 188.02081327 52.02877808 189.89837646 C51.99269729 194.83704567 51.99237194 199.77509637 51.99945068 204.71386719 C52.0003627 209.75467029 51.96751784 214.79524048 51.9375 219.8359375 C51.88359764 229.72402309 51.86746078 239.61178375 51.875 249.5 C38.59312591 249.52312079 25.31125657 249.54091374 12.02936649 249.55181217 C5.8627508 249.55704158 -0.30385118 249.56414027 -6.47045898 249.57543945 C-12.41616006 249.58626629 -18.36184789 249.5922764 -24.30755806 249.59487724 C-26.58146943 249.59673186 -28.85538004 249.60035317 -31.12928581 249.60573006 C-34.3022712 249.61293778 -37.47520117 249.61399106 -40.64819336 249.61352539 C-41.59837341 249.61712067 -42.54855347 249.62071594 -43.52752686 249.62442017 C-50.01094784 249.61405216 -50.01094784 249.61405216 -51.125 248.5 C-51.19159036 245.96073271 -51.19434158 243.44858958 -51.15576172 240.91015625 C-51.13964981 239.26107152 -51.12395314 237.6119827 -51.10861206 235.96289062 C-51.0943046 234.64381714 -51.0943046 234.64381714 -51.0797081 233.2980957 C-51.02824795 227.67176469 -51.03392172 222.04513831 -51.02834892 216.41860962 C-51.02014677 211.47354467 -50.99252275 206.53005756 -50.92285156 201.58544922 C-50.8566076 196.80493882 -50.84441784 192.02694191 -50.86810684 187.24606323 C-50.86749819 185.42801836 -50.84751299 183.60986789 -50.80733871 181.79226685 C-50.34244568 171.45376036 -50.34244568 171.45376036 -54.55348206 162.43009949 C-57.30903912 160.17146453 -60.07671683 158.33246221 -63.125 156.5 C-75.85801225 144.85392577 -82.62928879 128.75287753 -87.125 112.5 C-87.32222656 111.79085449 -87.51945312 111.08170898 -87.72265625 110.35107422 C-89.24372935 104.30049356 -89.43590722 98.46924651 -89.375 92.25 C-89.36678223 91.23220459 -89.35856445 90.21440918 -89.35009766 89.16577148 C-89.02716686 67.40266658 -82.14875504 48.28506963 -68.125 31.5 C-67.60421875 30.83355469 -67.0834375 30.16710937 -66.546875 29.48046875 C-50.66038106 9.93082693 -24.68256051 -0.14403712 0 0 Z " fill="#67904F" transform="translate(125.125,26.5)"/>
<path d="M0 0 C3.96 0 7.92 0 12 0 C12 13.53 12 27.06 12 41 C23.62246007 40.9604984 23.62246007 40.9604984 35.24487305 40.90991211 C36.70882087 40.90698974 38.17276951 40.90444194 39.63671875 40.90234375 C40.3884436 40.89722778 41.14016846 40.89211182 41.91467285 40.88684082 C45.83234175 40.88619252 49.11780362 41.22356072 53 42 C53 81.27 53 120.54 53 161 C36.190625 161.020625 19.38125 161.04125 2.0625 161.0625 C-5.91151978 161.07615601 -5.91151978 161.07615601 -14.04663086 161.09008789 C-20.51672363 161.09460449 -20.51672363 161.09460449 -23.54151917 161.09544373 C-25.66314402 161.09698364 -27.78476797 161.10050951 -29.90638733 161.10557556 C-33.11200491 161.11285018 -36.31756881 161.11390751 -39.52319336 161.11352539 C-40.47516822 161.1171235 -41.42714308 161.12072161 -42.40796566 161.12442875 C-48.88597366 161.11402634 -48.88597366 161.11402634 -50 160 C-50.09798388 158.4714651 -50.12631831 156.93841036 -50.12698364 155.40673828 C-50.12980347 154.4139386 -50.13262329 153.42113892 -50.13552856 152.39825439 C-50.13350433 151.30003357 -50.1314801 150.20181274 -50.12939453 149.0703125 C-50.13114685 147.92085144 -50.13289917 146.77139038 -50.13470459 145.58709717 C-50.1391259 141.766383 -50.13618413 137.94571468 -50.1328125 134.125 C-50.13348546 131.48323559 -50.13445542 128.84147123 -50.13571167 126.19970703 C-50.13753321 120.65461729 -50.13512747 115.10954085 -50.13037109 109.56445312 C-50.1249285 103.14505256 -50.12669117 96.72568375 -50.1321975 90.30628395 C-50.13727426 84.14199017 -50.13674711 77.97771052 -50.13381577 71.81341553 C-50.13314622 69.1850382 -50.13397588 66.55666008 -50.13629532 63.92828369 C-50.13882019 60.26206277 -50.13498357 56.59590378 -50.12939453 52.9296875 C-50.13141876 51.83146667 -50.13344299 50.73324585 -50.13552856 49.60174561 C-50.13270874 48.60894592 -50.12988892 47.61614624 -50.12698364 46.59326172 C-50.12660662 45.72530975 -50.12622959 44.85735779 -50.12584114 43.96310425 C-50 42 -50 42 -49 41 C-47.46411744 40.93618289 -45.92522849 40.94289755 -44.38842773 40.97827148 C-43.40748642 40.99836777 -42.4265451 41.01846405 -41.4158783 41.03916931 C-40.3492244 41.06620438 -39.2825705 41.09323944 -38.18359375 41.12109375 C-37.0974025 41.14470474 -36.01121124 41.16831573 -34.8921051 41.19264221 C-31.40711091 41.26949741 -27.92232684 41.35342726 -24.4375 41.4375 C-22.08139065 41.49069882 -19.7252709 41.54343934 -17.36914062 41.59570312 C-11.57925472 41.72427655 -5.78970673 41.86240185 0 42 C0 28.14 0 14.28 0 0 Z " fill="#AB3134" transform="translate(124,115)"/>
<path d="M0 0 C5.16279203 3.16807693 8.02371668 7.55929171 10.25 13.125 C11.73175848 20.78075217 12.33329406 28.37670408 8.28125 35.30859375 C6.15573341 38.11453486 3.89348809 39.98713872 1 42 C0.34 42 -0.32 42 -1 42 C-1 47.94 -1 53.88 -1 60 C-3.64 60 -6.28 60 -9 60 C-9 54.06 -9 48.12 -9 42 C-10.32 41.67 -11.64 41.34 -13 41 C-14.6328125 39.546875 -14.6328125 39.546875 -16.125 37.75 C-16.62257813 37.16734375 -17.12015625 36.5846875 -17.6328125 35.984375 C-22.21144178 29.33882164 -21.71976733 21.77516106 -21 14 C-19.97446656 11.10621215 -18.90430548 9.4398914 -17 7 C-16.34 7.33 -15.68 7.66 -15 8 C-15.495 8.886875 -15.99 9.77375 -16.5 10.6875 C-19.28058454 17.1755306 -19.01264112 24.96207663 -16.8125 31.5625 C-14.8188387 34.24363071 -12.72766338 36.08326357 -10 38 C-10.98529265 36.00722342 -11.98005536 34.03544906 -13.0703125 32.09765625 C-16.70910151 25.07614116 -17.51203207 17.27915197 -15.31640625 9.61328125 C-14.5 7.6875 -14.5 7.6875 -13 5 C-13.99 5 -14.98 5 -16 5 C-10.36632234 0.22362111 -7.64700802 -1.8859673 0 0 Z " fill="#F9F9F8" transform="translate(135,55)"/>
<path d="M0 0 C1.65 0 3.3 0 5 0 C8.77536828 8.67855707 8.38359592 17.23426421 8.29296875 26.50390625 C8.28736481 28.19497804 8.28309849 29.88605475 8.28010559 31.57713318 C8.26871953 36.00112653 8.23930702 40.42481853 8.20599365 44.84869385 C8.17515732 49.37369716 8.16157143 53.89874975 8.14648438 58.42382812 C8.11443055 67.28268357 8.06331083 76.1413166 8 85 C4.37 85 0.74 85 -3 85 C-3.0697072 75.24631336 -3.12291612 65.49268662 -3.15543652 55.738801 C-3.17104973 51.20899681 -3.19220805 46.67936387 -3.22631836 42.1496582 C-3.25906753 37.77299773 -3.27688564 33.39650132 -3.28463173 29.01972771 C-3.29014744 27.35527911 -3.30091792 25.69083884 -3.31719017 24.02646065 C-3.39682421 15.53874102 -3.45149556 7.93406073 0 0 Z " fill="#C19F44" transform="translate(159,71)"/>
<path d="M0 0 C3.96 0 7.92 0 12 0 C12 13.86 12 27.72 12 42 C8.04 42 4.08 42 0 42 C0 28.14 0 14.28 0 0 Z " fill="#802723" transform="translate(124,115)"/>
<path d="M0 0 C4.875 3.75 4.875 3.75 6 6 C6.40282133 11.23667727 5.83087029 14.55148954 3 19 C2.319375 19.36222656 1.63875 19.72445312 0.9375 20.09765625 C-2.22551621 23.20327902 -1.67754489 26.92911555 -1.75 31.1875 C-1.79447266 32.4549707 -1.79447266 32.4549707 -1.83984375 33.74804688 C-1.9104699 35.83151822 -1.95750795 37.91576506 -2 40 C-5.3 39.67 -8.6 39.34 -12 39 C-12.00257812 37.84242188 -12.00515625 36.68484375 -12.0078125 35.4921875 C-12.04535153 33.95308709 -12.08449933 32.41402533 -12.125 30.875 C-12.12242188 30.11445313 -12.11984375 29.35390625 -12.1171875 28.5703125 C-12.26934772 24.15766599 -12.75625408 21.76043015 -15.9921875 18.6328125 C-16.98476562 17.76398438 -17.97734375 16.89515625 -19 16 C-20.20190901 12.39427296 -20.32670315 9.7897565 -20 6 C-18.125 3.0625 -18.125 3.0625 -16 1 C-15.34 1 -14.68 1 -14 1 C-14 4.3 -14 7.6 -14 11 C-12.411875 11.20625 -10.82375 11.4125 -9.1875 11.625 C-8.29417969 11.74101562 -7.40085937 11.85703125 -6.48046875 11.9765625 C-3.74309609 12.23500743 -3.74309609 12.23500743 -1 10 C-0.41810734 7.57478506 -0.41810734 7.57478506 -0.3125 4.875 C-0.24675781 3.96492188 -0.18101563 3.05484375 -0.11328125 2.1171875 C-0.07589844 1.41851562 -0.03851563 0.71984375 0 0 Z " fill="#FAFBF9" transform="translate(95,117)"/>
<path d="M0 0 C1.65 0 3.3 0 5 0 C6.42258812 3.82320557 7.24042276 6.91281305 7 11 C5.02 11 3.04 11 1 11 C1 35.42 1 59.84 1 85 C-0.32 85 -1.64 85 -3 85 C-3.0697072 75.24631336 -3.12291612 65.49268662 -3.15543652 55.738801 C-3.17104973 51.20899681 -3.19220805 46.67936387 -3.22631836 42.1496582 C-3.25906753 37.77299773 -3.27688564 33.39650132 -3.28463173 29.01972771 C-3.29014744 27.35527911 -3.30091792 25.69083884 -3.31719017 24.02646065 C-3.39682421 15.53874102 -3.45149556 7.93406073 0 0 Z " fill="#DCC346" transform="translate(159,71)"/>
<path d="M0 0 C1.65 0 3.3 0 5 0 C6.58455205 4.85269066 7.31046812 8.8255313 7 14 C6.67 14.33 6.34 14.66 6 15 C5.87718048 16.62579218 5.82217496 18.25677004 5.79467773 19.88696289 C5.77473251 20.92796646 5.75478729 21.96897003 5.73423767 23.04151917 C5.71752518 24.1737944 5.70081268 25.30606964 5.68359375 26.47265625 C5.66281265 27.62543564 5.64203156 28.77821503 5.62062073 29.96592712 C5.55500036 33.66472157 5.49618245 37.36358959 5.4375 41.0625 C5.39432665 43.56315879 5.35071276 46.06381001 5.30664062 48.56445312 C5.19930632 54.70955662 5.09756357 60.85473404 5 67 C3.35 67 1.7 67 0 67 C-0.0154612 66.04826401 -0.0154612 66.04826401 -0.03123474 65.07730103 C-0.13916135 58.49153038 -0.25377035 51.90590041 -0.37231445 45.3203125 C-0.41570779 42.86038141 -0.45737956 40.40041935 -0.49731445 37.94042969 C-0.55491057 34.41071216 -0.61863557 30.88115124 -0.68359375 27.3515625 C-0.70030624 26.24632233 -0.71701874 25.14108215 -0.73423767 24.00234985 C-0.75418289 22.98144257 -0.77412811 21.96053528 -0.79467773 20.90869141 C-0.81022202 20.00712311 -0.8257663 19.10555481 -0.84178162 18.17666626 C-0.86435092 15.95363699 -0.86435092 15.95363699 -2 14 C-2.42484112 8.97106679 -2.35785972 4.5683532 0 0 Z " fill="#FAFAF8" transform="translate(105,90)"/>
<path d="M0 0 C0.99 0 1.98 0 3 0 C3 24.42 3 48.84 3 74 C2.01 74 1.02 74 0 74 C0 49.58 0 25.16 0 0 Z " fill="#CDB247" transform="translate(160,82)"/>
<path d="M0 0 C3.96 0 7.92 0 12 0 C11.67 6.27 11.34 12.54 11 19 C7.7 18.67 4.4 18.34 1 18 C0.67 12.06 0.34 6.12 0 0 Z " fill="#DDDDDB" transform="translate(82,138)"/>
<path d="M0 0 C0.33 0.66 0.66 1.32 1 2 C0.525625 2.763125 0.05125 3.52625 -0.4375 4.3125 C-3.1428075 9.50820739 -2.81450277 15.34302374 -2 21 C-0.37878734 25.25085818 1.67214528 29.09874763 4 33 C4.33 33.66 4.66 34.32 5 35 C-0.03372844 33.56179187 -1.98955889 31.09754485 -5 27 C-7.05732631 20.82802106 -7.20420903 12.78808618 -4.4375 6.8125 C-3.963125 5.884375 -3.48875 4.95625 -3 4 C-3.33 3.34 -3.66 2.68 -4 2 C-2.68 1.34 -1.36 0.68 0 0 Z " fill="#ACB3B2" transform="translate(122,59)"/>
<path d="M0 0 C1.65 0 3.3 0 5 0 C6.42258812 3.82320557 7.24042276 6.91281305 7 11 C4.03 11 1.06 11 -2 11 C-2.19622241 6.78121808 -1.80230168 3.82989106 0 0 Z " fill="#EDDFCB" transform="translate(159,71)"/>
<path d="M0 0 C1.32 0 2.64 0 4 0 C4 4.62 4 9.24 4 14 C2.68 14 1.36 14 0 14 C0 9.38 0 4.76 0 0 Z " fill="#FDFDFD" transform="translate(86,142)"/>
<path d="M0 0 C0.66 0.33 1.32 0.66 2 1 C1.505 1.886875 1.01 2.77375 0.5 3.6875 C-2.25939466 10.03931412 -1.98352084 18.42558817 0 25 C-0.99 25 -1.98 25 -3 25 C-5.0038625 18.98841249 -5.2324085 10.50348444 -3.10546875 4.45703125 C-2 2.5625 -2 2.5625 0 0 Z " fill="#EEF1EE" transform="translate(118,62)"/>
<path d="M0 0 C2.56616632 3.84924948 2.55097676 6.4349304 3 11 C2.01 10.67 1.02 10.34 0 10 C0 6.7 0 3.4 0 0 Z " fill="#DDCDB1" transform="translate(163,71)"/>
</svg>
