<?xml version="1.0" encoding="UTF-8"?>
<svg version="1.1" xmlns="http://www.w3.org/2000/svg" width="274" height="294">
<path d="M0 0 C90.42 0 180.84 0 274 0 C274 97.02 274 194.04 274 294 C183.58 294 93.16 294 0 294 C0 196.98 0 99.96 0 0 Z " fill="#66904E" transform="translate(0,0)"/>
<path d="M0 0 C90.42 0 180.84 0 274 0 C274 97.02 274 194.04 274 294 C183.58 294 93.16 294 0 294 C0 196.98 0 99.96 0 0 Z M122.55615234 23.08056641 C90.41652962 24.55486103 61.0349062 43.79247309 39.89404297 66.81298828 C30.38552364 77.79227626 23.50579781 90.62978255 18 104 C17.59265625 104.98742187 17.1853125 105.97484375 16.765625 106.9921875 C5.36774969 137.94180277 7.58699499 172.74912389 21.15478516 202.53515625 C36.52359781 234.67615597 62.50308771 258.76465279 96.3125 270.75 C104.40905506 273.32463675 112.61620269 274.71685419 121 276 C121.94488281 276.18691406 122.88976562 276.37382812 123.86328125 276.56640625 C135.59828292 278.18855468 148.49918569 277.75331215 160 275 C160.68739258 274.84402344 161.37478516 274.68804687 162.08300781 274.52734375 C196.29509653 266.6825336 225.88968539 247.76112995 245 218 C262.88544948 189.0674479 269.30107432 153.97172284 261.4453125 120.64697266 C258.4200896 108.68380341 254.14201571 97.69699104 248 87 C247.48397217 86.09991211 247.48397217 86.09991211 246.95751953 85.18164062 C229.25951875 54.91764675 201.33711272 35.57481015 168 26 C166.84886719 25.65839844 165.69773438 25.31679688 164.51171875 24.96484375 C150.85719073 21.57877279 136.49971907 22.62088838 122.55615234 23.08056641 Z " fill="#FEFEFE" transform="translate(0,0)"/>
<path d="M0 0 C2.33241547 1.26599818 4.30947713 2.51541488 6.4375 4.0625 C7.76043449 4.98361807 9.0847476 5.90275811 10.41015625 6.8203125 C11.13605957 7.32723633 11.86196289 7.83416016 12.60986328 8.35644531 C17.1399833 11.47153908 21.76377453 14.44441478 26.375 17.4375 C27.35936035 18.07888916 28.3437207 18.72027832 29.35791016 19.38110352 C34.61596363 22.80677872 39.88369436 26.21691498 45.16040039 29.61376953 C63.29442939 41.29442939 63.29442939 41.29442939 67 45 C67.04248047 48.31225586 67.04248047 48.31225586 66 52 C63.75708848 54.03998143 61.86735231 55.45008057 59.3203125 57.00390625 C57.85155762 57.95538209 56.38315232 58.90739772 54.91503906 59.85986328 C54.12150024 60.36398743 53.32796143 60.86811157 52.51037598 61.38751221 C48.0303178 64.26518439 43.64558858 67.28428689 39.2421875 70.27734375 C37.36262713 71.54588248 35.48241247 72.81345227 33.6015625 74.08007812 C32.66086914 74.71373291 31.72017578 75.3473877 30.75097656 76.00024414 C29.32736816 76.95918579 29.32736816 76.95918579 27.875 77.9375 C25.92704028 79.25058718 23.97912339 80.56373788 22.03125 81.87695312 C11.74202861 88.81221512 11.74202861 88.81221512 9.08123779 90.59420776 C7.78270832 91.47131208 6.4915744 92.35959165 5.21221924 93.26443481 C1.29371061 96.01055721 -1.17873914 96.72773749 -6 96 C-8.80226595 93.51004839 -9.007209 91.92734027 -9.38095093 88.16038513 C-9.39875853 86.58155 -9.39997534 85.00247551 -9.38818359 83.42358398 C-9.39344055 82.55975098 -9.39869751 81.69591797 -9.40411377 80.8059082 C-9.41731066 77.95245245 -9.40857756 75.09955511 -9.3984375 72.24609375 C-9.40045814 70.26359449 -9.40336949 68.28109596 -9.40713501 66.29859924 C-9.41155779 62.14503905 -9.40512805 57.99167246 -9.39111328 53.83813477 C-9.37401033 48.50914088 -9.38386997 43.1805999 -9.40183067 37.85162258 C-9.41266021 33.75873895 -9.40922617 29.66596309 -9.4014473 25.57307625 C-9.39944357 23.60783904 -9.40191059 21.64259211 -9.40888596 19.67736626 C-9.41648798 16.93365343 -9.40491439 14.19067917 -9.38818359 11.44702148 C-9.39425629 10.63187576 -9.40032898 9.81673004 -9.40658569 8.97688293 C-9.34470003 3.51068475 -9.34470003 3.51068475 -7.64981079 0.99964905 C-4.94981142 -0.63632752 -3.09662502 -0.42517452 0 0 Z " fill="#FDF8F7" transform="translate(81,102)"/>
<path d="M0 0 C1.1653125 0.00515625 2.330625 0.0103125 3.53125 0.015625 C4.6965625 0.01046875 5.861875 0.0053125 7.0625 0 C10.03125 0.265625 10.03125 0.265625 12.03125 2.265625 C12.23022107 5.32856492 12.30387319 8.30112953 12.29003906 11.36523438 C12.2935437 12.30841019 12.29704834 13.251586 12.30065918 14.2233429 C12.30948728 17.35209435 12.30362352 20.4806211 12.296875 23.609375 C12.29822134 25.7764897 12.30016161 27.94360411 12.30267334 30.11071777 C12.30562607 34.65701162 12.30132217 39.20322698 12.29199219 43.74951172 C12.28059761 49.58750403 12.28715628 55.42531247 12.29913712 61.26329803 C12.30635169 65.73957717 12.30406964 70.21581246 12.29888153 74.6920929 C12.29754392 76.84515911 12.29919663 78.99822927 12.30384064 81.15129089 C12.30889924 84.15630698 12.30120497 87.16102205 12.29003906 90.16601562 C12.29408752 91.06270462 12.29813599 91.95939362 12.30230713 92.883255 C12.25977753 99.03709747 12.25977753 99.03709747 10.03125 101.265625 C7.0625 101.53125 7.0625 101.53125 3.53125 101.515625 C2.3659375 101.52078125 1.200625 101.5259375 0 101.53125 C-2.96875 101.265625 -2.96875 101.265625 -4.96875 99.265625 C-5.16772107 96.20268508 -5.24137319 93.23012047 -5.22753906 90.16601562 C-5.2310437 89.22283981 -5.23454834 88.279664 -5.23815918 87.3079071 C-5.24698728 84.17915565 -5.24112352 81.0506289 -5.234375 77.921875 C-5.23572134 75.7547603 -5.23766161 73.58764589 -5.24017334 71.42053223 C-5.24312607 66.87423838 -5.23882217 62.32802302 -5.22949219 57.78173828 C-5.21809761 51.94374597 -5.22465628 46.10593753 -5.23663712 40.26795197 C-5.24385169 35.79167283 -5.24156964 31.31543754 -5.23638153 26.8391571 C-5.23504392 24.68609089 -5.23669663 22.53302073 -5.24134064 20.37995911 C-5.24639924 17.37494302 -5.23870497 14.37022795 -5.22753906 11.36523438 C-5.23158752 10.46854538 -5.23563599 9.57185638 -5.23980713 8.647995 C-5.18324539 0.46376406 -5.18324539 0.46376406 0 0 Z " fill="#FAF6F4" transform="translate(184.96875,98.734375)"/>
<path d="M0 0 C1.76150391 -0.02126953 1.76150391 -0.02126953 3.55859375 -0.04296875 C6.5625 0.1875 6.5625 0.1875 8.5625 2.1875 C8.75624626 5.28620849 8.82461064 8.29526843 8.80541992 11.39477539 C8.80731827 12.34931107 8.80921661 13.30384674 8.81117249 14.28730774 C8.81488767 17.45333987 8.80416622 20.61914438 8.79296875 23.78515625 C8.79177735 25.97708611 8.7913237 28.16901649 8.7915802 30.36094666 C8.7900141 34.95851835 8.78171416 39.55601231 8.76831055 44.15356445 C8.75131055 50.06111525 8.74749641 55.9685806 8.74825573 61.87615299 C8.74798445 66.40299808 8.74251021 70.9298243 8.73525429 75.45666313 C8.73206146 77.63567398 8.73009879 79.81468697 8.72936058 81.99370003 C8.72720406 85.03237716 8.7184751 88.07096173 8.70776367 91.10961914 C8.70844345 92.47407166 8.70844345 92.47407166 8.70913696 93.86608887 C8.67697391 100.07302609 8.67697391 100.07302609 7.5625 101.1875 C5.23089945 101.28659302 2.89620058 101.31720504 0.5625 101.3125 C-0.71625 101.31507813 -1.995 101.31765625 -3.3125 101.3203125 C-6.4375 101.1875 -6.4375 101.1875 -7.4375 100.1875 C-7.53815628 97.11831812 -7.57364443 94.07159724 -7.56689453 91.00195312 C-7.56864685 90.03780991 -7.57039917 89.07366669 -7.57220459 88.08030701 C-7.57662493 84.87643664 -7.57368447 81.67262098 -7.5703125 78.46875 C-7.57098549 76.25297027 -7.57195547 74.03719061 -7.57321167 71.82141113 C-7.57468889 67.17080993 -7.57253331 62.52022789 -7.56787109 57.86962891 C-7.5621738 51.89367396 -7.56545267 45.91776391 -7.57144356 39.94181061 C-7.57504852 35.36435606 -7.57391088 30.78691225 -7.57131577 26.2094574 C-7.57064632 24.00532526 -7.57147554 21.80119217 -7.57379532 19.59706116 C-7.57632078 16.52236328 -7.57248275 13.44773922 -7.56689453 10.37304688 C-7.56891876 9.45249008 -7.57094299 8.53193329 -7.57302856 7.58348083 C-7.5478783 0.1544958 -7.34447273 0.04022165 0 0 Z " fill="#FDF8F7" transform="translate(161.4375,98.8125)"/>
</svg>
